<svg width="31" height="31" viewBox="0 0 31 31" fill="none" xmlns="http://www.w3.org/2000/svg">
<path d="M15.6916 30.4428C23.8055 30.4428 30.3832 23.8518 30.3832 15.7214C30.3832 7.59099 23.8055 1 15.6916 1C7.57765 1 1 7.59099 1 15.7214C1 23.8518 7.57765 30.4428 15.6916 30.4428Z" fill="#FFECEC"/>
<path d="M15.6915 29.9836C23.5518 29.9836 29.9239 23.5986 29.9239 15.7223C29.9239 7.84596 23.5518 1.46094 15.6915 1.46094C7.83108 1.46094 1.45898 7.84596 1.45898 15.7223C1.45898 23.5986 7.83108 29.9836 15.6915 29.9836Z" stroke="#D10000"/>
<path d="M16.611 15.722L19.3859 12.9451C19.4513 12.8859 19.5039 12.814 19.5407 12.7337C19.5775 12.6535 19.5976 12.5666 19.5998 12.4783C19.602 12.3901 19.5863 12.3023 19.5536 12.2203C19.5209 12.1383 19.4719 12.0638 19.4096 12.0013C19.3473 11.9389 19.2729 11.8898 19.1911 11.857C19.1093 11.8243 19.0217 11.8085 18.9336 11.8108C18.8455 11.813 18.7587 11.8331 18.6787 11.87C18.5986 11.9068 18.5268 11.9596 18.4677 12.0251L15.6928 14.8056L12.9179 12.0251C12.8588 11.9596 12.7871 11.9068 12.707 11.87C12.6269 11.8331 12.5402 11.813 12.4521 11.8108C12.364 11.8085 12.2764 11.8243 12.1945 11.857C12.1127 11.8898 12.0384 11.9389 11.9761 12.0013C11.9137 12.0638 11.8648 12.1383 11.8321 12.2203C11.7994 12.3023 11.7836 12.3901 11.7858 12.4783C11.7881 12.5666 11.8082 12.6535 11.8449 12.7337C11.8817 12.814 11.9344 12.8859 11.9997 12.9451L14.7746 15.7256L11.997 18.5025C11.8851 18.6264 11.8251 18.7887 11.8293 18.9557C11.8335 19.1228 11.9015 19.2818 12.0195 19.4C12.1374 19.5182 12.2961 19.5864 12.4628 19.5906C12.6295 19.5948 12.7915 19.5346 12.9152 19.4226L15.6901 16.642L18.4649 19.4226C18.5886 19.5346 18.7506 19.5948 18.9173 19.5906C19.084 19.5864 19.2427 19.5182 19.3607 19.4C19.4786 19.2818 19.5467 19.1228 19.5509 18.9557C19.5551 18.7887 19.495 18.6264 19.3832 18.5025L16.611 15.722Z" fill="#D10000"/>
</svg>
