<svg width="33" height="32" viewBox="0 0 33 32" fill="none" xmlns="http://www.w3.org/2000/svg">
<path d="M25.7621 1H7.41979C3.87424 1 1 3.8523 1 7.37079V25.573C1 29.0915 3.87424 31.9438 7.41979 31.9438H25.7621C29.3076 31.9438 32.1819 29.0915 32.1819 25.573V7.37079C32.1819 3.8523 29.3076 1 25.7621 1Z" fill="#F44336" fill-opacity="0.05"/>
<path d="M25.762 1.45508H7.41973C4.12743 1.45508 1.4585 4.10364 1.4585 7.37081V25.5731C1.4585 28.8402 4.12743 31.4888 7.41973 31.4888H25.762C29.0543 31.4888 31.7232 28.8402 31.7232 25.5731V7.37081C31.7232 4.10364 29.0543 1.45508 25.762 1.45508Z" stroke="#F44336"/>
<path d="M22.7962 11.1736H9.66041C9.47942 11.1916 9.31163 11.2757 9.1896 11.4096C9.06757 11.5434 9 11.7175 9 11.898C9 12.0785 9.06757 12.2526 9.1896 12.3865C9.31163 12.5203 9.47942 12.6044 9.66041 12.6225H11.1168V21.3149C11.117 21.8913 11.3478 22.4439 11.7585 22.8515C12.1692 23.259 12.7261 23.4881 13.3069 23.4883H19.147C19.7279 23.4883 20.2849 23.2593 20.6956 22.8517C21.1064 22.4442 21.3371 21.8914 21.3371 21.3149V12.6225H22.7971C22.8992 12.6326 23.0022 12.6215 23.0996 12.5897C23.197 12.5579 23.2866 12.5062 23.3626 12.4379C23.4387 12.3697 23.4994 12.2864 23.541 12.1934C23.5826 12.1004 23.6041 11.9998 23.6041 11.898C23.6041 11.7963 23.5826 11.6956 23.541 11.6026C23.4994 11.5097 23.4387 11.4263 23.3626 11.3581C23.2866 11.2898 23.197 11.2381 23.0996 11.2064C23.0022 11.1746 22.8992 11.1634 22.7971 11.1736H22.7962ZM15.4969 19.1416C15.4788 19.3212 15.394 19.4877 15.2591 19.6088C15.1242 19.7299 14.9488 19.797 14.7669 19.797C14.585 19.797 14.4096 19.7299 14.2747 19.6088C14.1398 19.4877 14.055 19.3212 14.0369 19.1416V15.5203C14.055 15.3407 14.1398 15.1741 14.2747 15.053C14.4096 14.9319 14.585 14.8649 14.7669 14.8649C14.9488 14.8649 15.1242 14.9319 15.2591 15.053C15.394 15.1741 15.4788 15.3407 15.4969 15.5203V19.1416ZM18.417 19.1416C18.3988 19.3212 18.3141 19.4877 18.1792 19.6088C18.0443 19.7299 17.8689 19.797 17.687 19.797C17.5051 19.797 17.3297 19.7299 17.1948 19.6088C17.0599 19.4877 16.9751 19.3212 16.957 19.1416V15.5203C16.9751 15.3407 17.0599 15.1741 17.1948 15.053C17.3297 14.9319 17.5051 14.8649 17.687 14.8649C17.8689 14.8649 18.0443 14.9319 18.1792 15.053C18.3141 15.1741 18.3988 15.3407 18.417 15.5203V19.1416Z" fill="#F44336"/>
<path d="M14.7703 10.4489H17.6867C17.8677 10.4309 18.0355 10.3468 18.1575 10.2129C18.2795 10.079 18.3471 9.90496 18.3471 9.72445C18.3471 9.54394 18.2795 9.36986 18.1575 9.236C18.0355 9.10213 17.8677 9.01803 17.6867 9H14.7703C14.5893 9.01803 14.4215 9.10213 14.2995 9.236C14.1774 9.36986 14.1099 9.54394 14.1099 9.72445C14.1099 9.90496 14.1774 10.079 14.2995 10.2129C14.4215 10.3468 14.5893 10.4309 14.7703 10.4489Z" fill="#F44336"/>
</svg>
