<svg width="54" height="54" viewBox="0 0 54 54" fill="none" xmlns="http://www.w3.org/2000/svg">
<path d="M27 50C39.7025 50 50 39.7025 50 27C50 14.2975 39.7025 4 27 4C14.2975 4 4 14.2975 4 27C4 39.7025 14.2975 50 27 50Z" fill="#A7C521"/>
<path d="M27 48.7256C39.1503 48.7256 49 38.8759 49 26.7256C49 14.5753 39.1503 4.72559 27 4.72559C14.8497 4.72559 5 14.5753 5 26.7256C5 38.8759 14.8497 48.7256 27 48.7256Z" stroke="#A7C521" stroke-width="2"/>
<g opacity="0.31">
<path d="M27 51C40.2548 51 51 40.2548 51 27C51 13.7452 40.2548 3 27 3C13.7452 3 3 13.7452 3 27C3 40.2548 13.7452 51 27 51Z" stroke="#A7C521" stroke-width="6"/>
</g>
<path d="M35.969 21L23.615 33.354L18 27.738" stroke="white" stroke-width="3" stroke-linecap="round" stroke-linejoin="round"/>
</svg>
