<svg width="46" height="46" viewBox="0 0 46 46" fill="none" xmlns="http://www.w3.org/2000/svg">
<path d="M23 46C35.7025 46 46 35.7025 46 23C46 10.2975 35.7025 0 23 0C10.2975 0 0 10.2975 0 23C0 35.7025 10.2975 46 23 46Z" fill="#A7C521"/>
<path d="M23 45C35.1503 45 45 35.1503 45 23C45 10.8497 35.1503 1 23 1C10.8497 1 1 10.8497 1 23C1 35.1503 10.8497 45 23 45Z" stroke="#CCE55B" stroke-width="2"/>
<path d="M28.7741 23.226C28.0657 23.2236 27.3644 23.367 26.7137 23.6473C26.0631 23.9275 25.4771 24.3386 24.9921 24.855C23.5821 23.73 21.83 23.1203 20.0261 23.127H20.0111C18.9543 23.1221 17.9074 23.3304 16.9329 23.7395C15.9585 24.1486 15.0767 24.7501 14.3401 25.5081C12.8053 27.1087 11.9646 29.2507 12.0011 31.468C12.0019 31.5935 12.051 31.7138 12.1381 31.804C12.1822 31.8481 12.2346 31.8829 12.2923 31.9064C12.35 31.93 12.4118 31.9417 12.4741 31.941L24.9011 31.917C24.9291 31.95 24.9581 31.979 24.9861 32.012C25.5787 32.6393 26.3178 33.1096 27.137 33.3805C27.9562 33.6515 28.8299 33.7147 29.6796 33.5645C30.5294 33.4143 31.3284 33.0553 32.0051 32.5199C32.6818 31.9845 33.2148 31.2893 33.5564 30.4969C33.8979 29.7045 34.0373 28.8397 33.9619 27.9801C33.8865 27.1205 33.5988 26.2931 33.1245 25.5722C32.6503 24.8513 32.0044 24.2595 31.2449 23.85C30.4854 23.4405 29.636 23.2261 28.7731 23.226H28.7741ZM12.9621 30.99C13.0354 29.1851 13.7663 27.4693 15.0171 26.166C15.6655 25.4986 16.4421 24.9693 17.3004 24.6097C18.1586 24.2502 19.0807 24.068 20.0111 24.0741H20.0251C21.6175 24.0676 23.1642 24.6053 24.4091 25.598C23.8945 26.393 23.6058 27.3131 23.5741 28.2596C23.5424 29.2061 23.7688 30.1434 24.2291 30.971L12.9621 30.99ZM28.7731 32.6901C27.9304 32.6901 27.1066 32.4402 26.4059 31.9719C25.7051 31.5037 25.159 30.8383 24.8365 30.0597C24.514 29.2811 24.4296 28.4243 24.594 27.5978C24.7584 26.7712 25.1642 26.012 25.7602 25.4161C26.3561 24.8202 27.1153 24.4143 27.9419 24.2499C28.7684 24.0855 29.6252 24.1699 30.4038 24.4924C31.1824 24.8149 31.8478 25.361 32.316 26.0618C32.7842 26.7625 33.0341 27.5863 33.0341 28.429C33.0347 28.9889 32.9249 29.5433 32.711 30.0607C32.4972 30.578 32.1835 31.0482 31.7879 31.4443C31.3923 31.8404 30.9225 32.1546 30.4054 32.369C29.8883 32.5835 29.334 32.6939 28.7741 32.6941L28.7731 32.6901Z" fill="white"/>
<path d="M20.0166 22C21.0055 22 21.9722 21.7068 22.7944 21.1574C23.6167 20.6079 24.2576 19.827 24.636 18.9134C25.0144 17.9998 25.1135 16.9945 24.9205 16.0246C24.7276 15.0546 24.2514 14.1637 23.5521 13.4645C22.8529 12.7652 21.962 12.289 20.9921 12.0961C20.0221 11.9031 19.0168 12.0022 18.1032 12.3806C17.1895 12.759 16.4087 13.3999 15.8593 14.2222C15.3098 15.0444 15.0166 16.0111 15.0166 17C15.0166 18.3261 15.5434 19.5979 16.4811 20.5355C17.4187 21.4732 18.6905 22 20.0166 22ZM20.0166 12.939C20.8192 12.9382 21.6039 13.1755 22.2716 13.6208C22.9393 14.0661 23.46 14.6994 23.7676 15.4407C24.0753 16.1819 24.1562 16.9978 24.0001 17.785C23.844 18.5723 23.458 19.2955 22.8907 19.8633C22.3235 20.4311 21.6006 20.8179 20.8136 20.9748C20.0265 21.1316 19.2105 21.0515 18.469 20.7446C17.7274 20.4376 17.0936 19.9176 16.6476 19.2504C16.2016 18.5831 15.9636 17.7986 15.9636 16.996C15.9636 15.92 16.391 14.8881 17.1519 14.1273C17.9127 13.3664 18.9446 12.939 20.0206 12.939H20.0166Z" fill="white"/>
<path d="M30.369 26.9888L28.082 28.8487L27.244 27.8688C27.1624 27.7734 27.0461 27.7144 26.921 27.7048C26.7958 27.6951 26.6719 27.7356 26.5765 27.8173C26.4812 27.8989 26.4222 28.0152 26.4125 28.1403C26.4029 28.2655 26.4433 28.3894 26.525 28.4848L27.661 29.8148C27.7056 29.8667 27.7608 29.9084 27.8229 29.937C27.8851 29.9657 27.9526 29.9806 28.021 29.9808C28.1296 29.9834 28.2358 29.948 28.321 29.8808L30.968 27.7267C31.0654 27.6472 31.1271 27.5322 31.1397 27.4071C31.1522 27.282 31.1146 27.1571 31.035 27.0597C30.9555 26.9624 30.8405 26.9007 30.7154 26.8881C30.5903 26.8756 30.4654 26.9132 30.368 26.9928L30.369 26.9888Z" fill="white"/>
</svg>
