<svg width="54" height="54" viewBox="0 0 54 54" fill="none" xmlns="http://www.w3.org/2000/svg">
<path d="M27 49.7256C39.7025 49.7256 50 39.4281 50 26.7256C50 14.023 39.7025 3.72559 27 3.72559C14.2975 3.72559 4 14.023 4 26.7256C4 39.4281 14.2975 49.7256 27 49.7256Z" fill="white"/>
<path d="M27 48.7256C39.1503 48.7256 49 38.8759 49 26.7256C49 14.5753 39.1503 4.72559 27 4.72559C14.8497 4.72559 5 14.5753 5 26.7256C5 38.8759 14.8497 48.7256 27 48.7256Z" stroke="#FBAB1E" stroke-width="2"/>
<g opacity="0.31">
<path d="M27 51C40.2548 51 51 40.2548 51 27C51 13.7452 40.2548 3 27 3C13.7452 3 3 13.7452 3 27C3 40.2548 13.7452 51 27 51Z" stroke="#FBAB1E" stroke-width="6"/>
</g>
<path d="M35.3759 19.6893C34.6294 18.0667 33.4274 16.6959 31.9162 15.7437C30.4049 14.7916 28.6495 14.2991 26.8636 14.3263C25.0776 14.3534 23.338 14.8989 21.8563 15.8965C20.3747 16.8941 19.2149 18.3007 18.5179 19.9453C18.0385 21.0789 17.7926 22.2976 17.7949 23.5283C17.8144 24.3177 17.9491 25.1 18.1949 25.8503C18.468 26.709 18.8081 27.5449 19.2119 28.3503C19.8703 29.6638 20.6104 30.9346 21.4279 32.1553C22.1429 33.2383 22.9629 34.3843 23.8629 35.5553C24.7019 36.6503 25.4429 37.5553 25.9509 38.1553H23.0299C22.9014 38.1553 22.7782 38.2064 22.6873 38.2973C22.5965 38.3881 22.5454 38.5114 22.5454 38.6398C22.5454 38.7683 22.5965 38.8916 22.6873 38.9824C22.7782 39.0733 22.9014 39.1243 23.0299 39.1243H30.9789C31.1074 39.1243 31.2307 39.0733 31.3215 38.9824C31.4124 38.8916 31.4634 38.7683 31.4634 38.6398C31.4634 38.5114 31.4124 38.3881 31.3215 38.2973C31.2307 38.2064 31.1074 38.1553 30.9789 38.1553H28.0599C28.6179 37.4933 29.4599 36.4683 30.3919 35.2373C31.3589 33.9593 32.2239 32.7253 32.9619 31.5703C33.7977 30.2881 34.5361 28.945 35.1709 27.5523C35.1994 27.4937 35.2157 27.4299 35.219 27.3648C35.2222 27.2997 35.2123 27.2346 35.1898 27.1735C35.1674 27.1123 35.1328 27.0563 35.0882 27.0087C35.0436 26.9612 34.9898 26.9232 34.9302 26.8969C34.8706 26.8706 34.8062 26.8566 34.7411 26.8557C34.6759 26.8548 34.6112 26.8671 34.5509 26.8918C34.4906 26.9165 34.4358 26.9531 34.39 26.9994C34.3441 27.0457 34.308 27.1008 34.2839 27.1613C33.002 29.8178 31.4384 32.3289 29.6199 34.6513C28.7749 35.7673 28.0089 36.7053 27.5199 37.2953C27.3449 37.5053 27.1719 37.7093 27.0069 37.9013C25.4514 36.0844 23.9927 34.1868 22.6369 32.2163C21.6199 30.7548 20.7172 29.2169 19.9369 27.6163C19.2653 26.3496 18.8677 24.9558 18.7699 23.5253C18.7713 21.3421 19.6392 19.2486 21.1831 17.7048C22.7271 16.1611 24.8206 15.2934 27.0039 15.2923C29.129 15.2865 31.1736 16.1043 32.7084 17.574C34.2432 19.0437 35.1488 21.0511 35.2349 23.1743C35.2399 23.2993 35.293 23.4175 35.3833 23.504C35.4736 23.5905 35.5939 23.6387 35.7189 23.6383H35.7399C35.8675 23.6329 35.9878 23.5773 36.0747 23.4837C36.1616 23.3901 36.208 23.266 36.2039 23.1383C36.1552 21.9473 35.874 20.7773 35.3759 19.6943V19.6893Z" fill="#FBAB1E"/>
<path d="M29.901 20.9523C29.7959 20.878 29.6657 20.8485 29.5389 20.8703C29.4122 20.892 29.2992 20.9632 29.225 21.0683L26.665 24.6933L24.648 22.4753C24.56 22.3864 24.4411 22.335 24.316 22.3317C24.191 22.3285 24.0696 22.3736 23.9771 22.4577C23.8845 22.5419 23.8281 22.6585 23.8195 22.7832C23.8109 22.908 23.8508 23.0313 23.931 23.1273L26.354 25.7923C26.4028 25.846 26.463 25.8881 26.5303 25.9155C26.5975 25.9428 26.67 25.9547 26.7425 25.9503C26.815 25.9459 26.8855 25.9253 26.9489 25.89C27.0124 25.8546 27.067 25.8055 27.109 25.7463L30.017 21.6283C30.0539 21.5763 30.0801 21.5176 30.0943 21.4554C30.1084 21.3933 30.1101 21.329 30.0994 21.2662C30.0886 21.2034 30.0655 21.1433 30.0315 21.0894C29.9974 21.0356 29.9531 20.989 29.901 20.9523Z" fill="#FBAB1E"/>
<path d="M35.4684 25.7932C35.7363 25.7932 35.9534 25.5765 35.9534 25.3092C35.9534 25.0419 35.7363 24.8252 35.4684 24.8252C35.2005 24.8252 34.9834 25.0419 34.9834 25.3092C34.9834 25.5765 35.2005 25.7932 35.4684 25.7932Z" fill="#FBAB1E"/>
<path d="M27.0036 16.7451C25.6622 16.7457 24.3511 17.144 23.236 17.8897C22.121 18.6354 21.252 19.695 20.7391 20.9345C20.2262 22.1739 20.0923 23.5377 20.3543 24.8533C20.6164 26.1688 21.2627 27.3772 22.2114 28.3255C23.1601 29.2738 24.3688 29.9195 25.6844 30.181C27.0001 30.4425 28.3638 30.308 29.6031 29.7945C30.8423 29.281 31.9015 28.4116 32.6467 27.2962C33.3919 26.1808 33.7896 24.8695 33.7896 23.5281C33.7895 22.6371 33.6139 21.7549 33.2728 20.9318C32.9316 20.1088 32.4317 19.3609 31.8016 18.731C31.1714 18.1012 30.4234 17.6016 29.6001 17.2608C28.7769 16.9201 27.8946 16.7449 27.0036 16.7451ZM27.0036 29.3451C25.8538 29.3447 24.7299 29.0034 23.7741 28.3643C22.8183 27.7252 22.0734 26.8171 21.6336 25.7547C21.1939 24.6922 21.079 23.5233 21.3036 22.3956C21.5282 21.268 22.082 20.2322 22.8952 19.4193C23.7084 18.6064 24.7444 18.0529 25.8721 17.8287C26.9999 17.6045 28.1688 17.7198 29.231 18.1599C30.2933 18.6 31.2012 19.3452 31.8399 20.3012C32.4787 21.2573 32.8196 22.3813 32.8196 23.5311C32.8195 24.2948 32.669 25.0509 32.3766 25.7563C32.0843 26.4618 31.6558 27.1028 31.1158 27.6427C30.5757 28.1825 29.9346 28.6107 29.229 28.9029C28.5235 29.195 27.7673 29.3452 27.0036 29.3451Z" fill="#FBAB1E"/>
</svg>
