<svg width="54" height="54" viewBox="0 0 54 54" fill="none" xmlns="http://www.w3.org/2000/svg">
<path d="M27 49.7256C39.7025 49.7256 50 39.4281 50 26.7256C50 14.023 39.7025 3.72559 27 3.72559C14.2975 3.72559 4 14.023 4 26.7256C4 39.4281 14.2975 49.7256 27 49.7256Z" fill="#A7C521"/>
<path d="M27 48.7256C39.1503 48.7256 49 38.8759 49 26.7256C49 14.5753 39.1503 4.72559 27 4.72559C14.8497 4.72559 5 14.5753 5 26.7256C5 38.8759 14.8497 48.7256 27 48.7256Z" stroke="#A7C521" stroke-width="2"/>
<g opacity="0.31">
<path d="M27 51C40.2548 51 51 40.2548 51 27C51 13.7452 40.2548 3 27 3C13.7452 3 3 13.7452 3 27C3 40.2548 13.7452 51 27 51Z" stroke="#A7C521" stroke-width="6"/>
</g>
<path d="M35.3759 19.6884C34.6294 18.0657 33.4274 16.6949 31.9162 15.7428C30.4049 14.7906 28.6495 14.2982 26.8636 14.3253C25.0776 14.3524 23.338 14.8979 21.8563 15.8955C20.3747 16.8931 19.2149 18.2998 18.5179 19.9444C18.0385 21.0779 17.7926 22.2966 17.7949 23.5274C17.8144 24.3167 17.9491 25.099 18.1949 25.8494C18.468 26.708 18.8081 27.5439 19.2119 28.3494C19.8703 29.6628 20.6104 30.9336 21.4279 32.1544C22.1429 33.2374 22.9629 34.3834 23.8629 35.5544C24.7019 36.6494 25.4429 37.5544 25.9509 38.1544H23.0299C22.9014 38.1544 22.7782 38.2054 22.6873 38.2963C22.5965 38.3871 22.5454 38.5104 22.5454 38.6389C22.5454 38.7674 22.5965 38.8906 22.6873 38.9815C22.7782 39.0723 22.9014 39.1234 23.0299 39.1234H30.9789C31.1074 39.1234 31.2307 39.0723 31.3215 38.9815C31.4124 38.8906 31.4634 38.7674 31.4634 38.6389C31.4634 38.5104 31.4124 38.3871 31.3215 38.2963C31.2307 38.2054 31.1074 38.1544 30.9789 38.1544H28.0599C28.6179 37.4924 29.4599 36.4674 30.3919 35.2364C31.3589 33.9584 32.2239 32.7244 32.9619 31.5694C33.7977 30.2872 34.5361 28.9441 35.1709 27.5514C35.1994 27.4927 35.2157 27.429 35.219 27.3639C35.2222 27.2988 35.2123 27.2337 35.1898 27.1725C35.1674 27.1113 35.1328 27.0553 35.0882 27.0078C35.0436 26.9602 34.9898 26.9222 34.9302 26.8959C34.8706 26.8696 34.8062 26.8556 34.7411 26.8547C34.6759 26.8539 34.6112 26.8661 34.5509 26.8908C34.4906 26.9155 34.4358 26.9521 34.39 26.9984C34.3441 27.0447 34.308 27.0998 34.2839 27.1604C33.002 29.8169 31.4384 32.3279 29.6199 34.6504C28.7749 35.7664 28.0089 36.7044 27.5199 37.2944C27.3449 37.5044 27.1719 37.7084 27.0069 37.9004C25.4514 36.0835 23.9927 34.1858 22.6369 32.2154C21.6199 30.7538 20.7172 29.2159 19.9369 27.6154C19.2653 26.3487 18.8677 24.9548 18.7699 23.5244C18.7713 21.3411 19.6392 19.2476 21.1831 17.7039C22.7271 16.1601 24.8206 15.2924 27.0039 15.2914C29.129 15.2855 31.1736 16.1033 32.7084 17.573C34.2432 19.0428 35.1488 21.0501 35.2349 23.1734C35.2399 23.2983 35.293 23.4165 35.3833 23.503C35.4736 23.5896 35.5939 23.6377 35.7189 23.6374H35.7399C35.8675 23.6319 35.9878 23.5763 36.0747 23.4827C36.1616 23.3891 36.208 23.265 36.2039 23.1374C36.1552 21.9464 35.874 20.7764 35.3759 19.6934V19.6884Z" fill="white"/>
<path d="M29.901 20.9513C29.7959 20.877 29.6657 20.8475 29.5389 20.8693C29.4122 20.891 29.2992 20.9623 29.225 21.0673L26.665 24.6923L24.648 22.4743C24.56 22.3854 24.4411 22.334 24.316 22.3307C24.191 22.3275 24.0696 22.3726 23.9771 22.4568C23.8845 22.5409 23.8281 22.6575 23.8195 22.7823C23.8109 22.907 23.8508 23.0303 23.931 23.1263L26.354 25.7913C26.4028 25.845 26.463 25.8871 26.5303 25.9145C26.5975 25.9418 26.67 25.9537 26.7425 25.9493C26.815 25.9449 26.8855 25.9243 26.9489 25.889C27.0124 25.8537 27.067 25.8046 27.109 25.7453L30.017 21.6273C30.0539 21.5753 30.0801 21.5166 30.0943 21.4545C30.1084 21.3923 30.1101 21.328 30.0994 21.2652C30.0886 21.2024 30.0655 21.1423 30.0315 21.0885C29.9974 21.0346 29.9531 20.988 29.901 20.9513Z" fill="white"/>
<path d="M35.4684 25.7922C35.7363 25.7922 35.9534 25.5755 35.9534 25.3082C35.9534 25.0409 35.7363 24.8242 35.4684 24.8242C35.2005 24.8242 34.9834 25.0409 34.9834 25.3082C34.9834 25.5755 35.2005 25.7922 35.4684 25.7922Z" fill="white"/>
<path d="M27.0036 16.7441C25.6622 16.7447 24.3511 17.1431 23.236 17.8887C22.121 18.6344 21.252 19.694 20.7391 20.9335C20.2262 22.173 20.0923 23.5367 20.3543 24.8523C20.6164 26.1679 21.2627 27.3762 22.2114 28.3245C23.1601 29.2728 24.3688 29.9185 25.6844 30.18C27.0001 30.4415 28.3638 30.307 29.6031 29.7935C30.8423 29.2801 31.9015 28.4107 32.6467 27.2953C33.3919 26.1799 33.7896 24.8686 33.7896 23.5271C33.7895 22.6362 33.6139 21.754 33.2728 20.9309C32.9316 20.1078 32.4317 19.3599 31.8016 18.7301C31.1714 18.1002 30.4234 17.6006 29.6001 17.2599C28.7769 16.9191 27.8946 16.7439 27.0036 16.7441ZM27.0036 29.3441C25.8538 29.3437 24.7299 29.0024 23.7741 28.3633C22.8183 27.7242 22.0734 26.8161 21.6336 25.7537C21.1939 24.6913 21.079 23.5223 21.3036 22.3947C21.5282 21.267 22.082 20.2312 22.8952 19.4183C23.7084 18.6054 24.7444 18.0519 25.8721 17.8277C26.9999 17.6035 28.1688 17.7188 29.231 18.1589C30.2933 18.599 31.2012 19.3442 31.8399 20.3003C32.4787 21.2563 32.8196 22.3803 32.8196 23.5301C32.8195 24.2938 32.669 25.0499 32.3766 25.7554C32.0843 26.4608 31.6558 27.1018 31.1158 27.6417C30.5757 28.1816 29.9346 28.6098 29.229 28.9019C28.5235 29.194 27.7673 29.3443 27.0036 29.3441Z" fill="white"/>
</svg>
