<svg width="34" height="33" viewBox="0 0 34 33" fill="none" xmlns="http://www.w3.org/2000/svg">
<path d="M0 6.31191L12.7032 0L25.4064 6.31191V7.14556L12.7032 13.4575L0 7.1654V6.31191Z" fill="#EFC75E"/>
<path d="M0 6.31055L12.7032 12.6225L25.4064 6.31055V18.9542L12.6635 25.2661L0 18.9542V6.31055Z" fill="#E7BF55"/>
<path d="M12.7032 25.2476V12.6238L0.0793951 6.35156H0V18.9555L12.6635 25.2674L12.7032 25.2476Z" fill="#DBB551"/>
<path d="M5.18066 3.75177L17.864 10.0637L20.4444 8.79335L7.72131 2.48145L5.18066 3.75177Z" fill="#F7E3AF"/>
<path d="M17.8633 10.0643L20.4436 8.79395V12.7637L19.7489 12.6446L19.0145 13.5378L17.8633 13.4584V10.0643Z" fill="#F1D999"/>
<path d="M10.0834 17.6637L5.79605 15.5201C5.55786 15.401 5.35938 15.5399 5.35938 15.8377V18.7157C5.35938 19.0135 5.55786 19.3509 5.79605 19.47L10.1032 21.6136C10.3414 21.7327 10.5399 21.5938 10.5399 21.2961V18.3981C10.5201 18.1004 10.3216 17.7828 10.0834 17.6637ZM9.11079 20.0257L6.37166 18.6562C6.25257 18.5966 6.15333 18.418 6.15333 18.2592C6.15333 18.1004 6.25257 18.021 6.37166 18.0806L9.11079 19.4501C9.22988 19.5097 9.32913 19.6883 9.32913 19.8471C9.32913 20.0059 9.22988 20.0853 9.11079 20.0257ZM9.50777 19.0333L6.37166 17.4454C6.25257 17.3859 6.15333 17.2072 6.15333 17.0484C6.15333 16.8896 6.25257 16.8102 6.37166 16.8698L9.50777 18.4577C9.62686 18.5172 9.7261 18.6959 9.7261 18.8547C9.7261 19.0333 9.62686 19.0929 9.50777 19.0333Z" fill="#F2F2F2"/>
<path d="M7.73242 14.0443L20.4356 7.73242L33.1388 14.0443V14.878L20.4356 21.1899L7.73242 14.8978V14.0443Z" fill="#EFC75E"/>
<path d="M7.73242 14.043L20.4356 20.3549L33.1388 14.043V26.6866L20.3959 32.9985L7.73242 26.6866V14.043Z" fill="#E7BF55"/>
<path d="M20.4356 32.98V20.3562L7.81182 14.084H7.73242V26.688L20.3959 32.9999L20.4356 32.98Z" fill="#DBB551"/>
<path d="M12.9131 11.4842L25.5964 17.7961L28.1768 16.5258L15.4537 10.2139L12.9131 11.4842Z" fill="#F7E3AF"/>
<path d="M25.5957 17.7967L28.176 16.5264V20.4961L27.4813 20.377L26.7469 21.2702L25.5957 21.1908V17.7967Z" fill="#F1D999"/>
<path d="M17.8158 25.3962L13.5285 23.2525C13.2903 23.1334 13.0918 23.2723 13.0918 23.5701V26.4481C13.0918 26.7459 13.2903 27.0833 13.5285 27.2024L17.8357 29.3461C18.0738 29.4652 18.2723 29.3262 18.2723 29.0285V26.1306C18.2525 25.8328 18.054 25.5153 17.8158 25.3962ZM16.8432 27.7582L14.1041 26.3886C13.985 26.3291 13.8857 26.1504 13.8857 25.9916C13.8857 25.8328 13.985 25.7534 14.1041 25.813L16.8432 27.1825C16.9623 27.2421 17.0615 27.4207 17.0615 27.5795C17.0615 27.7383 16.9623 27.8177 16.8432 27.7582ZM17.2402 26.7657L14.1041 25.1778C13.985 25.1183 13.8857 24.9396 13.8857 24.7808C13.8857 24.6221 13.985 24.5427 14.1041 24.6022L17.2402 26.1901C17.3593 26.2497 17.4585 26.4283 17.4585 26.5871C17.4585 26.7657 17.3593 26.8253 17.2402 26.7657Z" fill="#F2F2F2"/>
</svg>
