<svg width="40" height="46" viewBox="0 0 40 46" fill="none" xmlns="http://www.w3.org/2000/svg">
<path d="M20.01 45.5003C19.4173 45.4788 18.8436 45.2852 18.359 44.9433C13.5534 41.8539 9.33285 37.9377 5.89302 33.3763C2.70632 29.3375 0.942347 24.3595 0.87502 19.2153C0.871295 16.7068 1.38713 14.2246 2.39002 11.9253C3.36202 9.6932 4.76052 7.67238 6.50702 5.97629C10.1187 2.46225 14.9589 0.496094 19.998 0.496094C25.0371 0.496094 29.8774 2.46225 33.489 5.97629C35.2367 7.67164 36.6363 9.69216 37.609 11.9243C38.6121 14.2236 39.1279 16.7057 39.124 19.2143C39.0561 24.3587 37.2922 29.3368 34.106 33.3763C30.6512 37.9245 26.4329 41.8383 21.639 44.9433C21.163 45.2859 20.5961 45.4798 20.01 45.5003ZM19.986 13.5003C18.3176 13.5082 16.7197 14.1745 15.54 15.3542C14.3602 16.534 13.6939 18.1319 13.686 19.8003C13.6825 20.6203 13.8444 21.4325 14.1619 22.1885C14.4794 22.9445 14.9461 23.6287 15.534 24.2003C16.7317 25.353 18.3293 25.9969 19.9915 25.9969C21.6538 25.9969 23.2514 25.353 24.449 24.2003C25.0403 23.6305 25.5101 22.9469 25.8301 22.1907C26.1501 21.4346 26.3137 20.6214 26.311 19.8003C26.2971 18.1294 25.6255 16.5313 24.4416 15.3521C23.2577 14.1729 21.6569 13.5076 19.986 13.5003Z" fill="#FFC600"/>
</svg>
