<svg width="27" height="26" viewBox="0 0 27 26" fill="none" xmlns="http://www.w3.org/2000/svg">
<path d="M0 4.97302L10.0086 0L20.0172 4.97302V5.62983L10.0086 10.6028L0 5.64547V4.97302Z" fill="#EFC75E"/>
<path d="M0 4.97168L10.0086 9.9447L20.0172 4.97168V14.9334L9.97731 19.9064L0 14.9334V4.97168Z" fill="#E7BF55"/>
<path d="M10.0086 19.8917V9.94565L0.0625537 5.00391H0V14.9343L9.97731 19.9073L10.0086 19.8917Z" fill="#DBB551"/>
<path d="M4.08154 2.95594L14.0745 7.92896L16.1075 6.9281L6.08326 1.95508L4.08154 2.95594Z" fill="#F7E3AF"/>
<path d="M14.0742 7.92957L16.1072 6.92871V10.0564L15.5599 9.96256L14.9812 10.6663L14.0742 10.6037V7.92957Z" fill="#F1D999"/>
<path d="M7.94411 13.9168L4.56621 12.2278C4.37855 12.134 4.22217 12.2435 4.22217 12.4781V14.7456C4.22217 14.9802 4.37855 15.2461 4.56621 15.3399L7.95975 17.0288C8.14741 17.1227 8.3038 17.0132 8.3038 16.7786V14.4954C8.28816 14.2608 8.13177 14.0106 7.94411 13.9168ZM7.17783 15.7778L5.01973 14.6987C4.9259 14.6518 4.8477 14.5111 4.8477 14.3859C4.8477 14.2608 4.9259 14.1983 5.01973 14.2452L7.17783 15.3243C7.27166 15.3712 7.34985 15.5119 7.34985 15.637C7.34985 15.7621 7.27166 15.8247 7.17783 15.7778ZM7.4906 14.9958L5.01973 13.7448C4.9259 13.6979 4.8477 13.5571 4.8477 13.432C4.8477 13.3069 4.9259 13.2443 5.01973 13.2913L7.4906 14.5423C7.58443 14.5892 7.66262 14.73 7.66262 14.8551C7.66262 14.9958 7.58443 15.0428 7.4906 14.9958Z" fill="#F2F2F2"/>
<path d="M6.09229 11.0658L16.1009 6.09277L26.1095 11.0658V11.7226L16.1009 16.6956L6.09229 11.7382V11.0658Z" fill="#EFC75E"/>
<path d="M6.09229 11.0645L16.1009 16.0375L26.1095 11.0645V21.0261L16.0696 25.9991L6.09229 21.0261V11.0645Z" fill="#E7BF55"/>
<path d="M16.1009 25.9845V16.0384L6.15484 11.0967H6.09229V21.0271L16.0696 26.0001L16.1009 25.9845Z" fill="#DBB551"/>
<path d="M10.1738 9.04871L20.1668 14.0217L22.1998 13.0209L12.1755 8.04785L10.1738 9.04871Z" fill="#F7E3AF"/>
<path d="M20.1665 14.0223L22.1995 13.0215V16.1492L21.6522 16.0553L21.0735 16.7591L20.1665 16.6965V14.0223Z" fill="#F1D999"/>
<path d="M14.0364 20.0096L10.6585 18.3206C10.4708 18.2268 10.3145 18.3363 10.3145 18.5708V20.8384C10.3145 21.073 10.4708 21.3388 10.6585 21.4327L14.052 23.1216C14.2397 23.2154 14.3961 23.106 14.3961 22.8714V20.5882C14.3804 20.3536 14.2241 20.1034 14.0364 20.0096ZM13.2701 21.8705L11.112 20.7915C11.0182 20.7446 10.94 20.6038 10.94 20.4787C10.94 20.3536 11.0182 20.2911 11.112 20.338L13.2701 21.417C13.3639 21.4639 13.4421 21.6047 13.4421 21.7298C13.4421 21.8549 13.3639 21.9175 13.2701 21.8705ZM13.5829 21.0886L11.112 19.8375C11.0182 19.7906 10.94 19.6499 10.94 19.5248C10.94 19.3997 11.0182 19.3371 11.112 19.384L13.5829 20.6351C13.6767 20.682 13.7549 20.8228 13.7549 20.9479C13.7549 21.0886 13.6767 21.1355 13.5829 21.0886Z" fill="#F2F2F2"/>
</svg>
