<svg width="21" height="21" viewBox="0 0 21 21" fill="none" xmlns="http://www.w3.org/2000/svg">
<path d="M14.8477 0H6.15234C2.7545 0 0 2.7545 0 6.15234V14.8477C0 18.2455 2.7545 21 6.15234 21H14.8477C18.2455 21 21 18.2455 21 14.8477V6.15234C21 2.7545 18.2455 0 14.8477 0Z" fill="#60D1E0"/>
<path d="M8.26529 7.69426C8.26529 8.19035 8.20976 8.61087 8.09904 8.95583C7.98832 9.30078 7.83654 9.57966 7.64437 9.79314C7.45221 10.0066 7.22673 10.1605 6.96793 10.2547C6.70913 10.3489 6.43216 10.396 6.13635 10.396C5.84053 10.396 5.55615 10.3465 5.29736 10.2472C5.03856 10.1479 4.81308 9.99036 4.62091 9.77451C4.42875 9.55865 4.27731 9.27943 4.16625 8.93719C4.05519 8.59494 4 8.18052 4 7.69426C4 7.208 4.05553 6.77866 4.16625 6.43642C4.27697 6.09417 4.42875 5.81631 4.62091 5.60283C4.81308 5.38969 5.03856 5.23584 5.29736 5.1413C5.55615 5.0471 5.83582 5 6.13635 5C6.43688 5 6.70913 5.04846 6.96793 5.14503C7.22673 5.24161 7.45221 5.3968 7.64437 5.61028C7.83654 5.82376 7.98798 6.10163 8.09904 6.44387C8.2101 6.78612 8.26529 7.20291 8.26529 7.69426ZM6.55769 15.8512H4.95375L10.7782 5.17858H12.3822L6.55769 15.8512ZM6.86091 7.69426C6.86091 7.25273 6.79933 6.92641 6.67615 6.71564C6.55298 6.50487 6.37293 6.39914 6.13668 6.39914C5.90043 6.39914 5.72745 6.50453 5.60462 6.71564C5.48144 6.92675 5.41986 7.25273 5.41986 7.69426C5.41986 8.13579 5.48144 8.45601 5.60462 8.66915C5.72779 8.88263 5.90514 8.98903 6.13668 8.98903C6.36822 8.98903 6.55298 8.88229 6.67615 8.66915C6.79933 8.45601 6.86091 8.13071 6.86091 7.69426ZM13.2767 13.3057C13.2767 13.8018 13.2212 14.2213 13.1104 14.5636C12.9997 14.9058 12.8479 15.184 12.6558 15.3972C12.4636 15.6107 12.2381 15.7645 11.9793 15.8587C11.7205 15.9529 11.4436 16 11.1477 16C10.8519 16 10.5675 15.9515 10.3088 15.855C10.05 15.7581 9.82447 15.6018 9.63231 15.386C9.44014 15.1701 9.2887 14.8909 9.17764 14.5487C9.06692 14.2064 9.01139 13.792 9.01139 13.3057C9.01139 12.8195 9.06692 12.3901 9.17764 12.0479C9.28837 11.7057 9.44014 11.4278 9.63231 11.2143C9.82447 11.0012 10.05 10.846 10.3088 10.7491C10.5675 10.6521 10.8472 10.604 11.1477 10.604C11.4483 10.604 11.7205 10.6525 11.9793 10.7491C12.2381 10.8456 12.4636 11.0022 12.6558 11.218C12.8479 11.4339 12.9994 11.7128 13.1104 12.0554C13.2212 12.3976 13.2767 12.8144 13.2767 13.3057ZM11.8723 13.3057C11.8723 12.8591 11.8107 12.5318 11.6875 12.3234C11.5644 12.115 11.3843 12.011 11.1481 12.011C10.9118 12.011 10.7388 12.115 10.616 12.3234C10.4928 12.5318 10.4313 12.8591 10.4313 13.3057C10.4313 13.7524 10.4928 14.0587 10.616 14.2695C10.7392 14.4806 10.9165 14.5856 11.1481 14.5856C11.3796 14.5856 11.5644 14.4802 11.6875 14.2695C11.8107 14.0587 11.8723 13.7374 11.8723 13.3057ZM18 13.3057C18 13.8018 17.9445 14.2213 17.8337 14.5636C17.723 14.9058 17.5712 15.184 17.3791 15.3972C17.1869 15.6107 16.9614 15.7645 16.7026 15.8587C16.4438 15.9529 16.1669 16 15.8711 16C15.5752 16 15.2909 15.9515 15.0321 15.855C14.7733 15.7584 14.5478 15.6018 14.3556 15.386C14.1635 15.1701 14.012 14.8909 13.901 14.5487C13.7899 14.2064 13.7347 13.792 13.7347 13.3057C13.7347 12.8195 13.7902 12.3901 13.901 12.0479C14.0117 11.7057 14.1635 11.4278 14.3556 11.2143C14.5478 11.0012 14.7733 10.846 15.0321 10.7491C15.2909 10.6521 15.5705 10.604 15.8711 10.604C16.1716 10.604 16.4438 10.6525 16.7026 10.7491C16.9614 10.8456 17.1869 11.0022 17.3791 11.218C17.5712 11.4339 17.7227 11.7128 17.8337 12.0554C17.9445 12.3976 18 12.8144 18 13.3057ZM16.5956 13.3057C16.5956 12.8591 16.534 12.5318 16.4109 12.3234C16.2877 12.115 16.1076 12.011 15.8714 12.011C15.6351 12.011 15.4622 12.115 15.3393 12.3234C15.2162 12.5318 15.1546 12.8591 15.1546 13.3057C15.1546 13.7524 15.2162 14.0587 15.3393 14.2695C15.4625 14.4806 15.6399 14.5856 15.8714 14.5856C16.1029 14.5856 16.2877 14.4802 16.4109 14.2695C16.534 14.0587 16.5956 13.7374 16.5956 13.3057Z" fill="white"/>
</svg>
