<svg xmlns="http://www.w3.org/2000/svg" xmlns:xlink="http://www.w3.org/1999/xlink" width="360.333" height="270.193" viewBox="0 0 360.333 270.193">
  <defs>
    <linearGradient id="linear-gradient" x1="0.499" y1="0.081" x2="0.501" y2="1.303" gradientUnits="objectBoundingBox">
      <stop offset="0.235" stop-color="#9c9c9c"/>
      <stop offset="1" stop-color="#fff" stop-opacity="0"/>
    </linearGradient>
    <radialGradient id="radial-gradient" cx="0.5" cy="0.5" r="6.27" gradientTransform="translate(0.458 0.456) scale(0.084 0.088)" gradientUnits="objectBoundingBox">
      <stop offset="0.408" stop-color="#9c9c9c"/>
      <stop offset="1" stop-color="#fff" stop-opacity="0"/>
    </radialGradient>
    <radialGradient id="radial-gradient-2" cx="0.5" cy="0.5" r="6.034" gradientTransform="translate(0.458 0.464) scale(0.084 0.071)" xlink:href="#radial-gradient"/>
  </defs>
  <g id="onboarding3" transform="translate(-34 -153.807)">
    <g id="Group_13581" data-name="Group 13581" transform="translate(-6.742 21.111)">
      <g id="Group_268" data-name="Group 268" transform="translate(323.38 259.901)">
        <g id="Group_1" data-name="Group 1" transform="translate(0 7.468)">
          <path id="Path_1" data-name="Path 1" d="M81.5,195.11a.078.078,0,0,0-.008-.033l0-4.648v-.414l-.021-1.413a.594.594,0,0,0-1.187.008v6h0l-.013.1v.527a.742.742,0,0,1,0,.1.923.923,0,0,1-.288.594.892.892,0,0,1-.431.213.782.782,0,0,1-.176.017.661.661,0,0,1-.159-.017.8.8,0,0,1-.464-.238.815.815,0,0,1-.255-.568.273.273,0,0,1,0-.059v-.669H78.48v-6a.6.6,0,0,0-1.191-.008l-.021,1.413v5.012l0,.084,0,.038-.008.113a2.364,2.364,0,0,0,.033.389c.013.063.025.125.042.188a1.825,1.825,0,0,0,.134.355c.029.059.059.113.092.167l.088.138c.013.017.025.029.038.046.033.042.067.084.1.121a.543.543,0,0,0,.067.071.033.033,0,0,0,.017.017s.008.013.013.017a.476.476,0,0,0,.071.063,1.541,1.541,0,0,0,.155.134,1.7,1.7,0,0,0,.23.155c.05.029.1.054.155.079l.025.013a1.25,1.25,0,0,0,.159.063,1.932,1.932,0,0,0,.268.071,1.152,1.152,0,0,0,.209.033.95.95,0,0,0,.188.008.257.257,0,0,0,.059,0,.142.142,0,0,0,.042,0,.951.951,0,0,0,.188-.008,1.154,1.154,0,0,0,.209-.033,1.934,1.934,0,0,0,.267-.071,1.251,1.251,0,0,0,.159-.063l.025-.013c.054-.025.1-.05.155-.079a2.755,2.755,0,0,0,.23-.155,1.534,1.534,0,0,0,.155-.134.756.756,0,0,0,.084-.079c.029-.029.054-.059.084-.088s.067-.079.1-.121c.012-.017.025-.029.038-.046q.044-.063.088-.138a1.233,1.233,0,0,0,.088-.163,1.541,1.541,0,0,0,.075-.171,1.494,1.494,0,0,0,.058-.18,2.025,2.025,0,0,0,.079-.61c0-.033,0-.063-.008-.088A.13.13,0,0,1,81.5,195.11Z" transform="translate(-72.136 -184.95)" fill="#fff"/>
          <path id="Path_2" data-name="Path 2" d="M8.741,145.68a1.856,1.856,0,0,0-.45-.635,2.173,2.173,0,0,0-.67-.415,2.2,2.2,0,0,0-.812-.151l-2.171.032,0,.1c.01.475.018,1.22.023,2.214s0,2.3-.008,3.884-.015,2.872-.015,3.878v2.313H6.763a2.058,2.058,0,0,0,1.436-.558,2.025,2.025,0,0,0,.687-1.4l0-8.221a1.4,1.4,0,0,0,.017-.248A2,2,0,0,0,8.741,145.68ZM7.676,154.8a.829.829,0,0,1-.267.624.878.878,0,0,1-.638.26h-.89l-.015-9.213v-.9h.492c.12,0,.256.005.406.015h.007a.853.853,0,0,1,.63.258.9.9,0,0,1,.275.625Z" transform="translate(-4.638 -144.479)" fill="#fff"/>
          <path id="Path_3" data-name="Path 3" d="M154.11,191.416v-.042a2.091,2.091,0,0,0-.231-.743,2.063,2.063,0,0,0-.47-.592,2.245,2.245,0,0,0-.65-.39,2.084,2.084,0,0,0-.764-.144H151.9a1.972,1.972,0,0,0-1.433.653,2.018,2.018,0,0,0-.59,1.485v.1H151.1v-.135a.829.829,0,0,1,.266-.623.879.879,0,0,1,.639-.259.853.853,0,0,1,.63.258.839.839,0,0,1,.26.624v.224l-1.68.848a2.138,2.138,0,0,0-.957.757,2.019,2.019,0,0,0-.368,1.191l-.015,2.049a2.114,2.114,0,0,0,3.546,1.565,1.758,1.758,0,0,0,.685-1.383l0-5.029a1.314,1.314,0,0,0,0-.42Zm-1.211,5.267a.864.864,0,0,1-.261.632.841.841,0,0,1-.629.265.866.866,0,0,1-.638-.266.852.852,0,0,1-.267-.631v-2.03a.78.78,0,0,1,.4-.734l1.392-.709h0Z" transform="translate(-139.648 -186.333)" fill="#fff"/>
          <path id="Path_4" data-name="Path 4" d="M224.839,148.619a2.088,2.088,0,0,0-1.12.189l0-2.638a.612.612,0,1,0-1.225,0v4.392l-.015,5.129a2.122,2.122,0,0,0,.5,1.464,2.06,2.06,0,0,0,1.615.753h.112a2.125,2.125,0,0,0,2-2.12l.01-4.793c0-.05,0-.1,0-.146v-.121a2.045,2.045,0,0,0-.552-1.427A2.132,2.132,0,0,0,224.839,148.619Zm.663,7.089v.107a.821.821,0,0,1-.154.465.925.925,0,0,1-.87.394.865.865,0,0,1-.506-.251.817.817,0,0,1-.265-.61v-5.064a.892.892,0,0,1,.208-.6.882.882,0,0,1,.69-.319.842.842,0,0,1,.624.258.857.857,0,0,1,.258.641l.015.1Z" transform="translate(-207.136 -145.481)" fill="#fff"/>
          <path id="Path_5" data-name="Path 5" d="M299.331,191.628a.906.906,0,0,0-.015-.212v-.043a2.1,2.1,0,0,0-.231-.742,2.058,2.058,0,0,0-.47-.592,2.247,2.247,0,0,0-.65-.39,2.084,2.084,0,0,0-.764-.144h-.093a1.972,1.972,0,0,0-1.433.653,2.018,2.018,0,0,0-.59,1.485v.1h1.226v-.135a.827.827,0,0,1,.266-.623.878.878,0,0,1,.638-.259.854.854,0,0,1,.63.258.838.838,0,0,1,.26.624v.224l-1.68.848a2.139,2.139,0,0,0-.957.757,2.02,2.02,0,0,0-.368,1.191l-.015,2.049a2.114,2.114,0,0,0,3.546,1.565,2.012,2.012,0,0,0,.685-1.383l0-5.029A.9.9,0,0,0,299.331,191.628Zm-1.226,5.054a.863.863,0,0,1-.261.632.84.84,0,0,1-.629.265.866.866,0,0,1-.638-.266.851.851,0,0,1-.267-.631v-2.034a.856.856,0,0,1,.4-.731l1.392-.709h0Z" transform="translate(-274.625 -186.333)" fill="#fff"/>
        </g>
        <path id="Path_6" data-name="Path 6" d="M153.839,96.914a2.529,2.529,0,0,1,1.072.2c.248.1.284.158.273.421a2.846,2.846,0,0,1-1.262,2.255,3.058,3.058,0,0,1-2.876.482c-.34-.11-.39-.239-.358-.6a3.229,3.229,0,0,1,2.643-2.72A4.224,4.224,0,0,1,153.839,96.914Zm.438.907a.8.8,0,0,0-.176-.058,2.384,2.384,0,0,0-.935.073,2.273,2.273,0,0,0-1.513,1.407,1.5,1.5,0,0,0-.049.281A2.225,2.225,0,0,0,154.277,97.821Z" transform="translate(-140.393 -92.795)" fill="#fc8f02"/>
        <path id="Path_7" data-name="Path 7" d="M81.789,100.453a3.256,3.256,0,0,1-2.933-1.942,2.23,2.23,0,0,1-.205-.966.365.365,0,0,1,.243-.374,2.7,2.7,0,0,1,1.92-.1A3.156,3.156,0,0,1,83,99.047a4.206,4.206,0,0,1,.161.821.33.33,0,0,1-.242.373A2.661,2.661,0,0,1,81.789,100.453Zm.418-.893a1.807,1.807,0,0,0-.991-1.449,2.045,2.045,0,0,0-1.664-.257A2.23,2.23,0,0,0,82.207,99.559Z" transform="translate(-73.436 -92.822)" fill="#ffc600"/>
        <path id="Path_8" data-name="Path 8" d="M128.618,41.094a2.954,2.954,0,0,1-.868,2.19,2.869,2.869,0,0,1-.352.294.349.349,0,0,1-.489,0,2.875,2.875,0,0,1-1.2-2.081,3.091,3.091,0,0,1,.581-2.318,4.555,4.555,0,0,1,.658-.633.343.343,0,0,1,.466.029,2.938,2.938,0,0,1,1.2,2.265C128.623,40.924,128.618,41.009,128.618,41.094Zm-1.461,1.559a2.2,2.2,0,0,0,0-3.173A2.191,2.191,0,0,0,127.157,42.653Z" transform="translate(-117.156 -38.466)" fill="#a7c521"/>
      </g>
      <g id="Group_269" data-name="Group 269" transform="translate(179.877 257.822)">
        <g id="Group_1-2" data-name="Group 1" transform="translate(0 7.468)">
          <path id="Path_1-2" data-name="Path 1" d="M81.5,195.11a.078.078,0,0,0-.008-.033l0-4.648v-.414l-.021-1.413a.594.594,0,0,0-1.187.008v6h0l-.013.1v.527a.742.742,0,0,1,0,.1.923.923,0,0,1-.288.594.892.892,0,0,1-.431.213.782.782,0,0,1-.176.017.661.661,0,0,1-.159-.017.8.8,0,0,1-.464-.238.815.815,0,0,1-.255-.568.273.273,0,0,1,0-.059v-.669H78.48v-6a.6.6,0,0,0-1.191-.008l-.021,1.413v5.012l0,.084,0,.038-.008.113a2.364,2.364,0,0,0,.033.389c.013.063.025.125.042.188a1.825,1.825,0,0,0,.134.355c.029.059.059.113.092.167l.088.138c.013.017.025.029.038.046.033.042.067.084.1.121a.543.543,0,0,0,.067.071.033.033,0,0,0,.017.017s.008.013.013.017a.476.476,0,0,0,.071.063,1.541,1.541,0,0,0,.155.134,1.7,1.7,0,0,0,.23.155c.05.029.1.054.155.079l.025.013a1.25,1.25,0,0,0,.159.063,1.932,1.932,0,0,0,.268.071,1.152,1.152,0,0,0,.209.033.95.95,0,0,0,.188.008.257.257,0,0,0,.059,0,.142.142,0,0,0,.042,0,.951.951,0,0,0,.188-.008,1.154,1.154,0,0,0,.209-.033,1.934,1.934,0,0,0,.267-.071,1.251,1.251,0,0,0,.159-.063l.025-.013c.054-.025.1-.05.155-.079a2.755,2.755,0,0,0,.23-.155,1.534,1.534,0,0,0,.155-.134.756.756,0,0,0,.084-.079c.029-.029.054-.059.084-.088s.067-.079.1-.121c.012-.017.025-.029.038-.046q.044-.063.088-.138a1.233,1.233,0,0,0,.088-.163,1.541,1.541,0,0,0,.075-.171,1.494,1.494,0,0,0,.058-.18,2.025,2.025,0,0,0,.079-.61c0-.033,0-.063-.008-.088A.13.13,0,0,1,81.5,195.11Z" transform="translate(-72.136 -184.95)" fill="#fff"/>
          <path id="Path_2-2" data-name="Path 2" d="M8.741,145.68a1.856,1.856,0,0,0-.45-.635,2.173,2.173,0,0,0-.67-.415,2.2,2.2,0,0,0-.812-.151l-2.171.032,0,.1c.01.475.018,1.22.023,2.214s0,2.3-.008,3.884-.015,2.872-.015,3.878v2.313H6.763a2.058,2.058,0,0,0,1.436-.558,2.025,2.025,0,0,0,.687-1.4l0-8.221a1.4,1.4,0,0,0,.017-.248A2,2,0,0,0,8.741,145.68ZM7.676,154.8a.829.829,0,0,1-.267.624.878.878,0,0,1-.638.26h-.89l-.015-9.213v-.9h.492c.12,0,.256.005.406.015h.007a.853.853,0,0,1,.63.258.9.9,0,0,1,.275.625Z" transform="translate(-4.638 -144.479)" fill="#fff"/>
          <path id="Path_3-2" data-name="Path 3" d="M154.11,191.416v-.042a2.091,2.091,0,0,0-.231-.743,2.063,2.063,0,0,0-.47-.592,2.245,2.245,0,0,0-.65-.39,2.084,2.084,0,0,0-.764-.144H151.9a1.972,1.972,0,0,0-1.433.653,2.018,2.018,0,0,0-.59,1.485v.1H151.1v-.135a.829.829,0,0,1,.266-.623.879.879,0,0,1,.639-.259.853.853,0,0,1,.63.258.839.839,0,0,1,.26.624v.224l-1.68.848a2.138,2.138,0,0,0-.957.757,2.019,2.019,0,0,0-.368,1.191l-.015,2.049a2.114,2.114,0,0,0,3.546,1.565,1.758,1.758,0,0,0,.685-1.383l0-5.029a1.314,1.314,0,0,0,0-.42Zm-1.211,5.267a.864.864,0,0,1-.261.632.841.841,0,0,1-.629.265.866.866,0,0,1-.638-.266.852.852,0,0,1-.267-.631v-2.03a.78.78,0,0,1,.4-.734l1.392-.709h0Z" transform="translate(-139.648 -186.333)" fill="#fff"/>
          <path id="Path_4-2" data-name="Path 4" d="M224.839,148.619a2.088,2.088,0,0,0-1.12.189l0-2.638a.612.612,0,1,0-1.225,0v4.392l-.015,5.129a2.122,2.122,0,0,0,.5,1.464,2.06,2.06,0,0,0,1.615.753h.112a2.125,2.125,0,0,0,2-2.12l.01-4.793c0-.05,0-.1,0-.146v-.121a2.045,2.045,0,0,0-.552-1.427A2.132,2.132,0,0,0,224.839,148.619Zm.663,7.089v.107a.821.821,0,0,1-.154.465.925.925,0,0,1-.87.394.865.865,0,0,1-.506-.251.817.817,0,0,1-.265-.61v-5.064a.892.892,0,0,1,.208-.6.882.882,0,0,1,.69-.319.842.842,0,0,1,.624.258.857.857,0,0,1,.258.641l.015.1Z" transform="translate(-207.136 -145.481)" fill="#fff"/>
          <path id="Path_5-2" data-name="Path 5" d="M299.331,191.628a.906.906,0,0,0-.015-.212v-.043a2.1,2.1,0,0,0-.231-.742,2.058,2.058,0,0,0-.47-.592,2.247,2.247,0,0,0-.65-.39,2.084,2.084,0,0,0-.764-.144h-.093a1.972,1.972,0,0,0-1.433.653,2.018,2.018,0,0,0-.59,1.485v.1h1.226v-.135a.827.827,0,0,1,.266-.623.878.878,0,0,1,.638-.259.854.854,0,0,1,.63.258.838.838,0,0,1,.26.624v.224l-1.68.848a2.139,2.139,0,0,0-.957.757,2.02,2.02,0,0,0-.368,1.191l-.015,2.049a2.114,2.114,0,0,0,3.546,1.565,2.012,2.012,0,0,0,.685-1.383l0-5.029A.9.9,0,0,0,299.331,191.628Zm-1.226,5.054a.863.863,0,0,1-.261.632.84.84,0,0,1-.629.265.866.866,0,0,1-.638-.266.851.851,0,0,1-.267-.631v-2.034a.856.856,0,0,1,.4-.731l1.392-.709h0Z" transform="translate(-274.625 -186.333)" fill="#fff"/>
        </g>
        <path id="Path_6-2" data-name="Path 6" d="M153.839,96.914a2.529,2.529,0,0,1,1.072.2c.248.1.284.158.273.421a2.846,2.846,0,0,1-1.262,2.255,3.058,3.058,0,0,1-2.876.482c-.34-.11-.39-.239-.358-.6a3.229,3.229,0,0,1,2.643-2.72A4.224,4.224,0,0,1,153.839,96.914Zm.438.907a.8.8,0,0,0-.176-.058,2.384,2.384,0,0,0-.935.073,2.273,2.273,0,0,0-1.513,1.407,1.5,1.5,0,0,0-.049.281A2.225,2.225,0,0,0,154.277,97.821Z" transform="translate(-140.393 -92.795)" fill="#fc8f02"/>
        <path id="Path_7-2" data-name="Path 7" d="M81.789,100.453a3.256,3.256,0,0,1-2.933-1.942,2.23,2.23,0,0,1-.205-.966.365.365,0,0,1,.243-.374,2.7,2.7,0,0,1,1.92-.1A3.156,3.156,0,0,1,83,99.047a4.206,4.206,0,0,1,.161.821.33.33,0,0,1-.242.373A2.661,2.661,0,0,1,81.789,100.453Zm.418-.893a1.807,1.807,0,0,0-.991-1.449,2.045,2.045,0,0,0-1.664-.257A2.23,2.23,0,0,0,82.207,99.559Z" transform="translate(-73.436 -92.822)" fill="#ffc600"/>
        <path id="Path_8-2" data-name="Path 8" d="M128.618,41.094a2.954,2.954,0,0,1-.868,2.19,2.869,2.869,0,0,1-.352.294.349.349,0,0,1-.489,0,2.875,2.875,0,0,1-1.2-2.081,3.091,3.091,0,0,1,.581-2.318,4.555,4.555,0,0,1,.658-.633.343.343,0,0,1,.466.029,2.938,2.938,0,0,1,1.2,2.265C128.623,40.924,128.618,41.009,128.618,41.094Zm-1.461,1.559a2.2,2.2,0,0,0,0-3.173A2.191,2.191,0,0,0,127.157,42.653Z" transform="translate(-117.156 -38.466)" fill="#a7c521"/>
      </g>
      <g id="BACKGROUND" transform="translate(43.867 147.905)">
        <g id="Group_16" data-name="Group 16" transform="translate(0 0)">
          <g id="Group_1-3" data-name="Group 1" transform="translate(2.876 26.156)">
            <path id="Path_1-3" data-name="Path 1" d="M119.512,340.983H342.882a190.461,190.461,0,0,0,24.176-118.21c-1.693-13.63-4.992-27.345-12.291-38.98s-19.087-21-32.693-22.872c-17.5-2.406-33.994,7.416-50.734,13.043-25.01,8.408-52.6,7.5-77.954.206-27.729-7.973-54.2-23.468-83.036-22.509-26.232.873-50.838,16.045-66.348,37.22s-22.527,47.743-23.211,73.982,4.629,52.3,11.9,77.519Z" transform="translate(-20.732 -132.624)" fill="#ffc600" opacity="0.19"/>
            <path id="Path_2-3" data-name="Path 2" d="M75.841,152.351c8.08-5.211,17.163-9.1,26.717-10.179,3.192-.362,6.944-.71,8.606-3.459,1.385-2.289.552-5.419-1.3-7.344s-4.5-2.873-7.094-3.512c-13.176-3.239-27.427.094-38.99,7.193a41.325,41.325,0,0,0-11.38,9.814,24.028,24.028,0,0,0-5.22,13.913,14.5,14.5,0,0,0,1.765,7.568c1.108,1.906,3.166,4.414,5.571,3.484,2.376-.919,4.745-4.291,6.626-5.992A114.927,114.927,0,0,1,75.841,152.351Z" transform="translate(-27.087 -126.615)" fill="#d6edf1"/>
          </g>
          <g id="Group_15" data-name="Group 15" transform="translate(204.631)">
            <g id="Group_14" data-name="Group 14">
              <g id="Group_4" data-name="Group 4" transform="translate(2.753 234.475)">
                <g id="Group_3" data-name="Group 3">
                  <path id="Path_3-3" data-name="Path 3" d="M378.608,420.253h-1.343l21.3-19.41h1.343Z" transform="translate(-310.93 -400.842)" fill="#f58249"/>
                  <path id="Path_4-3" data-name="Path 4" d="M289.943,427.491l1.2-1.1h66.475l-1.2,1.1Z" transform="translate(-289.943 -406.983)" fill="#f58249"/>
                  <g id="Group_2" data-name="Group 2" transform="translate(1.205)">
                    <path id="Path_5-3" data-name="Path 5" d="M377.958,400.842l-16.977,15.473-4.323,3.937H291.529l9.881-9,11.413-10.407Z" transform="translate(-291.529 -400.842)" fill="#f5ad49"/>
                    <path id="Path_6-3" data-name="Path 6" d="M360.981,419.245l-4.322,3.937h-65.13l9.881-9c5.463-1.186,11.3-1.2,16.933-1.113,10.255.168,20.567.509,30.644,2.416A46.64,46.64,0,0,1,360.981,419.245Z" transform="translate(-291.529 -403.772)" fill="#f5ad49" opacity="0.5" style="mix-blend-mode: screen;isolation: isolate"/>
                  </g>
                </g>
              </g>
              <g id="Group_13" data-name="Group 13">
                <rect id="Rectangle_2" data-name="Rectangle 2" width="118.693" height="228.185" fill="#a4d7e0"/>
                <g id="Group_5" data-name="Group 5" transform="translate(6.543 8.995)">
                  <rect id="Rectangle_3" data-name="Rectangle 3" width="105.608" height="219.19" fill="#1c484f"/>
                  <rect id="Rectangle_4" data-name="Rectangle 4" width="105.608" height="30.172" transform="translate(0 189.018)" fill="#1f4f57" opacity="0.5" style="mix-blend-mode: multiply;isolation: isolate"/>
                </g>
                <g id="Group_12" data-name="Group 12" transform="translate(47.241 8.995)">
                  <path id="Path_7-3" data-name="Path 7" d="M348.507,300.66l64.936,22.555V104.024l-64.936,7.031Z" transform="translate(-348.507 -104.024)" fill="#e6e6e6"/>
                  <g id="Group_11" data-name="Group 11" transform="translate(3.912 11.09)">
                    <g id="Group_6" data-name="Group 6">
                      <path id="Path_8-3" data-name="Path 8" d="M353.657,141.481V123.395l55.813-4.773V139.03l-.29.013Zm.608-17.528v16.894l54.6-2.4V119.283Z" transform="translate(-353.657 -118.622)" fill="#80c8d4"/>
                    </g>
                    <g id="Group_7" data-name="Group 7" transform="translate(0 130.754)">
                      <path id="Path_9" data-name="Path 9" d="M409.47,358.095l-.4-.131-55.414-18.256V290.744L409.47,302.71Zm-55.2-18.827,54.6,17.987V303.2l-54.6-11.706Z" transform="translate(-353.657 -290.744)" fill="#80c8d4"/>
                    </g>
                    <g id="Group_8" data-name="Group 8" transform="translate(27.872 29.938)">
                      <path id="Path_10" data-name="Path 10" d="M418.288,251.148l-27.941-4.8V158.664l27.941-.632Zm-27.333-5.311,26.726,4.591V158.653l-26.726.6Z" transform="translate(-390.347 -158.032)" fill="#80c8d4"/>
                    </g>
                    <g id="Group_9" data-name="Group 9" transform="translate(0 30.645)">
                      <path id="Path_11" data-name="Path 11" d="M378.214,246l-24.557-4.218V159.517l24.557-.555Zm-23.949-4.729,23.342,4.009v-85.7l-23.342.528Z" transform="translate(-353.657 -158.962)" fill="#80c8d4"/>
                    </g>
                    <g id="Group_10" data-name="Group 10" transform="translate(16.984 121.129)">
                      <path id="Path_12" data-name="Path 12" d="M394.913,289.025l-18.9-3.762v-7.189l18.9,3.478Zm-18.292-4.259,17.685,3.52v-6.228L376.621,278.8Z" transform="translate(-376.014 -278.074)" fill="#80c8d4"/>
                    </g>
                  </g>
                </g>
              </g>
            </g>
          </g>
          <line id="Line_1" data-name="Line 1" x2="347.179" transform="translate(0 234.315)" fill="none" stroke="#1c484f" stroke-miterlimit="10" stroke-width="1"/>
        </g>
      </g>
      <g id="OBJECTS" transform="translate(40.742 132.695)">
        <g id="Group_28" data-name="Group 28" transform="translate(0 169.567)">
          <path id="Path_13" data-name="Path 13" d="M95.162,399.048,62.517,418.541H12.831L50.1,397.425Z" transform="translate(-12.831 -319.903)" opacity="0.5" fill="url(#linear-gradient)" style="mix-blend-mode: multiply;isolation: isolate"/>
          <g id="Group_27" data-name="Group 27" transform="translate(26.204)">
            <g id="Group_21" data-name="Group 21" transform="translate(0 33.189)">
              <path id="Path_14" data-name="Path 14" d="M103.453,339.067v3.758H47.326l9.1-3.07,2.035-.688Z" transform="translate(-47.326 -339.067)" fill="#cce94a"/>
              <g id="Group_19" data-name="Group 19" transform="translate(0 3.757)">
                <rect id="Rectangle_5" data-name="Rectangle 5" width="48.739" height="46.473" transform="translate(0 0)" fill="#a7c521"/>
                <g id="Group_18" data-name="Group 18" transform="translate(2.201 35.843)">
                  <g id="Group_17" data-name="Group 17">
                    <rect id="Rectangle_6" data-name="Rectangle 6" width="20.482" height="2.852" transform="translate(0 3.306)" fill="#cce94a"/>
                    <rect id="Rectangle_7" data-name="Rectangle 7" width="13.741" height="2.074" fill="#cce94a"/>
                  </g>
                </g>
                <path id="Path_15" data-name="Path 15" d="M104.179,351.665a3.727,3.727,0,1,1-3.727-3.727A3.726,3.726,0,0,1,104.179,351.665Z" transform="translate(-59.199 -344.956)" fill="#cce94a"/>
                <rect id="Rectangle_8" data-name="Rectangle 8" width="2.201" height="46.473" transform="translate(2.201 46.473) rotate(180)" fill="#f5ad49" opacity="0.5" style="mix-blend-mode: screen;isolation: isolate"/>
              </g>
              <g id="Group_20" data-name="Group 20" transform="translate(48.739 0)">
                <path id="Path_16" data-name="Path 16" d="M118.873,339.067v45.955l-7.387,4.278V342.825l1.974-1Z" transform="translate(-111.486 -339.067)" fill="#a7c521"/>
                <path id="Path_17" data-name="Path 17" d="M118.873,377.277v8.617l-7.387,4.278V343.7l1.974-1a150.251,150.251,0,0,0,.922,21.165,33.405,33.405,0,0,0,2.231,9.708A15.842,15.842,0,0,0,118.873,377.277Z" transform="translate(-111.486 -339.94)" fill="#cce94a" opacity="0.5" style="mix-blend-mode: multiply;isolation: isolate"/>
              </g>
              <path id="Path_18" data-name="Path 18" d="M106.333,339.067v.52a191.942,191.942,0,0,1-47.023.168l2.036-.688Z" transform="translate(-50.207 -339.067)" fill="#c7762f" opacity="0.5" style="mix-blend-mode: multiply;isolation: isolate"/>
            </g>
            <g id="Group_26" data-name="Group 26" transform="translate(7.387)">
              <path id="Path_19" data-name="Path 19" d="M98.4,295.377v2.769H57.05l6.707-2.262,1.5-.507Z" transform="translate(-57.05 -295.377)" fill="#cce94a"/>
              <g id="Group_24" data-name="Group 24" transform="translate(0 2.768)">
                <rect id="Rectangle_9" data-name="Rectangle 9" width="35.91" height="34.24" fill="#a7c521"/>
                <g id="Group_23" data-name="Group 23" transform="translate(1.622 26.408)">
                  <g id="Group_22" data-name="Group 22">
                    <rect id="Rectangle_10" data-name="Rectangle 10" width="15.09" height="2.101" transform="translate(0 2.436)" fill="#cce94a"/>
                    <rect id="Rectangle_11" data-name="Rectangle 11" width="10.124" height="1.528" fill="#cce94a"/>
                  </g>
                </g>
                <path id="Path_20" data-name="Path 20" d="M98.938,304.659a2.746,2.746,0,1,1-2.746-2.746A2.746,2.746,0,0,1,98.938,304.659Z" transform="translate(-65.798 -299.716)" fill="#cce94a"/>
                <rect id="Rectangle_12" data-name="Rectangle 12" width="1.622" height="34.24" transform="translate(1.622 34.24) rotate(180)" fill="#f5ad49" opacity="0.5" style="mix-blend-mode: screen;isolation: isolate"/>
              </g>
              <g id="Group_25" data-name="Group 25" transform="translate(35.91 0)">
                <path id="Path_21" data-name="Path 21" d="M109.764,295.377v33.858l-5.442,3.152V298.146l1.454-.738Z" transform="translate(-104.322 -295.377)" fill="#a7c521"/>
                <path id="Path_22" data-name="Path 22" d="M109.764,323.529v6.349l-5.442,3.152V298.789l1.454-.738a110.814,110.814,0,0,0,.68,15.594A24.585,24.585,0,0,0,108.1,320.8,11.65,11.65,0,0,0,109.764,323.529Z" transform="translate(-104.322 -296.02)" fill="#e38c3b" opacity="0.5" style="mix-blend-mode: multiply;isolation: isolate"/>
              </g>
              <path id="Path_23" data-name="Path 23" d="M100.525,295.377v.384a141.4,141.4,0,0,1-34.645.123l1.5-.507Z" transform="translate(-59.173 -295.377)" fill="#a7c521" style="mix-blend-mode: multiply;isolation: isolate"/>
            </g>
          </g>
        </g>
        <g id="Group_41" data-name="Group 41" transform="translate(281.295 106.417)">
          <g id="Group_30" data-name="Group 30" transform="translate(6.625 34.519)">
            <g id="Group_29" data-name="Group 29">
              <path id="Path_24" data-name="Path 24" d="M391.845,257.688a98.331,98.331,0,0,1,7.7,9.2,111.353,111.353,0,0,1,6.551,10.073A136.569,136.569,0,0,1,416.1,298.815a198.548,198.548,0,0,1,6.585,23.119q1.306,5.865,2.374,11.777c.7,3.942,1.341,7.893,1.945,11.847l-1.1.175c-.647-3.941-1.329-7.875-2.071-11.8-.726-3.924-1.508-7.837-2.381-11.728a206.821,206.821,0,0,0-6.4-23.024,140.04,140.04,0,0,0-9.568-21.874,111.929,111.929,0,0,0-6.27-10.18A98,98,0,0,0,391.845,257.688Z" transform="translate(-391.845 -257.688)" fill="#1c2540"/>
            </g>
          </g>
          <g id="Group_32" data-name="Group 32" transform="translate(28.815 6.814)">
            <g id="Group_31" data-name="Group 31">
              <path id="Path_25" data-name="Path 25" d="M421.056,221.217a283.725,283.725,0,0,1,10.17,27.145c.7,2.315,1.331,4.651,1.884,7.006.289,1.175.533,2.36.783,3.545.229,1.188.425,2.382.64,3.573a134.066,134.066,0,0,1,1.575,14.428c.573,9.665.373,19.346.332,29-.014,4.829.008,9.656.178,14.475.192,4.817.541,9.623,1.124,14.4l-1.11.137c-.542-4.824-.846-9.664-.993-14.5-.123-4.841-.1-9.68-.039-14.514.135-9.664.427-19.325-.051-28.965a133.543,133.543,0,0,0-1.43-14.391c-.2-1.189-.387-2.381-.6-3.567-.238-1.182-.469-2.366-.746-3.54-.529-2.353-1.139-4.689-1.812-7.007A283.665,283.665,0,0,0,421.056,221.217Z" transform="translate(-421.056 -221.217)" fill="#1c2540"/>
            </g>
          </g>
          <g id="Group_34" data-name="Group 34" transform="translate(47.1 36.313)">
            <g id="Group_33" data-name="Group 33">
              <path id="Path_26" data-name="Path 26" d="M472.241,260.049A119.925,119.925,0,0,0,446.47,343.2l-1.116.078A120.481,120.481,0,0,1,472.241,260.049Z" transform="translate(-445.126 -260.049)" fill="#1c2540"/>
            </g>
          </g>
          <g id="Group_36" data-name="Group 36" transform="translate(25.786 115.051)">
            <g id="Group_35" data-name="Group 35">
              <path id="Path_27" data-name="Path 27" d="M443.949,395.108h-18.86a3.458,3.458,0,0,1-3.443-3.131l-2.125-22.392h30l-2.125,22.392A3.458,3.458,0,0,1,443.949,395.108Z" transform="translate(-417.658 -365.113)" fill="#ff4846"/>
              <path id="Path_28" data-name="Path 28" d="M448.887,376.215l.629-6.631H419.521l.629,6.631Z" transform="translate(-417.658 -365.113)" fill="#871a1a" opacity="0.5" style="mix-blend-mode: multiply;isolation: isolate"/>
              <rect id="Rectangle_13" data-name="Rectangle 13" width="33.721" height="6.148" fill="#ff4846"/>
            </g>
          </g>
          <g id="Group_38" data-name="Group 38" transform="translate(46.197 32.965)">
            <g id="Group_37" data-name="Group 37">
              <path id="Path_29" data-name="Path 29" d="M475.86,263.9a23.851,23.851,0,0,1-4.284,4.955c-.766.772-1.5,1.577-2.209,2.405a45.138,45.138,0,0,0-6.85,10.837,44.362,44.362,0,0,0-2.925,8.941c-.05.246-.1.487-.151.733-.822,4.188-1.135,8.488-2.371,12.576a25.712,25.712,0,0,1-1.459,3.629c-1.56,3.193-4.071,6.7-6.939,5.95a3.574,3.574,0,0,1-1.085-.475,5.961,5.961,0,0,1-1.8-1.823c-1.727-2.657-2.013-6.778-1.778-9.9.045-.615.112-1.186.191-1.7a46.079,46.079,0,0,1,3.126-10.2c.564-1.409,1.152-2.818,1.7-4.233,1.023-2.64,1.946-5.324,2.931-7.98a75.093,75.093,0,0,1,3.456-8.153,36.375,36.375,0,0,1,3.724-5.906,23.4,23.4,0,0,1,7.846-6.654,10.28,10.28,0,0,1,4.686-1.259,5.359,5.359,0,0,1,4.266,2.025C477.213,259.446,476.917,261.973,475.86,263.9Z" transform="translate(-443.936 -255.642)" fill="#a7c521"/>
            </g>
            <path id="Path_30" data-name="Path 30" d="M475.86,263.9a23.851,23.851,0,0,1-4.284,4.955c-.766.772-1.5,1.577-2.209,2.405-.6.3-1.2.609-1.789.945-2.282,1.325-4.435,3.249-5.033,5.821a11.96,11.96,0,0,0-.028,4.071,44.362,44.362,0,0,0-2.925,8.941c-.05.246-.1.487-.151.733-1.739,2-3.679,3.93-4.434,6.419a13.264,13.264,0,0,0-.045,6.073c.213,1.236.481,2.472.649,3.713-1.56,3.193-4.071,6.7-6.939,5.95a3.574,3.574,0,0,1-1.085-.475,5.961,5.961,0,0,1-1.8-1.823c-1.727-2.657-2.013-6.778-1.778-9.9,1.236-1.331,2.791-2.427,3.6-4.049,1.208-2.421.43-5.122-.28-7.851.564-1.409,1.152-2.818,1.7-4.233,1.023-2.64,1.946-5.324,2.931-7.98,2.075-1.4,4.221-2.8,5.419-4.91,1.331-2.371,1.225-5.245,1.571-7.941.05-.4.118-.805.19-1.208a23.4,23.4,0,0,1,7.846-6.654,10.28,10.28,0,0,1,4.686-1.259,5.359,5.359,0,0,1,4.266,2.025C477.213,259.446,476.917,261.973,475.86,263.9Z" transform="translate(-443.936 -255.642)" fill="#a7c521" opacity="0.19" style="mix-blend-mode: screen;isolation: isolate"/>
          </g>
          <g id="Group_39" data-name="Group 39" transform="translate(23.13)">
            <path id="Path_31" data-name="Path 31" d="M439.992,265.479a91.634,91.634,0,0,0,.52,9.814c.033.621.062,1.241.062,1.862v.006a17.815,17.815,0,0,1-1.421,7.767c-1.42,3.026-5.6,7.225-8.773,4.211a10.889,10.889,0,0,1-2.634-4.1,22.612,22.612,0,0,1-1.213-8.556c.118-3.725.76-7.465.71-11.173a23.1,23.1,0,0,0-.258-3.344,22.342,22.342,0,0,0-.917-3.7c-2.209-6.537-7.068-12.162-9.842-18.6a31.708,31.708,0,0,1-1.509-4.339,33.179,33.179,0,0,1-.654-14.316c.117-.66.251-1.314.408-1.963.688-2.852,2.231-6.011,5.027-6.671a3.084,3.084,0,0,1,.33-.067c3.093-.492,5.676,2.265,7.426,4.86a102.039,102.039,0,0,1,5.558,9.417c.76,1.414,1.5,2.835,2.236,4.256,2.293,4.406,4.619,8.969,5.871,13.729l.006.005a26.406,26.406,0,0,1,.934,7.281v.156C441.732,256.543,440.228,260.95,439.992,265.479Z" transform="translate(-413.572 -212.247)" fill="#a7c521"/>
            <path id="Path_32" data-name="Path 32" d="M440.188,275.712q.2.713.386,1.443v.006a17.815,17.815,0,0,1-1.421,7.767c-1.42,3.026-5.6,7.225-8.773,4.211a10.889,10.889,0,0,1-2.634-4.1,3.771,3.771,0,0,0,2.271-1.007,6.368,6.368,0,0,0,1.767-4.027c.542-5.161-2.734-9.768-4.54-14.7a23.1,23.1,0,0,0-.258-3.344,22.342,22.342,0,0,0-.917-3.7c.073-4.809,1.264-9.8-1.185-13.84-2.377-3.914-7.432-5.463-10.166-9.1a33.179,33.179,0,0,1-.654-14.316q.167-.5.352-.99a19.525,19.525,0,0,1,3.071-5.8,9.988,9.988,0,0,1,2.013-1.845,3.084,3.084,0,0,1,.33-.067c3.093-.492,5.676,2.265,7.426,4.86a102.039,102.039,0,0,1,5.558,9.417c.017.609.028,1.219.05,1.823.123,3.747.571,7.695,2.79,10.714,1.281,1.734,3.053,3.03,4.53,4.6.257.268.5.553.738.85l.006.005a26.406,26.406,0,0,1,.934,7.281c-.4.772-.883,1.516-1.314,2.264A20.4,20.4,0,0,0,437.9,265.8C438.164,269.186,439.271,272.441,440.188,275.712Z" transform="translate(-413.572 -212.247)" fill="#a7c521" opacity="0.19" style="mix-blend-mode: screen;isolation: isolate"/>
          </g>
          <g id="Group_40" data-name="Group 40" transform="translate(0 26.933)">
            <path id="Path_33" data-name="Path 33" d="M422.648,302.111c-.017.308-.039.615-.067.922-.229,2.539-.767,8.478-4.038,9.06-2.315.408-5.682-3.658-7.527-4.938-1.035-.716-2.1-1.432-3.109-2.2a16.757,16.757,0,0,1-4.228-4.289,14.935,14.935,0,0,1-1.963-5.15c-.6-2.9-.7-5.989-1.241-8.908a29.759,29.759,0,0,0-.978-3.836,45,45,0,0,0-6.979-12.744h-.005c-1.454-1.952-3-3.836-4.58-5.665-.548-.632-1.1-1.286-1.639-1.963-1.857-2.36-3.422-4.977-3.137-7.879.375-3.757,4.077-6.637,7.851-6.811s7.388,1.9,9.847,4.771a19.475,19.475,0,0,1,1.879,2.611,36.115,36.115,0,0,1,3.232,7.42c.6,1.829,1.146,3.68,1.75,5.508a43.432,43.432,0,0,0,2.018,5.167,40.756,40.756,0,0,0,2.835,4.9c2.148,3.249,4.58,6.336,6.5,9.686a29.887,29.887,0,0,1,1.918,3.92A24.732,24.732,0,0,1,422.648,302.111Z" transform="translate(-383.124 -247.701)" fill="#b1cd26"/>
          </g>
        </g>
        <g id="Group_56" data-name="Group 56" transform="translate(0.96 0)">
          <g id="Group_54" data-name="Group 54">
            <g id="Group_44" data-name="Group 44" transform="translate(62.411 75.911)">
              <g id="Group_42" data-name="Group 42" transform="translate(3.989 3.877)">
                <path id="Path_35" data-name="Path 35" d="M106.869,189.924v1.722h-1.538v-1.676a7.289,7.289,0,0,1-3.829-1.231l.846-1.875a6.216,6.216,0,0,0,2.982,1.091v-2.567c-1.707-.416-3.613-.984-3.613-3.184,0-1.629,1.184-3.029,3.613-3.305v-1.706h1.538v1.675a6.958,6.958,0,0,1,3.121.938l-.769,1.892a6.289,6.289,0,0,0-2.353-.8v2.614c1.707.4,3.583.969,3.583,3.137C110.452,188.249,109.283,189.633,106.869,189.924Zm-1.538-6.8v-2.183c-.815.185-1.138.63-1.138,1.138C104.194,182.621,104.655,182.913,105.332,183.128Zm2.645,3.7c0-.537-.447-.83-1.108-1.06v2.121C107.638,187.726,107.977,187.326,107.977,186.833Z" transform="translate(-101.503 -177.194)" fill="#fff"/>
              </g>
              <g id="Group_43" data-name="Group 43">
                <path id="Path_36" data-name="Path 36" d="M98.889,178.345v.846h-.756v-.823a3.581,3.581,0,0,1-1.881-.6l.416-.921a3.047,3.047,0,0,0,1.465.536v-1.261c-.839-.2-1.775-.484-1.775-1.564,0-.8.582-1.488,1.775-1.624v-.839h.756v.823a3.421,3.421,0,0,1,1.533.461l-.378.929a3.085,3.085,0,0,0-1.155-.393v1.284c.839.2,1.759.476,1.759,1.541C100.648,177.522,100.075,178.2,98.889,178.345Zm-.756-3.339v-1.073c-.4.09-.559.309-.559.559S97.8,174.9,98.133,175.006Zm1.3,1.82c0-.264-.22-.408-.544-.521v1.042C99.266,177.265,99.433,177.068,99.433,176.826Z" transform="translate(-96.252 -172.09)" fill="#fff"/>
              </g>
            </g>
            <g id="Group_45" data-name="Group 45" transform="translate(138.096 37.473)">
              <path id="Path_37" data-name="Path 37" d="M212.368,129.734c0,3.409-4.623,10.469-6.945,13.8a1.58,1.58,0,0,1-2.6,0c-2.322-3.33-6.945-10.39-6.945-13.8a8.243,8.243,0,1,1,16.486,0Z" transform="translate(-195.882 -121.491)" fill="#d6edf1"/>
              <path id="Path_38" data-name="Path 38" d="M209.076,131.258a3.427,3.427,0,1,1-3.427-3.426A3.427,3.427,0,0,1,209.076,131.258Z" transform="translate(-197.406 -123.015)" fill="#fff"/>
            </g>
            <g id="Group_46" data-name="Group 46" transform="translate(208.757)">
              <path id="Path_39" data-name="Path 39" d="M294.582,72.162l1.756,3.558,3.926.571-2.841,2.77.671,3.911-3.512-1.846-3.512,1.846.671-3.911-2.841-2.77,3.926-.571Z" transform="translate(-288.899 -72.162)" fill="#ffc600"/>
              <path id="Path_40" data-name="Path 40" d="M312.16,72.162l1.756,3.558,3.926.571L315,79.06l.671,3.911-3.512-1.846-3.512,1.846.671-3.911-2.841-2.77,3.926-.571Z" transform="translate(-293.124 -72.162)" fill="#ffc600"/>
              <path id="Path_41" data-name="Path 41" d="M329.739,72.162l1.756,3.558,3.926.571-2.841,2.77.671,3.911-3.512-1.846-3.512,1.846.671-3.911-2.841-2.77,3.926-.571Z" transform="translate(-297.349 -72.162)" fill="#ffc600"/>
              <path id="Path_42" data-name="Path 42" d="M347.317,72.162l1.756,3.558,3.927.571-2.841,2.77.671,3.911-3.512-1.846L343.8,82.971l.671-3.911-2.841-2.77,3.927-.571Z" transform="translate(-301.574 -72.162)" fill="#ffc600"/>
              <path id="Path_43" data-name="Path 43" d="M364.9,72.162l1.756,3.558,3.927.571-2.841,2.77.671,3.911L364.9,81.125l-3.512,1.846.671-3.911-2.841-2.77,3.927-.571Z" transform="translate(-305.799 -72.162)" fill="#ffc600"/>
            </g>
            <g id="Group_48" data-name="Group 48" transform="translate(0 39.378)">
              <path id="Path_44" data-name="Path 44" d="M38.178,124H15.032a.937.937,0,0,0-.937.937V139.58a.937.937,0,0,0,.937.937H30.609l7.4,2.952a.808.808,0,0,0,1.108-.751V124.936A.937.937,0,0,0,38.178,124Z" transform="translate(-14.095 -123.999)" fill="#ffc600"/>
              <g id="Group_47" data-name="Group 47" transform="translate(4.534 7.112)">
                <path id="Path_45" data-name="Path 45" d="M22.245,134.452a1.091,1.091,0,1,1-1.091-1.091A1.091,1.091,0,0,1,22.245,134.452Z" transform="translate(-20.063 -133.361)" fill="#fff"/>
                <path id="Path_46" data-name="Path 46" d="M31.308,134.452a1.091,1.091,0,1,1-1.091-1.091A1.091,1.091,0,0,1,31.308,134.452Z" transform="translate(-22.241 -133.361)" fill="#fff"/>
                <path id="Path_47" data-name="Path 47" d="M40.372,134.452a1.091,1.091,0,1,1-1.092-1.091A1.091,1.091,0,0,1,40.372,134.452Z" transform="translate(-24.42 -133.361)" fill="#fff"/>
              </g>
            </g>
            <g id="Group_51" data-name="Group 51" transform="translate(80.084 22.202)">
              <g id="Group_49" data-name="Group 49">
                <path id="Path_48" data-name="Path 48" d="M138.03,101.389H120.453a.937.937,0,0,0-.937.937V116.97a.937.937,0,0,0,.937.937h10.008l7.4,2.953a.808.808,0,0,0,1.107-.751V102.326A.937.937,0,0,0,138.03,101.389Z" transform="translate(-119.516 -101.389)" fill="#ff4846"/>
              </g>
              <g id="Group_50" data-name="Group 50" transform="translate(5.708 4.658)">
                <path id="Path_49" data-name="Path 49" d="M127.03,109.4a1.7,1.7,0,1,1,1.7,1.885A1.7,1.7,0,0,1,127.03,109.4Zm2.412,0c0-.732-.283-1.083-.713-1.083s-.713.361-.713,1.083.293,1.084.713,1.084S129.442,110.137,129.442,109.4ZM132.8,107.6h1.162l-4.667,6.835h-1.161Zm-1.123,5.029a1.7,1.7,0,1,1,1.689,1.884A1.7,1.7,0,0,1,131.678,112.627Zm2.4,0c0-.723-.283-1.084-.713-1.084s-.713.352-.713,1.084.293,1.083.713,1.083S134.08,113.35,134.08,112.627Z" transform="translate(-127.03 -107.521)" fill="#fff"/>
              </g>
            </g>
            <g id="Group_53" data-name="Group 53" transform="translate(26.85 106.94)">
              <path id="Path_50" data-name="Path 50" d="M56.593,225.917c-3.184,9.629-.734,20.623,5.227,28.829s15.094,13.764,24.813,16.659,20.033,3.288,30.152,2.59c14.232-.983,28.225-4.069,42.345-6.11s28.646-3.022,42.549.179,27.231,11.054,34.446,23.362" transform="translate(-50.822 -216.055)" fill="none" stroke="#fff" stroke-miterlimit="10" stroke-width="1" stroke-dasharray="9"/>
              <g id="Group_52" data-name="Group 52">
                <path id="Path_51" data-name="Path 51" d="M76.028,212.936l-21.418,7.09-5.171-5.2Z" transform="translate(-49.44 -212.936)" fill="#80c8d4" opacity="0.5" style="mix-blend-mode: multiply;isolation: isolate"/>
                <path id="Path_52" data-name="Path 52" d="M57.989,225.26l-2.06,2.316,3.5-1.137Z" transform="translate(-51 -215.898)" fill="#577bb5"/>
                <path id="Path_53" data-name="Path 53" d="M58.641,222.3l5.793,8.112s13.845-17.571,13.806-17.474S58.641,222.3,58.641,222.3Z" transform="translate(-51.651 -212.935)" fill="#80c8d4" opacity="0.5" style="mix-blend-mode: multiply;isolation: isolate"/>
                <path id="Path_54" data-name="Path 54" d="M55.929,224.614l.242-4.588,21.418-7.09-19.6,9.362Z" transform="translate(-51 -212.936)" fill="#4e6fa3"/>
              </g>
            </g>
          </g>
          <g id="Group_55" data-name="Group 55" transform="translate(5.042 24.204)">
            <path id="Path_55" data-name="Path 55" d="M33.126,198.141a3.75,3.75,0,1,1-3.75-3.75A3.75,3.75,0,0,1,33.126,198.141Z" transform="translate(-21.908 -125.743)" fill="#d6edf1"/>
            <ellipse id="Ellipse_1" data-name="Ellipse 1" cx="2.635" cy="2.635" rx="2.635" ry="2.635" transform="translate(0 81.636)" fill="#d6edf1"/>
            <path id="Path_56" data-name="Path 56" d="M96.395,209.206a3.067,3.067,0,1,1-3.067-3.067A3.068,3.068,0,0,1,96.395,209.206Z" transform="translate(-37.443 -128.566)" fill="#fff"/>
            <path id="Path_57" data-name="Path 57" d="M106.4,226.82a2.383,2.383,0,1,1-2.382-2.383A2.382,2.382,0,0,1,106.4,226.82Z" transform="translate(-40.176 -132.964)" fill="#fff"/>
            <path id="Path_58" data-name="Path 58" d="M262.259,237.757a1.043,1.043,0,1,1-1.043-1.043A1.043,1.043,0,0,1,262.259,237.757Z" transform="translate(-78.28 -135.915)" fill="#fff"/>
            <path id="Path_59" data-name="Path 59" d="M56.645,275.262a1.722,1.722,0,1,1-1.722-1.722A1.722,1.722,0,0,1,56.645,275.262Z" transform="translate(-28.536 -144.766)" fill="#fff"/>
            <ellipse id="Ellipse_2" data-name="Ellipse 2" cx="1.582" cy="1.582" rx="1.582" ry="1.582" transform="translate(148.995 167.191)" fill="#fff"/>
            <path id="Path_60" data-name="Path 60" d="M453.931,155.258a1.558,1.558,0,1,1-1.557-1.557A1.558,1.558,0,0,1,453.931,155.258Z" transform="translate(-124.1 -115.963)" fill="#d6edf1"/>
            <ellipse id="Ellipse_3" data-name="Ellipse 3" cx="1.714" cy="1.714" rx="1.714" ry="1.714" transform="translate(331.372 83.278)" fill="#fff"/>
            <path id="Path_61" data-name="Path 61" d="M471.006,179.637a1.924,1.924,0,1,1-1.923-1.924A1.924,1.924,0,0,1,471.006,179.637Z" transform="translate(-128.028 -121.734)" fill="#d6edf1"/>
            <ellipse id="Ellipse_4" data-name="Ellipse 4" cx="1.657" cy="1.657" rx="1.657" ry="1.657" transform="translate(188.669)" fill="#d6edf1"/>
            <path id="Path_62" data-name="Path 62" d="M108.919,109.577a1.191,1.191,0,1,1-1.19-1.19A1.191,1.191,0,0,1,108.919,109.577Z" transform="translate(-41.355 -105.073)" fill="#d6edf1"/>
          </g>
        </g>
        <g id="Group_113" data-name="Group 113" transform="translate(154.997 47.251)">
          <ellipse id="Ellipse_5" data-name="Ellipse 5" cx="38.763" cy="3.273" rx="38.763" ry="3.273" transform="translate(32.898 204.05)" opacity="0.5" fill="url(#radial-gradient)" style="mix-blend-mode: multiply;isolation: isolate"/>
          <g id="Group_112" data-name="Group 112">
            <g id="Group_65" data-name="Group 65" transform="translate(40.898 120.881)">
              <g id="Group_60" data-name="Group 60" transform="translate(0 1.962)">
                <g id="Group_58" data-name="Group 58" transform="translate(5.118)">
                  <g id="Group_57" data-name="Group 57">
                    <path id="Path_63" data-name="Path 63" d="M295.6,317.193a180.376,180.376,0,0,1,.3,21.479c-1.041,21.921-5.944,34.447-5.944,34.447l-7.37-.168L277.962,306.2l-.52-7.515c1.526-.134,3.048-.285,4.54-.419,5.933-.52,11.844-1.308,17.732-2.2A201.5,201.5,0,0,1,295.6,317.193Z" transform="translate(-277.442 -296.072)" fill="#c7683c"/>
                  </g>
                  <path id="Path_64" data-name="Path 64" d="M295.6,317.193a180.376,180.376,0,0,1,.3,21.479l-1.646-17.629A16.359,16.359,0,0,0,277.962,306.2h0l-.52-7.515c1.526-.134,3.048-.285,4.54-.419,5.933-.52,11.844-1.308,17.732-2.2A201.5,201.5,0,0,1,295.6,317.193Z" transform="translate(-277.442 -296.072)" fill="#c7683c" opacity="0.5" style="mix-blend-mode: multiply;isolation: isolate"/>
                </g>
                <g id="Group_59" data-name="Group 59" transform="translate(0 65.235)">
                  <path id="Path_65" data-name="Path 65" d="M289.244,393.421s1.426,4.351.526,6.767H270.829s-1.241-3.485,4.139-3.1l5.424-3.327-.665-11.089a3.875,3.875,0,0,1,5.329.855l6.615.57Z" transform="translate(-270.705 -381.946)" fill="#e6e6e6"/>
                  <path id="Path_66" data-name="Path 66" d="M286.4,383.524s-1.331,9.087-1.734,10.233-2.4,4.138-4.591,4.161a8.4,8.4,0,0,1-3.763-.833l5.424-3.327-.665-11.089A3.875,3.875,0,0,1,286.4,383.524Z" transform="translate(-272.054 -381.946)" fill="#a9c0c4"/>
                </g>
              </g>
              <g id="Group_64" data-name="Group 64" transform="translate(19.061)">
                <g id="Group_62" data-name="Group 62">
                  <g id="Group_61" data-name="Group 61">
                    <path id="Path_67" data-name="Path 67" d="M315.532,293.489c-2.978.6-5.991,1.123-9.045,1.6-3.556.552-7.119,1.075-10.69,1.534,7.938,23.04,18.587,50.984,28.056,69.9,2.974.95,4.7-1.87,7.184-2.388-.484-17.613-7.385-35.734-13.871-51.77C316.834,306.86,316.365,300.333,315.532,293.489Z" transform="translate(-295.797 -293.489)" fill="#d4774c"/>
                  </g>
                </g>
                <g id="Group_63" data-name="Group 63" transform="translate(22.147 60.615)">
                  <path id="Path_68" data-name="Path 68" d="M339.432,382.759s3.136,3.336,3.345,5.9l-17.153,8.03s-2.6-2.629,2.432-4.566l3.5-5.313-5.3-9.761a3.875,3.875,0,0,1,5.189-1.484l6.233-2.288Z" transform="translate(-324.951 -373.282)" fill="#e6e6e6"/>
                  <path id="Path_69" data-name="Path 69" d="M331.854,376.135s2.647,8.795,2.768,10-.423,4.767-2.394,5.714a8.4,8.4,0,0,1-3.762.841l3.5-5.313-5.3-9.761A3.874,3.874,0,0,1,331.854,376.135Z" transform="translate(-325.363 -373.847)" fill="#a9c0c4"/>
                </g>
              </g>
            </g>
            <g id="Group_94" data-name="Group 94" transform="translate(0 16.757)">
              <g id="Group_70" data-name="Group 70" transform="translate(53.531 14.509)">
                <g id="Group_69" data-name="Group 69">
                  <g id="Group_68" data-name="Group 68" transform="translate(9.54 19.576)">
                    <g id="Group_67" data-name="Group 67">
                      <g id="Group_66" data-name="Group 66">
                        <path id="Path_70" data-name="Path 70" d="M325.24,250.024c-1.907.6-3.719,1.415-5.648,1.9-3.624-10.435-7.448-21.68-12.18-31.17-1.079-2.164-2.13-4.189-3.165-6.124-1.465-2.751-2.9-5.324-4.356-7.879,3.092-1.253,6.123-2.662,9.154-4.065l3.025-1.392c1.141,2.533,2.164,5.111,3.1,7.7.777,2.141,1.5,4.289,2.175,6.425A244.95,244.95,0,0,1,325.24,250.024Z" transform="translate(-299.892 -201.29)" fill="#d4774c"/>
                      </g>
                      <path id="Path_71" data-name="Path 71" d="M327.894,261.348a9.211,9.211,0,0,1,2.786,1.926c1.436,1.4,1.612,4.222,2.444,5.449s1.619,2.243,1.337,2.584-.78-.144-2.262-1.948c0,0-.925-.7-.505.354s2.045,3.213,1.54,3.757c-.409.441-2.51-2.951-2.759-3s1.7,4.452.89,5.082-1.644-4.781-2.24-4.846.437,3.759-.093,3.953c-1.161.425-1.539-5.849-2.056-5.718s-.919,2.458-1.62,2.321.21-2.517.171-3S324.491,262.252,327.894,261.348Z" transform="translate(-305.948 -215.724)" fill="#d4774c"/>
                    </g>
                    <path id="Path_72" data-name="Path 72" d="M315.175,208.99l-10.927,5.637c-1.465-2.751-2.9-5.324-4.356-7.879,3.092-1.253,6.123-2.662,9.154-4.065l3.025-1.392C313.212,203.823,314.235,206.4,315.175,208.99Z" transform="translate(-299.892 -201.29)" fill="#bf6237"/>
                  </g>
                  <path id="Path_73" data-name="Path 73" d="M311.317,198.133s-8.852,6.067-12.85,6.352L287.35,184.214a17.627,17.627,0,0,1,.09-2.673,6.72,6.72,0,0,1,10.91-4.507l.117.1a20.092,20.092,0,0,1,3.064,3.774c3.076,4.524,6.8,11.464,8.64,14.993C310.887,197.278,311.317,198.133,311.317,198.133Z" transform="translate(-287.334 -175.521)" fill="#ffc600"/>
                </g>
                <path id="Path_74" data-name="Path 74" d="M311.317,198.133s-8.852,6.067-12.85,6.352L287.35,184.214a17.627,17.627,0,0,1,.09-2.673,6.72,6.72,0,0,1,10.91-4.507l.117.1a20.092,20.092,0,0,1,3.064,3.774q-.553,6.443-1.107,12.89a5.25,5.25,0,0,0,.33,3,3.952,3.952,0,0,0,3.377,1.739,7.7,7.7,0,0,0,6.039-2.639C310.887,197.278,311.317,198.133,311.317,198.133Z" transform="translate(-287.334 -175.521)" fill="#d99434" opacity="0.5" style="mix-blend-mode: multiply;isolation: isolate"/>
              </g>
              <g id="Group_75" data-name="Group 75" transform="translate(39.546)">
                <g id="Group_71" data-name="Group 71" transform="translate(3.236)">
                  <path id="Path_75" data-name="Path 75" d="M288.571,169.107V156.422h-8.432v13.315a10.244,10.244,0,0,0-5.072,4.018c-.683,1.042-1.316,1.92-1.882,2.735a21.286,21.286,0,0,0,2.449,1c.305-.036.6-.07.846-.1a21.752,21.752,0,0,0,7.157-1.829,13.28,13.28,0,0,0,4.629-3.344,2.471,2.471,0,0,1,.083-.362,13.87,13.87,0,0,1,1.222-2.655C289.231,169.168,288.9,169.135,288.571,169.107Z" transform="translate(-273.185 -156.422)" fill="#d4774c"/>
                  <path id="Path_76" data-name="Path 76" d="M290.647,160.546a14.019,14.019,0,0,1-2.88,5.038,9.334,9.334,0,0,1-3.529,2.281,7.619,7.619,0,0,1-1.9.4v-2.214a6.968,6.968,0,0,0,2.846-.4,9.358,9.358,0,0,0,3.535-2.276A10.6,10.6,0,0,0,290.647,160.546Z" transform="translate(-275.386 -157.413)" fill="#bf6237"/>
                </g>
                <g id="Group_74" data-name="Group 74" transform="translate(0 12.505)">
                  <path id="Path_77" data-name="Path 77" d="M313.357,267.751c-.587.151-1.627.391-3,.7-7.393,1.633-24.51,5.066-33.714,5.53-1.1.056-2.1.073-2.941.034l-.856-61.954s-.839-5.088-1.711-10.328c-.845-5.027-1.722-10.194-1.93-11.156-.431-1.963-.822-3.216,2.606-10s7.353-6.911,7.353-6.911c-2.975.6-6.2,5.933-6.2,5.933s6.878-1.9,9.428-4.563a6.64,6.64,0,0,1,5.637-2.1,7.846,7.846,0,0,1,5.346,3.6,10.372,10.372,0,0,1,1.4,7.51,85.009,85.009,0,0,0-1.051,10.8c-.291,6.174-.2,11.754-.2,11.754,10.267,10.1,8.3,25.975,8.3,25.975Z" transform="translate(-268.925 -172.883)" fill="#ffc600"/>
                  <g id="Group_73" data-name="Group 73" transform="translate(16.317 22.577)">
                    <g id="Group_72" data-name="Group 72">
                      <path id="Path_78" data-name="Path 78" d="M292.059,202.6c-.457,3.173-.846,6.356-1.083,9.549-.125,1.6-.207,3.2-.21,4.791,0,.4,0,.8.02,1.2s.027.8.068,1.19l.052.593c.026.2.064.392.095.588.068.392.126.784.2,1.175,1.271,6.274,2.721,12.524,4.168,18.767l4.316,18.744,2.148,9.375,2.107,9.385c-1.613-6.206-3.153-12.432-4.673-18.661s-2.981-12.473-4.441-18.717l-2.1-9.388c-.672-3.136-1.384-6.262-1.944-9.427-.069-.4-.123-.8-.185-1.2-.028-.2-.064-.4-.087-.6l-.043-.606c-.037-.4-.045-.807-.051-1.21s-.011-.806,0-1.209c.03-1.609.134-3.213.289-4.811C291.033,208.935,291.478,205.756,292.059,202.6Z" transform="translate(-290.405 -202.603)" fill="#c2612d"/>
                    </g>
                  </g>
                  <path id="Path_79" data-name="Path 79" d="M291.839,188.452l-6.56,20.109,0,0a66.856,66.856,0,0,0-9.087,36.018l1.149,32.519c-1.1.056-2.1.073-2.941.034l-.856-61.954s-.839-5.088-1.711-10.328l17.413-18.985Z" transform="translate(-269.624 -176.004)" fill="#f5ad49" opacity="0.5" style="mix-blend-mode: screen;isolation: isolate"/>
                  <path id="Path_80" data-name="Path 80" d="M320.386,274.7c-.587.151-1.627.391-3,.7l-11.576-36.191c2.522-11.212-7.638-23.889-7.638-23.889l2.584-13.527c-.291,6.174-.2,11.754-.2,11.754,10.267,10.1,8.3,25.975,8.3,25.975Z" transform="translate(-275.954 -179.831)" fill="#f5ad49" opacity="0.5" style="mix-blend-mode: multiply;isolation: isolate"/>
                </g>
              </g>
              <g id="Group_93" data-name="Group 93" transform="translate(0 16.122)">
                <g id="Group_87" data-name="Group 87" transform="translate(0 3.052)">
                  <g id="Group_85" data-name="Group 85">
                    <g id="Group_78" data-name="Group 78" transform="translate(0 0.049)">
                      <path id="Path_81" data-name="Path 81" d="M227.487,195.569a10.364,10.364,0,0,0-4.012,1.577c-2.366-4.219-4.656-8.382-6.608-12.838,2.035-.887,4.117-1.657,6.136-2.581C225.05,186.491,227.178,190.291,227.487,195.569Z" transform="translate(-216.867 -181.727)" fill="#67b38b"/>
                      <path id="Path_82" data-name="Path 82" d="M223.807,196.017c-2.322-3.089-3.6-6.92-5.289-10.375a.61.61,0,0,0,.3-.782c1.218-.491,2.441-.969,3.646-1.489a.617.617,0,0,0,.786.306c1.708,3.539,3.733,6.946,3.909,10.967a.661.661,0,0,0-.489.681,4.11,4.11,0,0,0-2.171.924A.515.515,0,0,0,223.807,196.017Z" transform="translate(-217.264 -182.122)" fill="#80d4a9"/>
                      <path id="Path_83" data-name="Path 83" d="M226.315,190.588a2.178,2.178,0,0,1-4,1.705,2.119,2.119,0,0,1,1.1-2.84A2.179,2.179,0,0,1,226.315,190.588Z" transform="translate(-218.132 -183.539)" fill="#67b38b"/>
                      <g id="Group_77" data-name="Group 77" transform="translate(4.486 6.647)">
                        <g id="Group_76" data-name="Group 76">
                          <path id="Path_84" data-name="Path 84" d="M225.618,191c.138-.051.259-.107.39-.16.048.112.1.223.145.337l-.375.156a1.7,1.7,0,0,1,.065.944c-.164,0-.327-.008-.491-.007a1.459,1.459,0,0,0-.024-.745c-.188.084-.384.166-.569.251.027.463.109.83-.413,1.069a.833.833,0,0,1-1.037-.439c-.138.051-.262.1-.4.156-.046-.112-.094-.224-.141-.337l.386-.151a2.028,2.028,0,0,1-.093-.785h.509a1.91,1.91,0,0,0,.052.6c.2-.08.4-.158.58-.255-.025-.45-.169-.854.356-1.1A.868.868,0,0,1,225.618,191Zm-1.354,1.006q-.247.1-.491.209a.293.293,0,0,0,.352.126C224.266,192.278,224.262,192.139,224.264,192.005Zm.568-.942c-.141.064-.134.207-.134.34q.237-.1.472-.208C225.08,191.091,224.971,191,224.831,191.064Z" transform="translate(-222.772 -190.477)" fill="#80d4a9"/>
                        </g>
                      </g>
                    </g>
                    <g id="Group_81" data-name="Group 81" transform="translate(3.259 0.011)">
                      <path id="Path_85" data-name="Path 85" d="M228.351,196.215a10.358,10.358,0,0,0-4.289.438c-1.142-4.7-2.226-9.326-2.9-14.144,2.2-.305,4.411-.486,6.6-.832C228.45,186.816,229.474,191.049,228.351,196.215Z" transform="translate(-221.157 -181.677)" fill="#67b38b"/>
                      <path id="Path_86" data-name="Path 86" d="M224.713,195.469c-1.4-3.6-1.6-7.635-2.3-11.416a.611.611,0,0,0,.5-.672c1.305-.144,2.611-.275,3.912-.451a.617.617,0,0,0,.675.507c.691,3.869,1.723,7.695.809,11.615a.66.66,0,0,0-.654.524,4.108,4.108,0,0,0-2.34.3A.515.515,0,0,0,224.713,195.469Z" transform="translate(-221.459 -181.978)" fill="#80d4a9"/>
                      <path id="Path_87" data-name="Path 87" d="M228.577,190.739a2.178,2.178,0,0,1-4.31.566,2.119,2.119,0,0,1,1.825-2.438A2.179,2.179,0,0,1,228.577,190.739Z" transform="translate(-221.9 -183.4)" fill="#67b38b"/>
                      <g id="Group_80" data-name="Group 80" transform="translate(2.754 6.486)">
                        <g id="Group_79" data-name="Group 79">
                          <path id="Path_88" data-name="Path 88" d="M227.853,190.956c.147-.013.278-.033.419-.049.016.121.034.242.049.364l-.4.049a1.7,1.7,0,0,1-.192.928c-.156-.049-.313-.1-.471-.139a1.469,1.469,0,0,0,.178-.724c-.2.03-.415.055-.615.088-.1.453-.118.829-.686.918a.834.834,0,0,1-.88-.7c-.147.011-.28.03-.422.044-.014-.121-.03-.241-.046-.362l.413-.042a2.042,2.042,0,0,1,.122-.782l.49.137a1.91,1.91,0,0,0-.112.594c.21-.024.425-.046.627-.089.1-.441.068-.868.639-.964A.868.868,0,0,1,227.853,190.956Zm-1.574.6c-.178.022-.354.045-.53.069.06.131.15.238.3.216S226.24,191.687,226.279,191.559Zm.8-.754c-.152.024-.185.163-.221.292q.256-.034.511-.073C227.31,190.9,227.23,190.781,227.078,190.8Z" transform="translate(-224.782 -190.215)" fill="#80d4a9"/>
                        </g>
                      </g>
                    </g>
                    <g id="Group_84" data-name="Group 84" transform="translate(5.866)">
                      <path id="Path_89" data-name="Path 89" d="M228.837,196.8a10.348,10.348,0,0,0-4.248-.735c.167-4.834.369-9.581,1.013-14.4,2.2.3,4.379.721,6.584.978C231.465,187.775,231.311,192.128,228.837,196.8Z" transform="translate(-224.589 -181.662)" fill="#67b38b"/>
                      <path id="Path_90" data-name="Path 90" d="M225.529,195.028c-.382-3.845.516-7.783.862-11.614a.609.609,0,0,0,.666-.511c1.3.213,2.589.439,3.889.62a.617.617,0,0,0,.513.669c-.376,3.912-.413,7.875-2.35,11.4a.661.661,0,0,0-.771.329,4.11,4.11,0,0,0-2.335-.337C225.983,195.282,225.851,195.058,225.529,195.028Z" transform="translate(-224.793 -181.96)" fill="#80d4a9"/>
                      <path id="Path_91" data-name="Path 91" d="M230.711,191.491a2.178,2.178,0,0,1-4.3-.616,2.119,2.119,0,0,1,2.414-1.857A2.177,2.177,0,0,1,230.711,191.491Z" transform="translate(-225.021 -183.425)" fill="#67b38b"/>
                      <g id="Group_83" data-name="Group 83" transform="translate(1.777 6.65)">
                        <g id="Group_82" data-name="Group 82">
                          <path id="Path_92" data-name="Path 92" d="M230.05,191.493c.144.028.277.043.417.066-.017.121-.033.242-.051.363l-.4-.062a1.7,1.7,0,0,1-.435.842c-.138-.089-.276-.178-.416-.261a1.461,1.461,0,0,0,.366-.65c-.205-.025-.415-.058-.616-.081-.216.409-.337.767-.909.7a.834.834,0,0,1-.659-.914c-.144-.029-.278-.046-.419-.071q.027-.18.054-.361l.408.071a2.025,2.025,0,0,1,.329-.719l.435.264a1.9,1.9,0,0,0-.269.542c.209.033.422.071.629.084.212-.4.3-.817.874-.757A.869.869,0,0,1,230.05,191.493Zm-1.678.157q-.266-.04-.529-.077c.023.144.081.27.236.291S228.3,191.764,228.372,191.65Zm.973-.51c-.153-.018-.222.107-.292.22q.256.036.511.068C229.544,191.292,229.5,191.158,229.345,191.14Z" transform="translate(-226.928 -190.416)" fill="#80d4a9"/>
                        </g>
                      </g>
                    </g>
                  </g>
                  <g id="Group_86" data-name="Group 86" transform="translate(3.524 9.794)">
                    <path id="Path_93" data-name="Path 93" d="M272.4,205.386c-1.146,1.594-2.354,3.154-3.607,4.675-.09.117-.19.235-.286.352-1.208,1.465-3.293,3.763-5.128,5.742a7.41,7.41,0,0,1-8.5,1.728c-1.929-.872-4.015-1.828-5.4-2.5a120.98,120.98,0,0,1-10.809-6.14c-3.54-2.2-7.052-4.5-10.669-6.677-1.035-.587-2.517-1.538-2.517-1.538a1.4,1.4,0,0,1-1.1-1.348c-.827-.039-.805-.928-.805-.928a1.015,1.015,0,0,1-.637-1.465s1.426.564,1.471.4-3.668-2.494-2.779-2.812,4.859,2.035,6.364,2.158a1.587,1.587,0,0,0,1.761-1.253l.324-1.225a2.95,2.95,0,0,1,.833,1.035,8.889,8.889,0,0,1-.156,2.578c7.986,3.115,16.4,6.414,24.538,8.885,1.029-1.549,2-3.058,2.952-4.546,1.276-2,2.5-3.965,3.741-5.961,1.073,1.023,2.181,2.018,3.3,3Q268.763,202.571,272.4,205.386Z" transform="translate(-221.506 -194.554)" fill="#d4774c"/>
                    <path id="Path_94" data-name="Path 94" d="M284.03,206.016c-1.146,1.594-2.354,3.154-3.607,4.675-4.882-1.085-8.528-4.921-10.536-7.555,1.275-2,2.5-3.965,3.741-5.961,1.073,1.023,2.181,2.018,3.3,3Q280.392,203.2,284.03,206.016Z" transform="translate(-233.134 -195.184)" fill="#bf6237"/>
                  </g>
                </g>
                <g id="Group_92" data-name="Group 92" transform="translate(41.598)">
                  <path id="Path_95" data-name="Path 95" d="M271.731,194.61,282.8,178.44s8.766-4,10.915,5.925L283.6,203.354A18.409,18.409,0,0,1,271.731,194.61Z" transform="translate(-271.651 -177.644)" fill="#ffc600"/>
                  <g id="Group_91" data-name="Group 91" transform="translate(0 3.9)">
                    <g id="Group_90" data-name="Group 90">
                      <g id="Group_88" data-name="Group 88">
                        <path id="Path_96" data-name="Path 96" d="M272.235,196.618c-.2-.244-.394-.488-.584-.736l-.025-.033.026-.043c.7-1.142,1.451-2.248,2.185-3.365q1.127-1.659,2.293-3.289c.781-1.085,1.563-2.168,2.382-3.226s1.629-2.12,2.492-3.146c-.686,1.152-1.415,2.273-2.156,3.387s-1.5,2.214-2.267,3.308-1.558,2.171-2.356,3.244c-.816,1.06-1.614,2.132-2.464,3.167v-.076C271.924,196.074,272.079,196.346,272.235,196.618Z" transform="translate(-271.626 -182.778)" fill="#c2612d"/>
                      </g>
                      <g id="Group_89" data-name="Group 89" transform="translate(11.314 3.925)">
                        <path id="Path_97" data-name="Path 97" d="M286.519,205.83c.337.155.675.307,1.009.469l-.085.027c.681-1.576,1.419-3.124,2.138-4.68q1.109-2.32,2.259-4.62c.772-1.531,1.545-3.061,2.357-4.571s1.618-3.024,2.48-4.509c-.667,1.582-1.383,3.141-2.109,4.694s-1.474,3.1-2.232,4.634-1.54,3.063-2.331,4.584c-.811,1.512-1.6,3.032-2.451,4.525l-.033.058-.052-.03C287.149,206.221,286.834,206.024,286.519,205.83Z" transform="translate(-286.519 -187.945)" fill="#c2612d"/>
                      </g>
                    </g>
                  </g>
                </g>
              </g>
            </g>
            <g id="Group_111" data-name="Group 111" transform="translate(39.674)">
              <g id="Group_109" data-name="Group 109" transform="translate(0 1.452)">
                <path id="Path_98" data-name="Path 98" d="M269.13,150.484a6.862,6.862,0,0,1,1.171-2.054,6.635,6.635,0,0,0,.752-1.285,30.421,30.421,0,0,1,1.727-8.383c.818-1.614,5.224-3.067,9.559-2.255,4.338.784,7.931,3.716,8.121,5.517.072.684.4,3.415-1.918,10.128a14.645,14.645,0,0,1-3,5.387,9.4,9.4,0,0,1-3.529,2.28,6.461,6.461,0,0,1-3.6.292l-.826-.153a6.763,6.763,0,0,1-3.877-2.135,9.9,9.9,0,0,1-1.864-2.809,10.315,10.315,0,0,1-.751-2.928,2.7,2.7,0,0,1-1.649-.583A.98.98,0,0,1,269.13,150.484Z" transform="translate(-269.093 -136.275)" fill="#d4774c"/>
                <g id="Group_108" data-name="Group 108" transform="translate(2.533 8.053)">
                  <g id="Group_107" data-name="Group 107">
                    <g id="Group_97" data-name="Group 97" transform="translate(11.152 3.476)">
                      <g id="Group_95" data-name="Group 95">
                        <path id="Path_99" data-name="Path 99" d="M289.73,153.894a2.493,2.493,0,0,0,.144-.84,1.89,1.89,0,0,0-.092-.789.771.771,0,0,0-1.186-.232,2.952,2.952,0,0,0-1.054,1.184,5.7,5.7,0,0,0-.338,1.652,3.666,3.666,0,0,1,.03-1.772,2.827,2.827,0,0,1,1.144-1.427,1.377,1.377,0,0,1,.973-.2.958.958,0,0,1,.743.681,1.857,1.857,0,0,1-.015.926A2.075,2.075,0,0,1,289.73,153.894Z" transform="translate(-287.108 -151.452)" fill="#bf6237"/>
                      </g>
                      <g id="Group_96" data-name="Group 96" transform="translate(0.641 1.086)">
                        <path id="Path_100" data-name="Path 100" d="M288.487,155.377a2.19,2.19,0,0,0,.221-.722,3.471,3.471,0,0,0,.021-.72,1.266,1.266,0,0,0-.184-.625.731.731,0,0,0-.593-.328.685.685,0,0,1,.834.1,1.21,1.21,0,0,1,.365.819,1.972,1.972,0,0,1-.125.839A1.165,1.165,0,0,1,288.487,155.377Z" transform="translate(-287.952 -152.882)" fill="#bf6237"/>
                      </g>
                    </g>
                    <g id="Group_100" data-name="Group 100" transform="translate(0 7.349)">
                      <g id="Group_98" data-name="Group 98" transform="translate(1.74 1.816)">
                        <path id="Path_101" data-name="Path 101" d="M275.949,158.941a1.228,1.228,0,0,1-.533.464,1.213,1.213,0,0,1-.7.109c.209-.125.413-.2.609-.3C275.532,159.131,275.718,159.021,275.949,158.941Z" transform="translate(-274.718 -158.941)" fill="#bf6237"/>
                      </g>
                      <g id="Group_99" data-name="Group 99">
                        <path id="Path_102" data-name="Path 102" d="M275.95,156.55a2.972,2.972,0,0,1-1.39,1.639,2.8,2.8,0,0,1-1.049.349,2.584,2.584,0,0,1-1.082-.081,5.855,5.855,0,0,0,1.925-.637A6.955,6.955,0,0,0,275.95,156.55Z" transform="translate(-272.428 -156.55)" fill="#bf6237"/>
                      </g>
                    </g>
                    <g id="Group_102" data-name="Group 102" transform="translate(0.665 7.188)">
                      <g id="Group_101" data-name="Group 101">
                        <path id="Path_103" data-name="Path 103" d="M273.886,156.408a.471.471,0,0,1-.188.342.466.466,0,0,1-.39.029.367.367,0,0,1,.578-.371Z" transform="translate(-273.304 -156.338)" fill="#bf6237"/>
                      </g>
                    </g>
                    <g id="Group_104" data-name="Group 104" transform="translate(1.377 2.914)">
                      <g id="Group_103" data-name="Group 103">
                        <path id="Path_104" data-name="Path 104" d="M274.821,151.955c0,.606.368,1.1.821,1.1s.821-.492.821-1.1-.368-1.1-.821-1.1S274.821,151.348,274.821,151.955Z" transform="translate(-274.38 -150.747)" fill="#5e2b13"/>
                        <path id="Path_105" data-name="Path 105" d="M274.241,150.712s.091.418,1.231.441" transform="translate(-274.241 -150.712)" fill="none" stroke="#5e2b13" stroke-linecap="round" stroke-linejoin="round" stroke-width="0.871"/>
                      </g>
                    </g>
                    <g id="Group_106" data-name="Group 106" transform="translate(0.746)">
                      <g id="Group_105" data-name="Group 105">
                        <path id="Path_106" data-name="Path 106" d="M274.228,147.8a7.567,7.567,0,0,1,.915-.032,6.877,6.877,0,0,1,.94.079,5.7,5.7,0,0,1,.926.226,8.036,8.036,0,0,1,.907.37l.014.006a.213.213,0,0,0,.231-.352,4.228,4.228,0,0,0-.879-.639,4.415,4.415,0,0,0-1.022-.415,4.317,4.317,0,0,0-1.1-.169,3.761,3.761,0,0,0-1.129.134.406.406,0,0,0,.147.795Z" transform="translate(-273.49 -146.876)" fill="#5e2b13"/>
                        <path id="Path_107" data-name="Path 107" d="M273.424,147.143a.5.5,0,0,0,.138.466.983.983,0,0,0,.424.237l.011,0a.217.217,0,0,0,.127-.415.222.222,0,0,0-.08-.008.662.662,0,0,1-.31-.038.291.291,0,0,1-.115-.086.309.309,0,0,1-.061-.139l0-.014a.067.067,0,0,0-.131-.007Z" transform="translate(-273.41 -146.928)" fill="#5e2b13"/>
                      </g>
                    </g>
                  </g>
                  <ellipse id="Ellipse_6" data-name="Ellipse 6" cx="3.76" cy="3.76" rx="3.76" ry="3.76" transform="translate(3.817 6.761)" fill="#d46c46"/>
                </g>
              </g>
              <g id="Group_110" data-name="Group 110" transform="translate(1.641)">
                <path id="Path_108" data-name="Path 108" d="M278.584,166.15a6.765,6.765,0,0,1-3.876-2.135,9.371,9.371,0,0,1-1.443-1.974,43.158,43.158,0,0,0,4.217,10.155,5.891,5.891,0,0,1,2.678-1.13v-4.653a4.043,4.043,0,0,1-.749-.112Z" transform="translate(-271.738 -141.015)" fill="#1a223b"/>
                <path id="Path_109" data-name="Path 109" d="M299.937,164.648c-2.164-2.472-4.758-4.725-5.961-7.784-1.778-4.54-.106-9.808-1.527-14.472a11.475,11.475,0,0,0-7.2-7.41,13.261,13.261,0,0,0-6.822-.324,9.041,9.041,0,0,0-5.592,3.137c-1.4,1.89-1.611,4.389-1.582,6.738.011.855.044,1.717.112,2.572a3.262,3.262,0,0,0,.2-.419,39.969,39.969,0,0,1,.6-4.338,10.367,10.367,0,0,0,7.774-.935,5.91,5.91,0,0,0,2.156,7.343,7.1,7.1,0,0,1,2.037-1.812,2.327,2.327,0,0,1,2.514.383,2.268,2.268,0,0,1,.24,2.473,5.532,5.532,0,0,1-1.762,1.93,5.905,5.905,0,0,0,1.336,3.242,5.758,5.758,0,0,0,1.636,1.351v7.306a3.65,3.65,0,0,1,.481.045,7.681,7.681,0,0,1,4.625,2.64,6.662,6.662,0,0,1,1.275.827l.117.1c1.7,1.431,4.345,5.558,6.789,9.786a7.033,7.033,0,0,0,1.94-3.5C304,170.313,302.107,167.126,299.937,164.648Z" transform="translate(-271.254 -134.363)" fill="#1a223b"/>
              </g>
            </g>
          </g>
        </g>
        <g id="Group_151" data-name="Group 151" transform="translate(80.352 47.731)">
          <path id="Path_110" data-name="Path 110" d="M196.131,405.163c0,1.808-17.355,3.273-38.763,3.273s-38.763-1.465-38.763-3.273,17.355-3.273,38.763-3.273S196.131,403.355,196.131,405.163Z" transform="translate(-118.605 -199.141)" opacity="0.5" fill="url(#radial-gradient-2)" style="mix-blend-mode: multiply;isolation: isolate"/>
          <g id="Group_150" data-name="Group 150" transform="translate(7.645)">
            <g id="Group_119" data-name="Group 119" transform="translate(3.064 75.313)">
              <g id="Group_116" data-name="Group 116" transform="translate(15.537 0)">
                <g id="Group_114" data-name="Group 114">
                  <path id="Path_111" data-name="Path 111" d="M190.833,357.11H177.877l-24.722-72.4,1.141-45.647,15.657-4.927,5.217,30.739Z" transform="translate(-153.155 -234.137)" fill="#1c2540"/>
                  <path id="Path_112" data-name="Path 112" d="M181.255,357.11h-3.377l-24.722-72.4,1.141-45.647,15.657-4.926,5.217,30.739h0a94.324,94.324,0,0,0-2.862,62.507Z" transform="translate(-153.155 -234.137)" fill="#1c2540" opacity="0.5" style="mix-blend-mode: multiply;isolation: isolate"/>
                </g>
                <g id="Group_115" data-name="Group 115" transform="translate(24.891 122.976)">
                  <path id="Path_113" data-name="Path 113" d="M186.682,396.971a6.852,6.852,0,0,0,0,6.35h20.809s.678-1.174,0-1.781-7.563-.8-10.635-5.52H186.539Z" transform="translate(-185.921 -396.02)" fill="#e6e6e6"/>
                  <rect id="Rectangle_14" data-name="Rectangle 14" width="21.456" height="0.833" transform="translate(0.416 6.9)" fill="#a9c0c4"/>
                </g>
              </g>
              <g id="Group_118" data-name="Group 118">
                <path id="Path_114" data-name="Path 114" d="M136.7,235.421s-2.189,8.6-.595,15.224l.523,51.916L132.7,357.112h12.206L161.4,251.483l3.642-17.347Z" transform="translate(-132.702 -234.136)" fill="#28365d"/>
                <g id="Group_117" data-name="Group 117" transform="translate(0.38 122.977)">
                  <path id="Path_115" data-name="Path 115" d="M133.963,396.971a6.852,6.852,0,0,0,0,6.35h20.809s.678-1.174,0-1.781-7.563-.8-10.634-5.52H133.82Z" transform="translate(-133.202 -396.02)" fill="#e6e6e6"/>
                  <rect id="Rectangle_15" data-name="Rectangle 15" width="21.456" height="0.833" transform="translate(0.417 6.9)" fill="#a9c0c4"/>
                </g>
              </g>
            </g>
            <g id="Group_136" data-name="Group 136" transform="translate(0 17.134)">
              <g id="Group_123" data-name="Group 123" transform="translate(6.467)">
                <g id="Group_120" data-name="Group 120" transform="translate(11.17)">
                  <path id="Path_116" data-name="Path 116" d="M155.617,174.293c2.18,1.838,5.135,4.411,8.071,4.843a3.962,3.962,0,0,0,3.534-1.077c.075-.2.154-.4.23-.6-.406-.612-.833-1.262-1.284-1.986-1.206-1.943-2.2-3.457-3.816-4.334V157.55H154.3v12.614c-.759.044-1.567.119-2.416.222A26.191,26.191,0,0,0,155.617,174.293Z" transform="translate(-151.885 -157.55)" fill="#ebaf7f"/>
                  <path id="Path_117" data-name="Path 117" d="M163.8,168.223v2.259a7.129,7.129,0,0,1-.9-.258,9.447,9.447,0,0,1-4.982-4.216,9.074,9.074,0,0,0,3.036,1.812A6.994,6.994,0,0,0,163.8,168.223Z" transform="translate(-153.335 -159.583)" fill="#e48855"/>
                </g>
                <g id="Group_122" data-name="Group 122" transform="translate(0 8.898)">
                  <path id="Path_118" data-name="Path 118" d="M167.176,212.262c-.368,5.2-.682,9.11-.682,9.11s-2.874.593-7.214,1.023c-.19.017-.38.039-.576.055-5.843.542-14.08.75-21.523-1.079l3.853-16.133,1.269-11.553,2.063-18.811a17.078,17.078,0,0,1,6.4-.817s6.235,5.083,8.024,4.652c.005,0,.017-.005.022-.005a.983.983,0,0,0,.515-.308c.542-.609.145-1.845-.185-2.622-.173-.4-.33-.682-.33-.682a2.731,2.731,0,0,1,.286.078,4.138,4.138,0,0,1,1.594.782,128.17,128.17,0,0,1,7.37,10.77C168.753,188.031,167.87,202.442,167.176,212.262Z" transform="translate(-137.181 -170.401)" fill="#fc8f02"/>
                  <path id="Path_119" data-name="Path 119" d="M154.68,173.142s-.428-3.843.036-3.878,6.854,2.635,7.317,3.6a33.686,33.686,0,0,1,1.149,4.627S161.224,178.912,154.68,173.142Z" transform="translate(-141.343 -169.264)" fill="#ff814f"/>
                  <path id="Path_120" data-name="Path 120" d="M165.85,178.12l-.248-4.809.045-1.413a7.07,7.07,0,0,1,2.338,1.235c.464.606.311,3.292.311,3.292A2.327,2.327,0,0,1,165.85,178.12Z" transform="translate(-144.012 -169.897)" fill="#ff814f"/>
                  <g id="Group_121" data-name="Group 121" transform="translate(21.523 7.996)">
                    <path id="Path_121" data-name="Path 121" d="M166.09,223.787c-.19.017-.38.039-.576.055,2-10.776.688-34.659.09-43.74.005,0,.017-.005.022-.005a.983.983,0,0,0,.515-.308C166.728,188.625,168.076,212.748,166.09,223.787Z" transform="translate(-165.514 -179.789)" fill="#ff814f"/>
                  </g>
                  <path id="Path_122" data-name="Path 122" d="M167.176,218.158c-.368,5.2-.682,9.11-.682,9.11s-2.874.593-7.214,1.023c-.19.017-.38.039-.576.055-5.843.542-14.08.75-21.523-1.079l3.853-16.133,1.269-11.553a18.375,18.375,0,0,1,4.954-1.051,20.534,20.534,0,0,0,19.918,19.627Z" transform="translate(-137.181 -176.298)" fill="#871a1a" opacity="0.5" style="mix-blend-mode: multiply;isolation: isolate"/>
                </g>
              </g>
              <g id="Group_135" data-name="Group 135" transform="translate(0 13.02)">
                <g id="Group_128" data-name="Group 128" transform="translate(27.385 29.271)">
                  <path id="Path_123" data-name="Path 123" d="M206.071,213.222v2.769H164.718l6.707-2.262,1.5-.507Z" transform="translate(-164.718 -213.222)" fill="#c7762f"/>
                  <g id="Group_126" data-name="Group 126" transform="translate(0 2.768)">
                    <rect id="Rectangle_16" data-name="Rectangle 16" width="35.91" height="34.24" fill="#f5ad49"/>
                    <g id="Group_125" data-name="Group 125" transform="translate(1.622 26.408)">
                      <g id="Group_124" data-name="Group 124">
                        <rect id="Rectangle_17" data-name="Rectangle 17" width="15.091" height="2.101" transform="translate(0 2.436)" fill="#c7762f"/>
                        <rect id="Rectangle_18" data-name="Rectangle 18" width="10.124" height="1.528" fill="#c7762f"/>
                      </g>
                    </g>
                    <path id="Path_124" data-name="Path 124" d="M206.606,222.5a2.746,2.746,0,1,1-2.746-2.746A2.746,2.746,0,0,1,206.606,222.5Z" transform="translate(-173.466 -217.561)" fill="#c7762f"/>
                    <rect id="Rectangle_19" data-name="Rectangle 19" width="1.622" height="34.24" transform="translate(1.622 34.24) rotate(180)" fill="#f5ad49" opacity="0.5" style="mix-blend-mode: screen;isolation: isolate"/>
                  </g>
                  <g id="Group_127" data-name="Group 127" transform="translate(35.91)">
                    <path id="Path_125" data-name="Path 125" d="M217.432,213.222V247.08l-5.443,3.152V215.99l1.454-.737Z" transform="translate(-211.989 -213.222)" fill="#e38c3b"/>
                    <path id="Path_126" data-name="Path 126" d="M217.432,241.373v6.349l-5.443,3.152V216.633l1.455-.738a110.7,110.7,0,0,0,.68,15.594,24.6,24.6,0,0,0,1.644,7.153A11.645,11.645,0,0,0,217.432,241.373Z" transform="translate(-211.989 -213.864)" fill="#e38c3b" opacity="0.5" style="mix-blend-mode: multiply;isolation: isolate"/>
                  </g>
                  <path id="Path_127" data-name="Path 127" d="M208.193,213.222v.383a141.451,141.451,0,0,1-34.646.124l1.5-.507Z" transform="translate(-166.84 -213.222)" fill="#c7762f" opacity="0.5" style="mix-blend-mode: multiply;isolation: isolate"/>
                </g>
                <g id="Group_134" data-name="Group 134">
                  <path id="Path_128" data-name="Path 128" d="M168.413,254.819s2.817.212,2.985-.193-2.634-1.305-2.634-1.305l-2.432-1.606c-1.623-1.935-3.273-3.9-4.921-5.885-.11.074-.22.149-.331.222a33.989,33.989,0,0,1-4.014,2.845c-.512.473-1.038.942-1.576,1.4q3.152,2.8,6.422,5.564c.744,1.067,2.536,3.2,2.536,3.2a5.953,5.953,0,0,0,1.885.042,8.042,8.042,0,0,0,1.964-.176,1.855,1.855,0,0,0,1.473-.49,4.284,4.284,0,0,0,3.437-.428H171.58Z" transform="translate(-135.114 -191.787)" fill="#ebaf7f"/>
                  <g id="Group_133" data-name="Group 133">
                    <path id="Path_129" data-name="Path 129" d="M159.784,232.627l-1.208,1.007-4.272,3.545-1.012.839s-23.419-20.881-24.415-24.453c-.419-1.482-.151-4.379.3-7.253a77.484,77.484,0,0,1,3.182-12.744c1.834-5.424,4.9-13.918,7.018-16.58.095-.123.19-.235.28-.33.118-.118.235-.229.352-.336,4.417-3.97,11.385-.167,10.848,5.743a8.52,8.52,0,0,1-.4,2.019l-.554,1.734-.017.039-1.258,3.926-6.118,20.931Z" transform="translate(-128.668 -174.689)" fill="#fc8f02"/>
                    <path id="Path_130" data-name="Path 130" d="M162.749,236.159l-1.208,1.007-19.779-23.615,1.527-1.046L141,208.876l3.808,1.387,8.041-20.875-1.258,3.926-6.118,20.931Z" transform="translate(-131.633 -178.222)" fill="#871a1a" opacity="0.5" style="mix-blend-mode: multiply;isolation: isolate"/>
                    <path id="Path_131" data-name="Path 131" d="M154.3,237.905l-1.012.839s-23.419-20.881-24.415-24.453c-.419-1.482-.151-4.379.3-7.253a77.482,77.482,0,0,1,3.182-12.744c1.834-5.424,4.9-13.918,7.018-16.58-2.018,6.252-10.541,32.959-9.641,35.94C130.661,216.717,150.681,234.673,154.3,237.905Z" transform="translate(-128.668 -175.416)" fill="#ff7a46" opacity="0.5" style="mix-blend-mode: screen;isolation: isolate"/>
                    <g id="Group_132" data-name="Group 132" transform="translate(12.415 11.129)">
                      <g id="Group_131" data-name="Group 131">
                        <g id="Group_129" data-name="Group 129" transform="translate(0 23.156)">
                          <path id="Path_132" data-name="Path 132" d="M156.125,233.845c-1.016-1.1-1.985-2.232-2.946-3.373s-1.9-2.3-2.83-3.466-1.841-2.346-2.728-3.546l-1.328-1.8c-.427-.613-.869-1.214-1.282-1.838.513.545,1,1.112,1.5,1.667l1.451,1.7c.965,1.137,1.9,2.3,2.828,3.466s1.841,2.346,2.727,3.547S155.289,232.6,156.125,233.845Z" transform="translate(-145.011 -219.821)" fill="#911b1a"/>
                        </g>
                        <g id="Group_130" data-name="Group 130" transform="translate(1.571)">
                          <path id="Path_133" data-name="Path 133" d="M154.326,189.339c-.493,2.105-1.045,4.193-1.606,6.277s-1.168,4.157-1.749,6.235c-.625,2.066-1.227,4.139-1.873,6.2l-.981,3.087c-.346,1.023-.675,2.052-1.037,3.071.241-1.054.517-2.1.774-3.147l.831-3.13c.561-2.085,1.168-4.157,1.75-6.235.627-2.066,1.226-4.139,1.875-6.2S153.612,191.379,154.326,189.339Z" transform="translate(-147.079 -189.339)" fill="#911b1a"/>
                        </g>
                      </g>
                    </g>
                  </g>
                </g>
              </g>
            </g>
            <g id="Group_149" data-name="Group 149" transform="translate(16.234)">
              <g id="Group_147" data-name="Group 147" transform="translate(0.51 1.829)">
                <g id="Group_146" data-name="Group 146">
                  <path id="Path_134" data-name="Path 134" d="M172.1,151.611a6.858,6.858,0,0,0-1.171-2.053,6.66,6.66,0,0,1-.752-1.285,30.419,30.419,0,0,0-1.727-8.384c-.818-1.614-5.224-3.067-9.559-2.254-4.338.784-7.931,3.715-8.122,5.517-.071.684-.4,3.415,1.919,10.129a14.644,14.644,0,0,0,3,5.387,9.413,9.413,0,0,0,3.529,2.28,6.464,6.464,0,0,0,3.6.292l.826-.152a6.763,6.763,0,0,0,3.877-2.135,9.9,9.9,0,0,0,1.864-2.809,10.339,10.339,0,0,0,.751-2.928,2.7,2.7,0,0,0,1.649-.582A.981.981,0,0,0,172.1,151.611Z" transform="translate(-150.71 -137.402)" fill="#ebaf7f"/>
                  <g id="Group_145" data-name="Group 145" transform="translate(4.84 8.054)">
                    <g id="Group_144" data-name="Group 144">
                      <g id="Group_137" data-name="Group 137" transform="translate(0 3.68)">
                        <path id="Path_135" data-name="Path 135" d="M157.358,155.086a2.2,2.2,0,0,1-.242-.8,1.367,1.367,0,0,1,.258-1.231.938.938,0,0,1,.874-.168,1.9,1.9,0,0,1,.779.49,2.771,2.771,0,0,1,.65.907,4.287,4.287,0,0,1,.21,1.776" transform="translate(-157.081 -152.848)" fill="none" stroke="#e48855" stroke-miterlimit="10" stroke-width="0.558"/>
                        <path id="Path_136" data-name="Path 136" d="M159.2,156.527a1.756,1.756,0,0,1-.458-1.227,1.441,1.441,0,0,1,.207-.865.716.716,0,0,1,.785-.3" transform="translate(-157.481 -153.149)" fill="none" stroke="#e48855" stroke-miterlimit="10" stroke-width="0.558"/>
                      </g>
                      <g id="Group_138" data-name="Group 138" transform="translate(10.528 7.348)">
                        <path id="Path_137" data-name="Path 137" d="M171.666,160.068a2.585,2.585,0,0,0,1.231.574" transform="translate(-171.115 -158.252)" fill="none" stroke="#e48855" stroke-linecap="round" stroke-linejoin="round" stroke-width="0.279"/>
                        <path id="Path_138" data-name="Path 138" d="M170.94,157.677a3.864,3.864,0,0,0,3.522,1.907" transform="translate(-170.94 -157.677)" fill="none" stroke="#e48855" stroke-linecap="round" stroke-linejoin="round" stroke-width="0.558"/>
                      </g>
                      <g id="Group_139" data-name="Group 139" transform="translate(12.802 7.258)">
                        <path id="Path_139" data-name="Path 139" d="M173.934,157.558a2.294,2.294,0,0,1,.578.371" transform="translate(-173.934 -157.558)" fill="none" stroke="#e48855" stroke-linecap="round" stroke-linejoin="round" stroke-width="0.558"/>
                      </g>
                      <g id="Group_141" data-name="Group 141" transform="translate(10.589 3.024)">
                        <g id="Group_140" data-name="Group 140">
                          <path id="Path_140" data-name="Path 140" d="M172.663,153.082c0,.607-.368,1.1-.821,1.1s-.821-.492-.821-1.1.368-1.1.821-1.1S172.663,152.476,172.663,153.082Z" transform="translate(-171.021 -151.984)" fill="#5e2b13"/>
                        </g>
                      </g>
                      <g id="Group_143" data-name="Group 143" transform="translate(8.563)">
                        <g id="Group_142" data-name="Group 142">
                          <path id="Path_141" data-name="Path 141" d="M172.356,148.929a7.416,7.416,0,0,0-.915-.032,6.881,6.881,0,0,0-.94.079,5.755,5.755,0,0,0-.926.226,8.052,8.052,0,0,0-.907.371l-.014.006a.213.213,0,0,1-.231-.352,4.173,4.173,0,0,1,.879-.639,4.453,4.453,0,0,1,1.022-.416,4.315,4.315,0,0,1,1.1-.169,3.761,3.761,0,0,1,1.129.134.406.406,0,0,1-.147.795Z" transform="translate(-168.354 -148.004)" fill="#5e2b13"/>
                          <path id="Path_142" data-name="Path 142" d="M174.305,148.271a.5.5,0,0,1-.137.466.991.991,0,0,1-.424.237l-.011,0a.217.217,0,1,1-.127-.414.241.241,0,0,1,.08-.009.663.663,0,0,0,.31-.037.3.3,0,0,0,.115-.086.309.309,0,0,0,.061-.139l0-.014a.067.067,0,0,1,.077-.056A.066.066,0,0,1,174.305,148.271Z" transform="translate(-169.579 -148.056)" fill="#5e2b13"/>
                        </g>
                      </g>
                    </g>
                    <path id="Path_143" data-name="Path 143" d="M168.173,160.663a3.76,3.76,0,1,1-3.76-3.76A3.761,3.761,0,0,1,168.173,160.663Z" transform="translate(-157.939 -150.143)" fill="#e9a770"/>
                  </g>
                </g>
                <path id="Path_144" data-name="Path 144" d="M161.46,143.979a9.842,9.842,0,0,1-2.129,7.176,3.27,3.27,0,0,0-2.2-2.611,1.866,1.866,0,0,0-1.689.172,1.982,1.982,0,0,0-.539,1.962,3.982,3.982,0,0,0,2.2,2.809,11.592,11.592,0,0,1-.951,2.293,3.511,3.511,0,0,1-1.589,1.686,13.092,13.092,0,0,1-3.162-8.879c.069-1.71-.407-3.57.273-5.141a8.943,8.943,0,0,1,3.324-3.82,14.465,14.465,0,0,1,4.728-1.932,5.536,5.536,0,0,1,1.575-.189,2.257,2.257,0,0,1,1.447.577,2.638,2.638,0,0,1,.664,1.865A4.87,4.87,0,0,1,161.46,143.979Z" transform="translate(-150.852 -137.426)" fill="#5e2b13"/>
              </g>
              <g id="Group_148" data-name="Group 148">
                <path id="Path_145" data-name="Path 145" d="M157.624,136.435s-.678-.428-.1-.9,1.678-.368,1.512.381Z" transform="translate(-151.782 -135.055)" fill="#ff814f"/>
                <path id="Path_146" data-name="Path 146" d="M151.074,149.569s-3.426-7.09,2.189-11.658,14.563-3.093,16.175,3.093l-6.324,3.474Z" transform="translate(-150.039 -135.055)" fill="#ff4846"/>
                <path id="Path_147" data-name="Path 147" d="M158.93,135.878s6.7,3.507,6.167,8.576l7.817-3.213S169.468,132.192,158.93,135.878Z" transform="translate(-152.176 -134.995)" fill="#c42c2b"/>
                <path id="Path_148" data-name="Path 148" d="M150.16,149.532a1.04,1.04,0,0,1,1.152-.126,1.438,1.438,0,0,1,.728.945l.205.786-1.57.69A7.554,7.554,0,0,1,150.16,149.532Z" transform="translate(-150.068 -138.43)" fill="#5e2b13"/>
                <path id="Path_149" data-name="Path 149" d="M160.975,147.554s11.386-4.645,11.4-6.308c0,0,5.389-2.186,7.245.169s-20.219,6.806-20.219,6.806Z" transform="translate(-152.288 -136.275)" fill="#ff814f"/>
              </g>
            </g>
          </g>
        </g>
      </g>
    </g>
  </g>
</svg>
