<svg width="26" height="26" viewBox="0 0 26 26" fill="none" xmlns="http://www.w3.org/2000/svg">
<path d="M22.0543 4.64421C17.172 -0.236603 9.25744 -0.235431 4.37663 4.64689C-0.504181 9.52922 -0.503009 17.4438 4.37932 22.3246C9.26164 27.2054 17.1762 27.2042 22.057 22.3219C23.2176 21.161 24.1381 19.7829 24.7661 18.2662C25.394 16.7495 25.7171 15.124 25.7168 13.4825C25.7166 11.841 25.393 10.2156 24.7646 8.69909C24.1362 7.18261 23.2152 5.80476 22.0543 4.64421ZM19.6476 18.3967L19.646 18.3984V18.3943L19.0126 19.0234C18.6099 19.4312 18.1088 19.7283 17.5577 19.886C17.0067 20.0436 16.4243 20.0565 15.8668 19.9234C14.7245 19.6176 13.6385 19.1309 12.6501 18.4818C11.7318 17.8949 10.8809 17.2088 10.1126 16.4359C9.40576 15.7342 8.77066 14.9637 8.21677 14.1359C7.61092 13.2452 7.13136 12.2749 6.79177 11.2526C6.60089 10.6637 6.57775 10.0334 6.72494 9.43212C6.87212 8.83087 7.18383 8.28249 7.62512 7.84841L8.36677 7.10676C8.57297 6.89963 8.90803 6.89889 9.11511 7.1051L9.11677 7.10676L11.4584 9.44841C11.6655 9.65461 11.6663 9.98967 11.4601 10.1967L11.4584 10.1984L10.0834 11.5734C9.68889 11.9636 9.63928 12.5838 9.96677 13.0318C10.4641 13.7143 11.0144 14.3565 11.6126 14.9526C12.2796 15.6224 13.0046 16.2318 13.7793 16.7735C14.2269 17.0857 14.8337 17.033 15.2209 16.6485L16.5501 15.2985C16.7563 15.0913 17.0913 15.0906 17.2984 15.2968L17.3001 15.2985L19.6459 17.6485C19.8531 17.8546 19.8538 18.1896 19.6476 18.3967Z" fill="#FBAB1E"/>
</svg>
