<svg width="33" height="33" viewBox="0 0 33 33" fill="none" xmlns="http://www.w3.org/2000/svg">
<path d="M25.7921 1.00195H7.42757C3.87772 1.00195 1 3.88551 1 7.44256V25.8443C1 29.4013 3.87772 32.2849 7.42757 32.2849H25.7921C29.3419 32.2849 32.2196 29.4013 32.2196 25.8443V7.44256C32.2196 3.88551 29.3419 1.00195 25.7921 1.00195Z" fill="#F3FBFF"/>
<path d="M25.7919 1.46191H7.42744C4.13115 1.46191 1.45898 4.1395 1.45898 7.44248V25.8442C1.45898 29.1472 4.13115 31.8248 7.42744 31.8248H25.7919C29.0882 31.8248 31.7604 29.1472 31.7604 25.8442V7.44248C31.7604 4.1395 29.0882 1.46191 25.7919 1.46191Z" stroke="#B7E6FF"/>
<path d="M16.1903 9.35742C15.5218 9.35694 14.8597 9.48853 14.242 9.74465C13.6243 10.0008 13.063 10.3764 12.5903 10.8501C12.1175 11.3238 11.7426 11.8862 11.487 12.5052C11.2314 13.1242 11.1001 13.7876 11.1006 14.4575C11.1006 18.2823 16.1903 23.9288 16.1903 23.9288C16.1903 23.9288 21.28 18.2823 21.28 14.4575C21.2805 13.7876 21.1492 13.1242 20.8936 12.5052C20.638 11.8862 20.2631 11.3238 19.7904 10.8501C19.3176 10.3764 18.7564 10.0008 18.1386 9.74465C17.5209 9.48853 16.8588 9.35694 16.1903 9.35742ZM16.1903 16.2792C15.8307 16.2792 15.4792 16.1724 15.1802 15.9722C14.8812 15.772 14.6482 15.4875 14.5106 15.1546C14.373 14.8217 14.337 14.4554 14.4072 14.1021C14.4773 13.7487 14.6505 13.4241 14.9047 13.1693C15.159 12.9145 15.4829 12.741 15.8356 12.6707C16.1883 12.6004 16.5538 12.6365 16.8861 12.7744C17.2183 12.9123 17.5022 13.1458 17.702 13.4453C17.9018 13.7449 18.0084 14.0971 18.0084 14.4575C18.0084 14.6967 17.9614 14.9336 17.87 15.1546C17.7786 15.3757 17.6447 15.5765 17.4759 15.7456C17.3071 15.9148 17.1066 16.049 16.8861 16.1406C16.6655 16.2321 16.4291 16.2792 16.1903 16.2792Z" fill="#71CEFF"/>
</svg>
