<svg width="20" height="20" viewBox="0 0 20 20" fill="none" xmlns="http://www.w3.org/2000/svg">
<path d="M16.1114 4.31504V17.7739C16.1114 18.6988 15.5419 19.4909 14.7343 19.8178C14.4716 19.9245 14.1906 19.9791 13.907 19.9788H2.988C1.77021 19.9788 0.783203 18.9913 0.783203 17.774V4.31504C0.783203 3.09721 1.77017 2.11035 2.988 2.11035H13.907C15.1243 2.11035 16.1114 3.09721 16.1114 4.31504Z" fill="#5B5B68"/>
<path d="M14.4146 4.31324V17.7721C14.4146 18.0526 14.1866 18.2807 13.9061 18.2807H2.98707C2.70658 18.2807 2.47852 18.0527 2.47852 17.7722V4.31324C2.47852 4.03286 2.70658 3.80469 2.98707 3.80469H13.9061C14.1866 3.80469 14.4146 4.03286 14.4146 4.31324Z" fill="#E2EFF2"/>
<path d="M11.5754 4.47577H5.31937C4.79727 4.47577 4.37402 4.05252 4.37402 3.53039V1.78519C4.37399 1.26309 4.7972 0.839844 5.31933 0.839844H11.5754C12.0975 0.839844 12.5207 1.26305 12.5207 1.78519V3.53039C12.5207 4.05252 12.0975 4.47577 11.5754 4.47577Z" fill="#FED563"/>
<path d="M16.1123 9.09819V17.7733C16.1123 18.6982 15.5429 19.4903 14.7353 19.8172C14.3902 19.9032 14.038 19.9571 13.683 19.9782C13.5662 19.9852 13.4491 19.9887 13.3308 19.9887C13.2124 19.9887 13.0953 19.9852 12.9784 19.9782C9.93939 19.7961 7.5308 17.2734 7.5308 14.1887C7.5308 10.9854 10.1277 8.38891 13.3308 8.38891C14.3383 8.38891 15.2867 8.64584 16.1123 9.09819ZM7.5378 2.64737C7.5378 3.12189 7.15314 3.50655 6.67862 3.50655C6.20399 3.50655 5.81934 3.12189 5.81934 2.64737C5.81934 2.17274 6.20399 1.78809 6.67862 1.78809C7.15314 1.78809 7.5378 2.17274 7.5378 2.64737ZM11.0773 2.64737C11.0773 3.12189 10.6926 3.50655 10.2181 3.50655C9.74364 3.50655 9.3588 3.12189 9.3588 2.64737C9.3588 2.17274 9.74364 1.78809 10.2181 1.78809C10.6926 1.78809 11.0773 2.17274 11.0773 2.64737Z" fill="#40404C"/>
<path d="M14.416 8.48923V17.7721C14.416 18.0526 14.1879 18.2807 13.9074 18.2807H9.22109C8.17627 17.232 7.53027 15.7853 7.53027 14.1875C7.53027 10.9842 10.1267 8.3877 13.3302 8.3877C13.7013 8.3877 14.064 8.42233 14.4159 8.48923H14.416Z" fill="#BBD8DD"/>
<path d="M19.7736 14.1877C19.7736 17.3909 17.177 19.9876 13.9738 19.9876C10.7706 19.9876 8.17383 17.3908 8.17383 14.1877C8.17383 10.9845 10.7706 8.3877 13.9738 8.3877C17.177 8.3877 19.7736 10.9845 19.7736 14.1877Z" fill="#55C7F3"/>
<path d="M18.2081 14.1892C18.2081 16.5276 16.3127 18.4234 13.9744 18.4234C13.769 18.4234 13.5667 18.4089 13.369 18.38C11.3173 18.0868 9.74023 16.3222 9.74023 14.1892C9.74023 12.0565 11.3173 10.2919 13.369 9.99846C13.5695 9.96936 13.7718 9.95486 13.9744 9.95508C16.3126 9.95508 18.2081 11.8509 18.2081 14.1892Z" fill="#DAFDFD"/>
<path d="M16.9973 14.1878C16.9973 16.3208 15.4207 18.0854 13.369 18.3786C11.3173 18.0854 9.74023 16.3208 9.74023 14.1878C9.74023 12.0551 11.3173 10.2905 13.369 9.99707C15.4207 10.2904 16.9973 12.0551 16.9973 14.1878Z" fill="#56D8D8"/>
<path d="M13.9742 18.716C11.4779 18.716 9.44727 16.6852 9.44727 14.189C9.44727 11.6929 11.4779 9.66211 13.9742 9.66211C16.4703 9.66211 18.5011 11.6929 18.5011 14.189C18.5011 16.6851 16.4703 18.716 13.9742 18.716ZM13.9742 10.2481C11.8011 10.2481 10.0331 12.0159 10.0331 14.189C10.0331 16.3622 11.8011 18.1301 13.9742 18.1301C16.1473 18.1301 17.9151 16.3622 17.9151 14.189C17.9151 12.0159 16.1473 10.2481 13.9742 10.2481Z" fill="#17A3CE"/>
<path d="M15.5174 14.7746H13.9745C13.6509 14.7746 13.3887 14.5124 13.3887 14.1888V11.5526C13.3887 11.229 13.6509 10.9668 13.9745 10.9668C14.298 10.9668 14.5603 11.229 14.5603 11.5526V13.603H15.5174C15.8408 13.603 16.1032 13.8654 16.1032 14.1888C16.1032 14.5124 15.8409 14.7746 15.5174 14.7746Z" fill="#5B5B68"/>
<path d="M5.30468 9.98342C5.16282 9.98342 5.02856 9.91535 4.94486 9.79904L3.7329 8.1142C3.58989 7.91535 3.63514 7.63822 3.83399 7.49535C4.0328 7.35234 4.30982 7.39763 4.45284 7.59633L5.23426 8.68263L6.26711 6.59455C6.37568 6.37513 6.64155 6.28515 6.86113 6.39368C7.08055 6.50221 7.17057 6.76827 7.062 6.98769L5.70235 9.73669C5.66566 9.8108 5.60898 9.87318 5.53871 9.91678C5.46844 9.96038 5.38738 9.98346 5.30468 9.98342ZM5.30468 15.4432C5.16282 15.4432 5.02856 15.3751 4.94486 15.2586L3.7329 13.5738C3.58989 13.3749 3.63514 13.098 3.83399 12.9549C4.0328 12.8119 4.30982 12.8572 4.45284 13.056L5.23426 14.1423L6.26711 12.0543C6.37568 11.8347 6.64155 11.7447 6.86113 11.8534C7.08055 11.962 7.17057 12.2278 7.062 12.4474L5.70235 15.1962C5.66842 15.2648 5.61734 15.3234 5.55406 15.3664C5.49078 15.4094 5.41746 15.4353 5.34122 15.4415C5.32906 15.4427 5.3168 15.4432 5.30468 15.4432Z" fill="#FC315F"/>
<path d="M11.4983 8.22547H8.15912C7.99737 8.22547 7.86621 8.09427 7.86621 7.93256C7.86621 7.77085 7.99737 7.63965 8.15912 7.63965H11.4983C11.5752 7.64088 11.6485 7.67228 11.7024 7.72708C11.7564 7.78187 11.7866 7.85568 11.7866 7.93256C11.7866 8.00944 11.7564 8.08325 11.7024 8.13804C11.6485 8.19284 11.5752 8.22424 11.4983 8.22547Z" fill="#5B5B68"/>
</svg>
