<svg width="18" height="18" viewBox="0 0 18 18" fill="none" xmlns="http://www.w3.org/2000/svg">
<path d="M9.31299 0.00390625C7.6304 0.00390625 5.9856 0.502852 4.58658 1.43765C3.18755 2.37245 2.09715 3.70111 1.45325 5.25562C0.80935 6.81013 0.640877 8.52067 0.969134 10.1709C1.29739 11.8212 2.10763 13.337 3.29741 14.5268C4.48718 15.7166 6.00304 16.5268 7.65329 16.8551C9.30355 17.1833 11.0141 17.0149 12.5686 16.371C14.1231 15.7271 15.4518 14.6367 16.3866 13.2376C17.3214 11.8386 17.8203 10.1938 17.8203 8.51123C17.8177 6.25576 16.9205 4.09344 15.3256 2.49858C13.7308 0.903726 11.5685 0.00656709 9.31299 0.00390625ZM9.31299 15.4718C7.93633 15.4718 6.59058 15.0635 5.44592 14.2987C4.30127 13.5339 3.40912 12.4468 2.88229 11.1749C2.35547 9.90304 2.21762 8.50351 2.4862 7.1533C2.75477 5.80308 3.4177 4.56283 4.39115 3.58939C5.3646 2.61594 6.60485 1.95301 7.95506 1.68444C9.30527 1.41586 10.7048 1.5537 11.9767 2.08053C13.2485 2.60736 14.3356 3.49951 15.1005 4.64416C15.8653 5.78882 16.2735 7.13456 16.2735 8.51123C16.2713 10.3566 15.5372 12.1257 14.2323 13.4306C12.9275 14.7355 11.1583 15.4695 9.31299 15.4718Z" fill="#A7C521"/>
<path d="M10.0868 8.19122V3.87105C10.0868 3.66593 10.0053 3.46922 9.8603 3.32418C9.71526 3.17914 9.51855 3.09766 9.31343 3.09766C9.10832 3.09766 8.9116 3.17914 8.76656 3.32418C8.62152 3.46922 8.54004 3.66593 8.54004 3.87105V8.51141C8.54008 8.71651 8.62159 8.91319 8.76664 9.05819L11.0868 11.3784C11.2327 11.5193 11.428 11.5972 11.6308 11.5954C11.8336 11.5937 12.0276 11.5123 12.171 11.369C12.3144 11.2256 12.3957 11.0316 12.3975 10.8288C12.3992 10.626 12.3213 10.4307 12.1804 10.2848L10.0868 8.19122Z" fill="#A7C521"/>
</svg>
