<svg width="18" height="18" viewBox="0 0 18 18" fill="none" xmlns="http://www.w3.org/2000/svg">
<path d="M13.9261 1.30988H13.2917V0.667969C13.2917 0.301207 12.9944 0.00390625 12.6277 0.00390625C12.2609 0.00390625 11.9636 0.301207 11.9636 0.667969V1.30988H5.44824V0.667969C5.44824 0.301207 5.15094 0.00390625 4.78418 0.00390625C4.41742 0.00390625 4.12012 0.301207 4.12012 0.667969V1.30988H3.48577C1.67517 1.30988 0.202148 2.78291 0.202148 4.59347V13.7203C0.202148 15.5309 1.67517 17.0039 3.48577 17.0039H13.9261C15.7367 17.0039 17.2097 15.5309 17.2097 13.7203V4.59347C17.2097 2.78291 15.7367 1.30988 13.9261 1.30988ZM3.48577 2.63801H4.12012V3.93293C4.12012 4.29969 4.41742 4.59699 4.78418 4.59699C5.15094 4.59699 5.44824 4.29969 5.44824 3.93293V2.63801H11.9636V3.93293C11.9636 4.29969 12.2609 4.59699 12.6277 4.59699C12.9944 4.59699 13.2917 4.29969 13.2917 3.93293V2.63801H13.9261C15.0044 2.63801 15.8816 3.51524 15.8816 4.59347V5.22785H1.53027V4.59347C1.53027 3.51524 2.4075 2.63801 3.48577 2.63801ZM13.9261 15.6758H3.48577C2.4075 15.6758 1.53027 14.7986 1.53027 13.7203V6.55598H15.8816V13.7203C15.8816 14.7986 15.0044 15.6758 13.9261 15.6758ZM6.10125 9.16797C6.10125 9.53473 5.80395 9.83203 5.43719 9.83203H4.13121C3.76445 9.83203 3.46714 9.53473 3.46714 9.16797C3.46714 8.80121 3.76445 8.50391 4.13121 8.50391H5.43719C5.80391 8.50391 6.10125 8.80121 6.10125 9.16797ZM13.9448 9.16797C13.9448 9.53473 13.6475 9.83203 13.2807 9.83203H11.9747C11.608 9.83203 11.3107 9.53473 11.3107 9.16797C11.3107 8.80121 11.608 8.50391 11.9747 8.50391H13.2807C13.6474 8.50391 13.9448 8.80121 13.9448 9.16797ZM10.0192 9.16797C10.0192 9.53473 9.72192 9.83203 9.35515 9.83203H8.04918C7.68241 9.83203 7.38511 9.53473 7.38511 9.16797C7.38511 8.80121 7.68241 8.50391 8.04918 8.50391H9.35515C9.72188 8.50391 10.0192 8.80121 10.0192 9.16797ZM6.10125 13.0859C6.10125 13.4527 5.80395 13.75 5.43719 13.75H4.13121C3.76445 13.75 3.46714 13.4527 3.46714 13.0859C3.46714 12.7192 3.76445 12.4219 4.13121 12.4219H5.43719C5.80391 12.4219 6.10125 12.7192 6.10125 13.0859ZM13.9448 13.0859C13.9448 13.4527 13.6475 13.75 13.2807 13.75H11.9747C11.608 13.75 11.3107 13.4527 11.3107 13.0859C11.3107 12.7192 11.608 12.4219 11.9747 12.4219H13.2807C13.6474 12.4219 13.9448 12.7192 13.9448 13.0859ZM10.0192 13.0859C10.0192 13.4527 9.72192 13.75 9.35515 13.75H8.04918C7.68241 13.75 7.38511 13.4527 7.38511 13.0859C7.38511 12.7192 7.68241 12.4219 8.04918 12.4219H9.35515C9.72188 12.4219 10.0192 12.7192 10.0192 13.0859Z" fill="#A7C521"/>
</svg>
