
<svg width="255" height="255" viewBox="0 0 255 255" fill="none" xmlns="http://www.w3.org/2000/svg">
<mask id="mask0_4338_2777" style="mask-type:luminance" maskUnits="userSpaceOnUse" x="0" y="0" width="255" height="255">
<path d="M254.099 0.601562H0.588867V254.111H254.099V0.601562Z" fill="white"/>
</mask>
<g mask="url(#mask0_4338_2777)">
<path d="M41.6145 189.82C14.6411 158.056 24.0914 110.974 40.1472 96.7081C56.203 82.4421 81.6812 74.6021 95.3327 57.9343C108.984 41.2665 124.704 29.3288 153.443 37.9304C182.182 46.5319 181.752 68.8758 190.373 82.7002C198.994 96.5246 237.431 104.249 235.242 139.724C233.052 175.199 208.657 175.142 197.531 183.882C186.404 192.623 168.856 233.899 133.735 234.33C90.694 234.854 64.4441 216.7 41.6145 189.82Z" fill="#FFF5CF" fill-opacity="0.47"/>
<g opacity="0.3">
<path d="M138.818 18.8242L137.297 24.1114C135.92 24.4832 134.594 25.0232 133.35 25.7192L128.479 23.0446L124.126 27.3427L126.837 32.1507C126.133 33.3761 125.586 34.685 125.208 36.0467L119.853 37.5464V43.6378L125.208 45.137C125.586 46.4987 126.133 47.8076 126.837 49.033L124.128 53.8415L128.482 58.139L133.352 55.4645C134.596 56.1605 135.922 56.7005 137.299 57.0723L138.82 62.36H144.989L146.51 57.0723C147.886 56.7006 149.212 56.1606 150.456 55.4645L155.327 58.139L159.68 53.8415L156.971 49.033C157.675 47.8076 158.222 46.4987 158.6 45.137L163.951 43.6378V37.5464L158.595 36.0467C158.217 34.685 157.67 33.3761 156.966 32.1507L159.675 27.3427L155.322 23.0446L150.451 25.7192C149.207 25.0231 147.881 24.4831 146.505 24.1114L144.983 18.8242H138.818ZM141.903 29.2181C144.146 29.2471 146.331 29.9389 148.182 31.2064C150.034 32.474 151.469 34.2606 152.307 36.3417C153.146 38.4229 153.35 40.7054 152.895 42.9024C152.439 45.0994 151.345 47.1126 149.748 48.6889C148.151 50.2651 146.124 51.3341 143.921 51.7612C141.719 52.1883 139.439 51.9545 137.369 51.0892C135.299 50.224 133.531 48.7659 132.287 46.8984C131.043 45.0308 130.38 42.8373 130.38 40.5936C130.405 37.5588 131.632 34.6578 133.792 32.5255C135.952 30.3933 138.868 29.2035 141.903 29.2166V29.2181Z" stroke="#FFC600" stroke-miterlimit="10"/>
</g>
<g opacity="0.3">
<path d="M228.873 119.029L227.863 122.548C226.946 122.795 226.064 123.154 225.236 123.618L221.995 121.838L219.098 124.698L220.901 127.897C220.433 128.713 220.069 129.583 219.817 130.489L216.253 131.487V135.541L219.817 136.539C220.069 137.445 220.433 138.316 220.901 139.131L219.098 142.33L221.995 145.19L225.236 143.41C226.064 143.874 226.946 144.233 227.863 144.481L228.873 147.999H232.98L233.991 144.481C234.907 144.233 235.789 143.874 236.617 143.41L239.858 145.19L242.755 142.33L240.952 139.131C241.421 138.316 241.785 137.445 242.036 136.539L245.6 135.541V131.487L242.036 130.489C241.785 129.583 241.421 128.712 240.952 127.897L242.755 124.698L239.858 121.838L236.617 123.618C235.789 123.154 234.907 122.795 233.991 122.548L232.98 119.029H228.873ZM230.926 125.945C232.419 125.964 233.873 126.424 235.105 127.267C236.337 128.111 237.292 129.3 237.85 130.685C238.408 132.07 238.545 133.589 238.241 135.051C237.938 136.513 237.21 137.853 236.147 138.902C235.085 139.95 233.736 140.662 232.27 140.946C230.804 141.23 229.287 141.075 227.909 140.499C226.532 139.923 225.355 138.953 224.528 137.71C223.7 136.467 223.258 135.007 223.258 133.514C223.276 131.495 224.092 129.565 225.529 128.146C226.966 126.727 228.907 125.936 230.926 125.945Z" stroke="#FFC600" stroke-miterlimit="10"/>
</g>
<g opacity="0.3">
<path d="M44.8024 128.293L42.606 135.938C40.6156 136.475 38.699 137.256 36.8995 138.262L29.857 134.395L23.5644 140.61L27.4816 147.562C26.4641 149.334 25.6729 151.226 25.1265 153.195L17.3823 155.364V164.171L25.1265 166.339C25.6729 168.307 26.4641 170.199 27.4816 171.971L23.5644 178.923L29.8591 185.137L36.9016 181.27C38.701 182.276 40.6176 183.057 42.6081 183.595L44.8024 191.241H53.726L55.9224 183.597C57.9127 183.059 59.8291 182.278 61.6284 181.271L68.6709 185.139L74.9661 178.924L71.0488 171.971C72.0667 170.199 72.8579 168.307 73.4039 166.338L81.1481 164.169V155.362L73.4039 153.194C72.8578 151.225 72.0666 149.332 71.0488 147.56L74.9666 140.608L68.6714 134.395L61.6289 138.262C59.8296 137.256 57.9132 136.475 55.9229 135.938L53.726 128.293H44.8024ZM49.2642 143.32C58.4413 143.32 65.9254 150.71 65.9254 159.767C65.9254 168.825 58.4413 176.215 49.2642 176.215C40.0872 176.215 32.6041 168.827 32.6041 159.767C32.6041 150.707 40.0907 143.32 49.2642 143.32Z" stroke="#FFC600" stroke-miterlimit="10"/>
</g>
<path d="M124.154 226.443C125.323 223.781 127.48 221.676 130.17 220.573L130.255 220.538L129.89 220.375C127.367 219.262 125.344 217.258 124.205 214.747L124.154 214.635L123.872 215.192C122.771 217.347 121.003 219.088 118.831 220.155L118.054 220.541L118.1 220.56C120.683 221.612 122.782 223.586 123.99 226.099L124.154 226.443Z" fill="#FFC600"/>
<path d="M131.829 230.063C132.413 228.732 133.492 227.68 134.837 227.128L134.879 227.111L134.696 227.029C133.435 226.472 132.423 225.47 131.854 224.214L131.829 224.158L131.688 224.437C131.137 225.514 130.253 226.384 129.167 226.918L128.778 227.111L128.802 227.12C130.093 227.646 131.143 228.633 131.746 229.89L131.829 230.063Z" fill="#FBAB1E"/>
<path d="M230.288 77.6979C229.414 75.7076 227.801 74.1344 225.79 73.3096L225.727 73.2838L226 73.1616C227.886 72.3291 229.399 70.8309 230.25 68.9533L230.288 68.8691L230.499 69.2849C231.322 70.8959 232.644 72.1975 234.268 72.9953L234.849 73.2838L234.814 73.298C232.884 74.0843 231.314 75.5603 230.411 77.4393L230.288 77.6979Z" fill="#A7C521"/>
<path d="M224.55 80.4049C224.113 79.4097 223.307 78.6232 222.301 78.211L222.27 78.1978L222.406 78.137C223.349 77.7207 224.106 76.9716 224.531 76.0328L224.55 75.9902L224.656 76.1986C225.067 77.0041 225.728 77.6549 226.54 78.0538L226.831 78.1978L226.813 78.2049C225.848 78.5982 225.063 79.3365 224.611 80.2761L224.55 80.4049Z" fill="#FBAB1E"/>
<path d="M27.8146 122.093C26.9406 120.102 25.3278 118.529 23.3163 117.705L23.2534 117.678L23.5267 117.557C25.4126 116.724 26.9256 115.226 27.7765 113.348L27.8146 113.264L28.0255 113.68C28.8486 115.291 30.1706 116.592 31.7942 117.39L32.3757 117.678L32.3407 117.693C30.4101 118.479 28.8407 119.955 27.9378 121.834L27.8146 122.093Z" fill="#FFC600"/>
<path d="M22.0765 124.799C21.6394 123.804 20.833 123.018 19.8273 122.606L19.7959 122.592L19.9323 122.531C20.8753 122.115 21.632 121.366 22.0577 120.427L22.0765 120.385L22.1819 120.593C22.5935 121.399 23.2544 122.049 24.066 122.448L24.357 122.592L24.3398 122.599C23.375 122.993 22.5908 123.731 22.1393 124.67L22.0765 124.799Z" fill="#A7C521"/>
<path d="M99.2276 48.4173L35.6597 56.6191L44.5748 125.715L108.143 117.513L99.2276 48.4173Z" fill="#EEEEFF"/>
<path d="M97.2989 33.3603L33.7168 41.5645L35.6601 56.6252L99.2422 48.421L97.2989 33.3603Z" fill="#A7C521"/>
<path d="M35.6595 56.6215L27.0039 57.7383L35.919 126.834L44.5746 125.717L35.6595 56.6215Z" fill="#7F980E"/>
<path d="M33.7166 41.5609L25.061 42.6777L27.0038 57.7351L35.6594 56.6183L33.7166 41.5609Z" fill="#C7E458"/>
<path d="M50.2873 59.6782L40.5728 60.9316L42.2746 74.1219L51.9892 72.8685L50.2873 59.6782Z" fill="#FEFFFD"/>
<path d="M61.8166 58.1899L52.1021 59.4434L53.8039 72.6336L63.5185 71.3802L61.8166 58.1899Z" fill="#FEFFFD"/>
<path d="M73.3491 56.7033L63.6323 57.957L65.3347 71.1503L75.0514 69.8965L73.3491 56.7033Z" fill="#FEFFFD"/>
<path d="M84.8784 55.215L75.1616 56.4688L76.864 69.662L86.5807 68.4082L84.8784 55.215Z" fill="#FEFFFD"/>
<path d="M96.4086 53.7286L86.6919 54.9824L88.3942 68.1757L98.111 66.9219L96.4086 53.7286Z" fill="#FEFFFD"/>
<path d="M52.2112 74.5903L42.4966 75.8438L44.1985 89.034L53.913 87.7806L52.2112 74.5903Z" fill="#FEFFFD"/>
<path d="M63.7409 73.104L54.0264 74.3574L55.7283 87.5477L65.4428 86.2943L63.7409 73.104Z" fill="#FEFFFD"/>
<path d="M75.2712 71.6177L65.5566 72.8711L67.2585 86.0614L76.9731 84.808L75.2712 71.6177Z" fill="#FEFFFD"/>
<path d="M86.801 70.1294L77.0864 71.3828L78.7883 84.5731L88.5029 83.3197L86.801 70.1294Z" fill="#FEFFFD"/>
<path d="M98.3325 68.6408L88.6157 69.8945L90.3181 83.0878L100.035 81.834L98.3325 68.6408Z" fill="#FEFFFD"/>
<path d="M54.1355 89.5044L44.4209 90.7578L46.1228 103.948L55.8374 102.695L54.1355 89.5044Z" fill="#FEFFFD"/>
<path d="M65.6669 88.0158L55.9502 89.2695L57.6525 102.463L67.3693 101.209L65.6669 88.0158Z" fill="#FEFFFD"/>
<path d="M77.1956 86.5299L67.481 87.7832L69.1826 100.974L78.8972 99.7203L77.1956 86.5299Z" fill="#FEFFFD"/>
<path d="M88.7248 85.0434L79.0103 86.2969L80.7121 99.4872L90.4267 98.2337L88.7248 85.0434Z" fill="#FEFFFD"/>
<path d="M100.256 83.5529L90.5396 84.8066L92.2419 97.9999L101.959 96.7461L100.256 83.5529Z" fill="#FEFFFD"/>
<path d="M56.0598 104.416L46.3452 105.67L48.0471 118.86L57.7617 117.607L56.0598 104.416Z" fill="#FEFFFD"/>
<path d="M67.5913 102.93L57.8745 104.184L59.5769 117.377L69.2936 116.123L67.5913 102.93Z" fill="#FEFFFD"/>
<path d="M79.1194 101.44L69.4048 102.693L71.1067 115.884L80.8213 114.63L79.1194 101.44Z" fill="#FEFFFD"/>
<path d="M90.6487 99.9557L80.9341 101.209L82.6357 114.399L92.3503 113.146L90.6487 99.9557Z" fill="#FEFFFD"/>
<path d="M102.181 98.465L92.4639 99.7188L94.1662 112.912L103.883 111.658L102.181 98.465Z" fill="#FEFFFD"/>
<path d="M126.467 208.032C169.377 208.032 204.162 173.246 204.162 130.336C204.162 87.4262 169.377 52.6406 126.467 52.6406C83.5565 52.6406 48.771 87.4262 48.771 130.336C48.771 173.246 83.5565 208.032 126.467 208.032Z" fill="#FFC96D"/>
<path d="M130.122 208.032C173.032 208.032 207.818 173.246 207.818 130.336C207.818 87.4262 173.032 52.6406 130.122 52.6406C87.2118 52.6406 52.4263 87.4262 52.4263 130.336C52.4263 173.246 87.2118 208.032 130.122 208.032Z" fill="#FBAB1E"/>
<path d="M142.237 168.699C156.258 163.043 168.983 153.633 177.238 140.965C186.826 126.254 189.72 108.414 188.88 90.6686C178.591 75.432 162.785 64.7885 144.797 60.984C126.809 57.1794 108.047 60.5114 92.4697 70.2768C76.892 80.0423 65.7172 95.4774 61.3032 113.325C56.8892 131.173 59.5813 150.037 68.8113 165.938C91.5628 176.694 118.833 178.141 142.237 168.699Z" fill="white"/>
<path d="M188.88 90.668C189.72 108.414 186.825 126.255 177.238 140.964C168.983 153.63 156.258 163.039 142.237 168.698C118.833 178.14 91.5625 176.694 68.811 165.938C73.5891 174.161 79.9728 181.338 87.5822 187.044C95.1916 192.749 103.871 196.864 113.104 199.146C122.337 201.427 131.934 201.827 141.325 200.323C150.716 198.818 159.708 195.44 167.766 190.388C175.824 185.337 182.783 178.716 188.23 170.919C193.676 163.122 197.498 154.309 199.468 145.005C201.438 135.701 201.516 126.095 199.697 116.76C197.878 107.425 194.199 98.5519 188.88 90.668Z" fill="#F8FEE3"/>
<path d="M129.348 131.254L95.9976 101.523L130.894 129.421L129.348 131.254Z" fill="#606060"/>
<path d="M131.451 129.498L146.843 186L128.793 131.179L131.451 129.498Z" fill="#606060"/>
<path d="M130.122 135.588C133.023 135.588 135.374 133.237 135.374 130.336C135.374 127.435 133.023 125.084 130.122 125.084C127.221 125.084 124.87 127.435 124.87 130.336C124.87 133.237 127.221 135.588 130.122 135.588Z" fill="#FFC600"/>
<path d="M130.122 59.4492V74.5183" stroke="#DDDDDD" stroke-width="3.883" stroke-linecap="round" stroke-linejoin="round"/>
<path d="M130.122 186.158V201.227" stroke="#DDDDDD" stroke-width="3.883" stroke-linecap="round" stroke-linejoin="round"/>
<path d="M201.011 130.336H185.941" stroke="#DDDDDD" stroke-width="3.883" stroke-linecap="round" stroke-linejoin="round"/>
<path d="M74.302 130.336H59.2329" stroke="#DDDDDD" stroke-width="3.883" stroke-linecap="round" stroke-linejoin="round"/>
<path d="M70.2861 92.3223L83.0057 100.403" stroke="#DDDDDD" stroke-width="3.883" stroke-linecap="round" stroke-linejoin="round"/>
<path d="M177.237 160.268L189.957 168.348" stroke="#32338C" stroke-width="3.883" stroke-linecap="round" stroke-linejoin="round"/>
<path d="M168.133 70.498L160.053 83.2176" stroke="#DDDDDD" stroke-width="3.883" stroke-linecap="round" stroke-linejoin="round"/>
<path d="M100.19 177.447L92.1099 190.167" stroke="#DDDDDD" stroke-width="3.883" stroke-linecap="round" stroke-linejoin="round"/>
<path d="M189.957 92.3223L177.237 100.403" stroke="#DDDDDD" stroke-width="3.883" stroke-linecap="round" stroke-linejoin="round"/>
<path d="M83.0057 160.268L70.2861 168.348" stroke="#DDDDDD" stroke-width="3.883" stroke-linecap="round" stroke-linejoin="round"/>
<path d="M92.1099 70.498L100.19 83.2176" stroke="#DDDDDD" stroke-width="3.883" stroke-linecap="round" stroke-linejoin="round"/>
<path d="M160.053 177.447L168.133 190.167" stroke="#32338C" stroke-width="3.883" stroke-linecap="round" stroke-linejoin="round"/>
<path d="M229.427 161.076L165.646 146.02L146.225 228.292L210.006 243.348L229.427 161.076Z" fill="#FAE7A5"/>
<path d="M230.61 161.353L166.83 146.297L147.408 228.57L211.189 243.626L230.61 161.353Z" fill="#FFC600"/>
<path d="M223.511 168.075L170.175 155.484L153.763 225.007L207.1 237.598L223.511 168.075Z" fill="white"/>
<path d="M191.234 142.839L210.325 147.352C211.797 147.701 213.07 148.62 213.865 149.907C214.659 151.193 214.91 152.743 214.562 154.215L213.81 157.396L183.619 150.259L184.37 147.078C184.718 145.606 185.637 144.332 186.924 143.537C188.211 142.743 189.761 142.491 191.234 142.839Z" fill="#FFC600"/>
<path d="M178.81 173.227C181.657 172.625 183.477 169.83 182.875 166.983C182.273 164.136 179.477 162.316 176.631 162.918C173.784 163.52 171.964 166.316 172.566 169.162C173.168 172.009 175.963 173.829 178.81 173.227Z" fill="#EEEEFE"/>
<path d="M175.259 165.838L177.46 169.401L183.793 165.486" stroke="#A7C521" stroke-width="2" stroke-linecap="round" stroke-linejoin="round"/>
<path d="M187.987 167.109L217.016 173.962" stroke="#D9D9D9" stroke-width="2" stroke-linecap="round" stroke-linejoin="round"/>
<path d="M187.23 170.314L216.259 177.167" stroke="#D9D9D9" stroke-width="2" stroke-linecap="round" stroke-linejoin="round"/>
<path d="M186.474 173.521L215.503 180.374" stroke="#D9D9D9" stroke-width="2" stroke-linecap="round" stroke-linejoin="round"/>
<path d="M178.995 185.611C178.755 186.626 178.221 187.546 177.458 188.256C176.696 188.966 175.74 189.435 174.711 189.602C173.683 189.769 172.628 189.627 171.68 189.194C170.732 188.762 169.933 188.058 169.386 187.171C168.838 186.285 168.565 185.256 168.602 184.215C168.639 183.173 168.984 182.166 169.593 181.321C170.202 180.476 171.048 179.83 172.025 179.465C173.001 179.101 174.063 179.034 175.077 179.274C176.437 179.595 177.614 180.443 178.348 181.632C179.083 182.82 179.315 184.252 178.995 185.611Z" fill="#EEEEFE"/>
<path d="M171.406 182.168L173.607 185.73L179.94 181.816" stroke="#A7C521" stroke-width="2" stroke-linecap="round" stroke-linejoin="round"/>
<path d="M184.133 183.439L213.162 190.292" stroke="#D9D9D9" stroke-width="2" stroke-linecap="round" stroke-linejoin="round"/>
<path d="M183.376 186.645L212.405 193.497" stroke="#D9D9D9" stroke-width="2" stroke-linecap="round" stroke-linejoin="round"/>
<path d="M182.62 189.852L211.649 196.704" stroke="#D9D9D9" stroke-width="2" stroke-linecap="round" stroke-linejoin="round"/>
<path d="M174.771 202.988C176.023 200.361 174.907 197.217 172.279 195.965C169.652 194.714 166.508 195.83 165.257 198.457C164.005 201.085 165.121 204.229 167.749 205.48C170.376 206.731 173.52 205.616 174.771 202.988Z" fill="#EEEEFE"/>
<path d="M167.552 198.491L169.754 202.053L176.086 198.139" stroke="#A7C521" stroke-width="2" stroke-linecap="round" stroke-linejoin="round"/>
<path d="M180.279 199.764L209.308 206.616" stroke="#D9D9D9" stroke-width="2" stroke-linecap="round" stroke-linejoin="round"/>
<path d="M179.522 202.969L208.551 209.821" stroke="#D9D9D9" stroke-width="2" stroke-linecap="round" stroke-linejoin="round"/>
<path d="M178.766 206.176L207.795 213.028" stroke="#D9D9D9" stroke-width="2" stroke-linecap="round" stroke-linejoin="round"/>
<g style="mix-blend-mode:multiply">
<path d="M176.81 148.654L220.629 158.998L220.026 161.55C219.886 162.145 219.514 162.661 218.994 162.982C218.473 163.304 217.846 163.406 217.251 163.265L177.922 153.981C177.327 153.841 176.812 153.469 176.49 152.949C176.168 152.428 176.067 151.801 176.207 151.206L176.81 148.654Z" fill="#F6EFEF"/>
</g>
<path d="M169.089 221.528C171.547 219.974 172.281 216.721 170.727 214.263C169.173 211.804 165.921 211.07 163.462 212.624C161.003 214.178 160.27 217.431 161.824 219.889C163.377 222.348 166.63 223.082 169.089 221.528Z" fill="#EEEEFE"/>
<path d="M163.818 214.846L166.02 218.408L172.353 214.494" stroke="#A7C521" stroke-width="2" stroke-linecap="round" stroke-linejoin="round"/>
<path d="M176.544 216.119L205.573 222.972" stroke="#D9D9D9" stroke-width="2" stroke-linecap="round" stroke-linejoin="round"/>
<path d="M175.788 219.324L204.816 226.177" stroke="#D9D9D9" stroke-width="2" stroke-linecap="round" stroke-linejoin="round"/>
<path d="M175.031 222.531L204.06 229.384" stroke="#D9D9D9" stroke-width="2" stroke-linecap="round" stroke-linejoin="round"/>
</g>
<path d="M32.8294 40.7485L32.3518 37.0596C32.2805 36.5094 32.3187 35.9506 32.4643 35.4152C32.6099 34.8797 32.86 34.3781 33.2002 33.9389C33.5405 33.4997 33.9643 33.1316 34.4474 32.8556C34.9305 32.5795 35.4635 32.401 36.0159 32.3301L38.5906 31.9996C39.706 31.8562 40.8329 32.16 41.7234 32.8442C42.6139 33.5284 43.1951 34.5369 43.339 35.6478L44.1626 42.0055C44.2339 42.5555 44.1957 43.1142 44.0501 43.6495C43.9046 44.1849 43.6547 44.6865 43.3146 45.1256C42.9744 45.5647 42.5508 45.9328 42.0678 46.2089C41.5848 46.4849 41.052 46.6635 40.4997 46.7345" stroke="#F1F1F1" stroke-width="2" stroke-linecap="round" stroke-linejoin="round"/>
<path d="M40.173 39.807L39.695 36.1182C39.5512 35.0073 39.8563 33.885 40.5432 32.9982C41.2301 32.1113 42.2425 31.5325 43.3579 31.3892L45.9329 31.0582C46.4852 30.9872 47.0461 31.0252 47.5836 31.1702C48.1211 31.3151 48.6247 31.564 49.0656 31.9028C49.5065 32.2416 49.8761 32.6635 50.1533 33.1446C50.4304 33.6256 50.6097 34.1563 50.681 34.7064L51.5049 41.0627C51.5764 41.6129 51.5382 42.1718 51.3928 42.7073C51.2473 43.2428 50.9973 43.7446 50.6572 44.1839C50.317 44.6232 49.8932 44.9915 49.4102 45.2676C48.9271 45.5438 48.3941 45.7225 47.8416 45.7935" stroke="#F1F1F1" stroke-width="2" stroke-linecap="round" stroke-linejoin="round"/>
<path d="M47.5178 38.8618L47.0393 35.1729C46.968 34.6228 47.0062 34.0642 47.1517 33.5288C47.2972 32.9935 47.5472 32.4919 47.8873 32.0528C48.2274 31.6136 48.6511 31.2455 49.1341 30.9695C49.617 30.6934 50.1499 30.5148 50.7021 30.4439L53.2772 30.1129C54.3923 29.9695 55.5189 30.2731 56.4093 30.9569C57.2997 31.6407 57.881 32.6488 58.0253 33.7594L58.8488 40.117C58.9201 40.6671 58.8819 41.2257 58.7364 41.7611C58.5908 42.2964 58.3409 42.798 58.0008 43.2371C57.6606 43.6763 57.237 44.0444 56.754 44.3204C56.271 44.5965 55.7382 44.7751 55.1859 44.846" stroke="#F1F1F1" stroke-width="2" stroke-linecap="round" stroke-linejoin="round"/>
<path d="M54.8606 37.9164L54.383 34.2275C54.3117 33.6774 54.35 33.1188 54.4955 32.5834C54.641 32.0481 54.8909 31.5465 55.2311 31.1074C55.5712 30.6683 55.9948 30.3002 56.4778 30.0241C56.9608 29.748 57.4936 29.5694 58.0459 29.4985L60.621 29.1675C61.7363 29.0243 62.8631 29.3281 63.7535 30.0123C64.6439 30.6964 65.225 31.7049 65.369 32.8157L66.1925 39.1738C66.3361 40.2843 66.0311 41.4061 65.3445 42.2927C64.6578 43.1792 63.6459 43.7579 62.531 43.9015" stroke="#F1F1F1" stroke-width="2" stroke-linecap="round" stroke-linejoin="round"/>
<path d="M62.2038 36.975L61.7258 33.2862C61.5819 32.1753 61.887 31.053 62.5739 30.1662C63.2608 29.2793 64.2733 28.7005 65.3886 28.5571L67.9637 28.2262C69.0791 28.0828 70.206 28.3866 71.0965 29.0708C71.9871 29.7549 72.5682 30.7634 72.7122 31.8744L73.5357 38.232C73.607 38.7821 73.5688 39.3407 73.4233 39.8761C73.2778 40.4115 73.0278 40.913 72.6877 41.3522C72.3475 41.7913 71.9239 42.1594 71.4409 42.4354C70.958 42.7115 70.4251 42.8901 69.8728 42.961" stroke="#F1F1F1" stroke-width="2" stroke-linecap="round" stroke-linejoin="round"/>
<path d="M69.5478 36.0296L69.0715 32.3407C68.9276 31.2299 69.2327 30.1076 69.9196 29.2207C70.6065 28.3339 71.619 27.7551 72.7343 27.6117L75.3094 27.2807C76.4248 27.1376 77.5516 27.4416 78.442 28.1258C79.3324 28.81 79.9135 29.8185 80.0574 30.9294L80.8801 37.287C80.9514 37.8371 80.9132 38.3958 80.7677 38.9311C80.6222 39.4665 80.3722 39.968 80.0321 40.4072C79.6919 40.8463 79.2683 41.2144 78.7853 41.4905C78.3023 41.7665 77.7695 41.9451 77.2172 42.0161" stroke="#F1F1F1" stroke-width="2" stroke-linecap="round" stroke-linejoin="round"/>
<path d="M76.8914 35.0878L76.4138 31.3994C76.3425 30.8494 76.3807 30.2907 76.5262 29.7554C76.6717 29.22 76.9217 28.7184 77.2618 28.2793C77.6019 27.8402 78.0256 27.4721 78.5086 27.196C78.9915 26.9199 79.5244 26.7414 80.0767 26.6704L82.6517 26.3394C83.204 26.2684 83.7649 26.3065 84.3024 26.4514C84.8399 26.5963 85.3435 26.8453 85.7844 27.1841C86.2253 27.5228 86.5949 27.9448 86.872 28.4258C87.1492 28.9069 87.3285 29.4376 87.3998 29.9876L88.2233 36.3453C88.3672 37.4562 88.0622 38.5786 87.3753 39.4656C86.6884 40.3525 85.6758 40.9314 84.5604 41.0747" stroke="#F1F1F1" stroke-width="2" stroke-linecap="round" stroke-linejoin="round"/>
</svg>
