<svg width="281" height="197" viewBox="0 0 281 197" fill="none" xmlns="http://www.w3.org/2000/svg">
<path d="M7.70861 169.576H279.427C283.254 164.794 279.059 156.142 274.109 152.535C269.159 148.928 262.916 147.028 258.831 142.465C252.431 135.315 253.484 124.479 254.081 114.901C254.678 105.323 253.359 93.8262 244.881 89.3362C237.059 85.1942 227.202 89.3572 218.716 86.8422C210.332 84.3572 205.273 76.1422 200.138 69.0652C182.692 45.2353 156.949 28.8093 127.987 23.0282C115.643 20.6202 102.469 20.3002 90.8666 25.1552C79.2646 30.0102 69.6196 40.8762 68.9466 53.4372C68.4706 62.3202 72.3166 70.7872 74.2636 79.4672C76.2106 88.1472 75.6156 98.6462 68.5446 104.045C62.8196 108.415 54.9316 107.93 47.7876 108.845C40.6436 109.76 32.4396 113.901 32.2346 121.1C32.0106 128.91 41.5866 135.193 39.6246 142.756C38.4246 147.379 33.3386 149.84 28.6356 150.671C23.9326 151.502 18.9356 151.362 14.6576 153.488C10.3796 155.614 4.98961 165.649 7.70861 169.576Z" fill="#E7FAF9"/>
<path d="M192.43 45.0301H263.587C264.287 43.2401 262.77 41.2581 260.999 40.5101C259.228 39.7621 257.221 39.9541 255.305 40.1161C253.389 40.2781 251.354 40.3741 249.658 39.4681C246.38 37.7161 245.936 33.3211 244.445 29.9171C243.322 27.3477 241.448 25.1779 239.07 23.6928C236.691 22.2076 233.919 21.4765 231.118 21.5955C228.316 21.7145 225.616 22.678 223.373 24.3595C221.129 26.0409 219.446 28.3617 218.545 31.0171C217.622 33.7351 217.434 36.9171 215.345 38.8861C213.145 40.9521 209.674 40.8191 206.764 40.0201C203.854 39.2211 201.008 37.8821 197.991 37.9641C194.974 38.0461 192.225 42.0191 192.43 45.0301Z" fill="#FBEED1"/>
<path d="M90.5498 12.4424H155.603C154.873 10.7187 153.803 9.16031 152.456 7.86081C151.109 6.56131 149.513 5.54753 147.764 4.88041C146.018 4.28979 144.169 4.0642 142.333 4.21764C140.496 4.37108 138.71 4.90029 137.087 5.77241C135.104 6.85241 133.315 8.47241 131.087 8.80241C127.57 9.32841 124.545 6.56941 121.57 4.62241C116.444 1.30026 110.242 0.0628332 104.234 1.16341C98.2948 2.27841 94.0568 7.52541 90.5498 12.4424Z" fill="#FBEED1"/>
<path d="M3.62305 44.5042H64.363C64.0725 42.3724 62.9702 40.4351 61.286 39.0962C60.4825 38.5221 59.5687 38.1208 58.6022 37.9177C57.6358 37.7146 56.6377 37.7141 55.671 37.9162C54.171 38.2402 52.783 39.0512 51.254 39.2002C48.854 39.4342 46.5951 37.9902 44.8751 36.3002C43.1551 34.6102 41.73 32.5902 39.775 31.1762C38.4908 30.2489 37.0193 29.6137 35.4637 29.315C33.9081 29.0163 32.3059 29.0614 30.7696 29.4472C29.2332 29.8329 27.7998 30.55 26.5698 31.5481C25.3398 32.5462 24.3429 33.8012 23.649 35.2252C23.055 36.4442 22.693 37.7672 22.075 38.9732C21.8025 39.5953 21.4087 40.1568 20.9166 40.6248C20.4245 41.0929 19.844 41.4582 19.209 41.6992C17.043 42.3462 14.9091 40.7732 12.7371 40.1602C9.41206 39.2172 5.31405 41.4932 3.62305 44.5042Z" fill="#FBEED1"/>
<path d="M144.39 196.011C200.038 196.011 245.149 194.495 245.149 192.624C245.149 190.754 200.038 189.237 144.39 189.237C88.7422 189.237 43.6309 190.754 43.6309 192.624C43.6309 194.495 88.7422 196.011 144.39 196.011Z" fill="#6CA8BC"/>
<path d="M191.601 84.8633H197.994C198.565 84.8633 199.113 85.0903 199.518 85.4945C199.922 85.8986 200.149 86.4467 200.149 87.0183V91.0163C200.149 91.5878 199.922 92.136 199.518 92.5401C199.113 92.9442 198.565 93.1713 197.994 93.1713H192.819V91.5823C191.259 91.5824 189.763 90.963 188.66 89.8603L187.883 89.0833L191.601 84.8633Z" fill="#EBA58E"/>
<path d="M191.6 84.8629L187.882 89.0789L171.917 85.3679L174.125 79.4619L191.6 84.8629Z" fill="#EBA58E"/>
<path d="M174.126 79.4609L174.905 79.7019L175.157 86.1209L171.917 85.3679L174.126 79.4609Z" fill="#DD8C76"/>
<path d="M143.559 56.6142C144.573 55.8189 145.854 55.4447 147.136 55.5695C148.418 55.6942 149.603 56.3084 150.444 57.2842L167.005 76.4932L169.998 77.5022L167.217 84.9392L165.647 84.5992C163.164 84.0604 160.899 82.7881 159.147 80.9472L143.022 64.0142C142.54 63.5085 142.169 62.9074 141.933 62.2497C141.697 61.592 141.601 60.8922 141.652 60.1953C141.702 59.4983 141.898 58.8197 142.227 58.2029C142.555 57.5862 143.009 57.045 143.559 56.6142Z" fill="#7F980E"/>
<path d="M167.129 85.1802L167.218 84.9442L169.999 77.5072L170.274 76.7712C170.311 76.6708 170.368 76.5788 170.441 76.5004C170.514 76.4221 170.601 76.3589 170.699 76.3145C170.796 76.2701 170.902 76.2453 171.009 76.2417C171.116 76.238 171.222 76.2555 171.323 76.2932L174.06 77.3162C174.16 77.3536 174.252 77.4105 174.33 77.4835C174.408 77.5565 174.471 77.6442 174.516 77.7416C174.56 77.8391 174.585 77.9443 174.589 78.0512C174.592 78.1582 174.575 78.2649 174.538 78.3652L174.315 78.9652L171.715 85.9212L171.394 86.7782C171.318 86.9804 171.165 87.1444 170.968 87.234C170.772 87.3237 170.548 87.3316 170.346 87.2562L167.609 86.2322C167.508 86.1949 167.415 86.1381 167.337 86.0649C167.258 85.9918 167.194 85.9038 167.15 85.806C167.105 85.7083 167.08 85.6026 167.077 85.4952C167.073 85.3878 167.091 85.2807 167.129 85.1802Z" fill="#7F980E"/>
<path d="M149.397 58.0891C148.649 57.2219 147.629 56.6349 146.504 56.4242C145.378 56.2136 144.215 56.392 143.204 56.9301C143.317 56.8231 143.434 56.7181 143.559 56.6191C144.573 55.8237 145.854 55.4496 147.136 55.5743C148.418 55.6991 149.603 56.3133 150.444 57.2891L167.004 76.4981L169.997 77.5071L169.55 78.7011L166.189 77.5681L149.397 58.0891Z" fill="#A7C521"/>
<path d="M149.323 96.5889L183.838 105.775C185.228 106.145 186.513 106.833 187.592 107.784C188.671 108.736 189.513 109.925 190.054 111.258C190.594 112.591 190.817 114.031 190.706 115.465C190.594 116.899 190.151 118.287 189.411 119.521L169.291 153.069L158.091 148.098L174.191 117.484L141.406 110.632C139.912 110.319 138.501 109.692 137.268 108.791C136.035 107.891 135.007 106.738 134.255 105.409C133.502 104.08 133.042 102.607 132.903 101.086C132.765 99.5652 132.953 98.0324 133.453 96.5899H149.324L149.323 96.5889Z" fill="#422C4F"/>
<path d="M159.54 150.388L160.381 149.115L166.747 151.94L165.247 154.668L158.147 152.676C158.588 151.897 159.048 151.132 159.54 150.388Z" fill="#EBA58E"/>
<path d="M161.291 155.881L161.884 157.391L161.093 156.834C160.779 156.613 160.405 156.494 160.021 156.494H156.304C156.845 155.186 157.463 153.911 158.154 152.675L165.254 154.667L164.825 155.447H161.588C161.536 155.447 161.485 155.459 161.439 155.483C161.393 155.507 161.354 155.542 161.324 155.585C161.295 155.628 161.277 155.677 161.271 155.729C161.265 155.78 161.272 155.833 161.291 155.881Z" fill="white"/>
<path d="M169.448 162.381H154.409L154.683 161.318C155.109 159.674 155.651 158.062 156.303 156.494H160.02C160.404 156.494 160.778 156.613 161.092 156.834L161.883 157.391L161.29 155.881C161.271 155.833 161.264 155.78 161.27 155.728C161.276 155.676 161.294 155.627 161.324 155.584C161.354 155.541 161.394 155.506 161.44 155.482C161.486 155.458 161.538 155.446 161.59 155.446H164.823L167.212 157.691C168.295 158.709 169.726 159.275 171.212 159.274H172.838C173.596 159.275 174.339 159.479 174.99 159.866C175.641 160.254 176.176 160.809 176.538 161.474L173.438 162.026C172.121 162.262 170.786 162.381 169.448 162.381Z" fill="#422C4F"/>
<path d="M169.448 162.382C170.785 162.382 172.119 162.264 173.434 162.03L176.534 161.478C176.848 162.051 177.024 162.691 177.047 163.345L172.309 163.774C171.56 163.84 170.809 163.874 170.056 163.874H154.024L154.409 162.38L169.448 162.382Z" fill="white"/>
<path d="M160.38 149.114L166.746 151.939L166.058 153.191L159.127 151.028L160.38 149.114Z" fill="#422C4F"/>
<path d="M202.576 93.499H204.205L208.399 108.334C211.679 119.938 210.357 132.359 204.709 143.013L202.665 143.783L202.576 93.499Z" fill="#D48A0A"/>
<path d="M208.399 108.334L204.205 93.499H205.733L214.341 125.449C214.718 126.848 215.546 128.085 216.696 128.966C217.846 129.848 219.255 130.326 220.704 130.326C220.812 130.326 220.916 130.369 220.992 130.445C221.068 130.522 221.111 130.625 221.111 130.733V136.833L204.711 143.014C210.358 132.36 211.679 119.938 208.399 108.334Z" fill="#FBAB1E"/>
<path d="M222.231 191.833C234.887 191.833 245.146 181.574 245.146 168.918C245.146 156.262 234.887 146.003 222.231 146.003C209.576 146.003 199.316 156.262 199.316 168.918C199.316 181.574 209.576 191.833 222.231 191.833Z" fill="#422C4F"/>
<path d="M222.231 185.417C231.344 185.417 238.73 178.03 238.73 168.918C238.73 159.806 231.344 152.419 222.231 152.419C213.119 152.419 205.732 159.806 205.732 168.918C205.732 178.03 213.119 185.417 222.231 185.417Z" fill="#495375"/>
<path d="M222.232 182.39C229.672 182.39 235.704 176.359 235.704 168.918C235.704 161.478 229.672 155.446 222.232 155.446C214.791 155.446 208.76 161.478 208.76 168.918C208.76 176.359 214.791 182.39 222.232 182.39Z" fill="#C7D2D7"/>
<path d="M222.231 155.446C224.682 155.442 227.087 156.11 229.184 157.377C227.429 156.936 225.596 156.9 223.825 157.274C222.054 157.648 220.392 158.42 218.965 159.533C217.537 160.646 216.383 162.069 215.588 163.696C214.794 165.322 214.381 167.108 214.381 168.918C214.381 170.728 214.794 172.514 215.588 174.14C216.383 175.766 217.537 177.19 218.965 178.303C220.392 179.416 222.054 180.188 223.825 180.562C225.596 180.935 227.429 180.9 229.184 180.458C227.405 181.53 225.402 182.177 223.332 182.346C221.261 182.516 219.18 182.205 217.25 181.437C215.32 180.669 213.593 179.465 212.206 177.919C210.818 176.374 209.806 174.528 209.25 172.527C208.694 170.525 208.608 168.422 208.999 166.382C209.39 164.342 210.247 162.42 211.504 160.766C212.761 159.112 214.383 157.772 216.244 156.849C218.105 155.926 220.154 155.445 222.231 155.445V155.446Z" fill="#99A3B0"/>
<path d="M222.231 174.859C225.512 174.859 228.172 172.199 228.172 168.918C228.172 165.636 225.512 162.977 222.231 162.977C218.95 162.977 216.29 165.636 216.29 168.918C216.29 172.199 218.95 174.859 222.231 174.859Z" fill="#99A3B0"/>
<path d="M225.078 166.072C223.506 164.5 220.957 164.5 219.385 166.072C217.813 167.644 217.813 170.192 219.385 171.764C220.957 173.336 223.506 173.336 225.078 171.764C226.649 170.192 226.649 167.644 225.078 166.072Z" fill="#FBAB1E"/>
<path d="M104.526 191.833C117.182 191.833 127.441 181.574 127.441 168.918C127.441 156.262 117.182 146.003 104.526 146.003C91.8707 146.003 81.6113 156.262 81.6113 168.918C81.6113 181.574 91.8707 191.833 104.526 191.833Z" fill="#422C4F"/>
<path d="M104.526 185.417C113.638 185.417 121.025 178.03 121.025 168.918C121.025 159.806 113.638 152.419 104.526 152.419C95.4142 152.419 88.0273 159.806 88.0273 168.918C88.0273 178.03 95.4142 185.417 104.526 185.417Z" fill="#495375"/>
<path d="M104.527 182.39C111.967 182.39 117.999 176.359 117.999 168.918C117.999 161.478 111.967 155.446 104.527 155.446C97.0863 155.446 91.0547 161.478 91.0547 168.918C91.0547 176.359 97.0863 182.39 104.527 182.39Z" fill="#C7D2D7"/>
<path d="M104.522 155.446C106.973 155.442 109.378 156.11 111.475 157.377C109.72 156.936 107.887 156.9 106.116 157.274C104.345 157.648 102.683 158.42 101.256 159.533C99.8284 160.646 98.6736 162.069 97.8794 163.696C97.0852 165.322 96.6723 167.108 96.6723 168.918C96.6723 170.728 97.0852 172.514 97.8794 174.14C98.6736 175.766 99.8284 177.19 101.256 178.303C102.683 179.416 104.345 180.188 106.116 180.562C107.887 180.935 109.72 180.9 111.475 180.458C109.696 181.53 107.693 182.177 105.623 182.346C103.552 182.516 101.471 182.205 99.5408 181.437C97.6108 180.669 95.8844 179.465 94.4967 177.919C93.1089 176.374 92.0974 174.528 91.541 172.527C90.9847 170.525 90.8987 168.422 91.2897 166.382C91.6807 164.342 92.5381 162.42 93.795 160.766C95.0518 159.112 96.6741 157.772 98.535 156.849C100.396 155.926 102.445 155.445 104.522 155.445V155.446Z" fill="#99A3B0"/>
<path d="M104.526 174.859C107.807 174.859 110.467 172.199 110.467 168.918C110.467 165.636 107.807 162.977 104.526 162.977C101.245 162.977 98.585 165.636 98.585 168.918C98.585 172.199 101.245 174.859 104.526 174.859Z" fill="#99A3B0"/>
<path d="M107.372 166.072C105.801 164.5 103.252 164.5 101.68 166.072C100.108 167.644 100.108 170.192 101.68 171.764C103.252 173.336 105.801 173.336 107.372 171.764C108.944 170.192 108.944 167.644 107.372 166.072Z" fill="#FBAB1E"/>
<path d="M221.128 138.568C215.368 138.804 209.832 140.873 205.329 144.473C200.826 148.073 197.589 153.017 196.091 158.584L195.581 160.433L195.027 160.705L196.091 156.847C197.589 151.28 200.826 146.336 205.329 142.736C209.832 139.136 215.368 137.067 221.128 136.831C221.433 136.822 221.739 136.817 222.045 136.817C227.044 136.808 231.956 138.119 236.284 140.617L235.504 141.917C231.365 139.699 226.74 138.543 222.044 138.551C221.738 138.553 221.433 138.558 221.128 138.568Z" fill="white"/>
<path d="M218.973 148.937L195.58 160.437L196.09 158.588C197.588 153.02 200.825 148.076 205.328 144.476C209.831 140.876 215.366 138.807 221.127 138.572C221.432 138.562 221.737 138.558 222.044 138.558C226.74 138.549 231.364 139.706 235.503 141.924L231.303 148.941L218.973 148.937Z" fill="#F2C8C2"/>
<path d="M193.919 162.441H204.853C209.767 162.44 214.479 160.487 217.953 157.012C221.427 153.538 226.139 151.585 231.053 151.584H244.017L239.917 147.484C237.569 145.136 234.781 143.274 231.714 142.003C228.646 140.732 225.358 140.078 222.037 140.078C217.787 140.078 213.605 141.149 209.878 143.193C206.151 145.237 203 148.187 200.715 151.771L193.919 162.441Z" fill="#FBAB1E"/>
<path d="M202.576 93.499L206.769 108.334C210.133 120.228 208.659 132.971 202.669 143.783L200.575 147.561C197.664 152.813 193.4 157.19 188.227 160.238C183.053 163.286 177.158 164.893 171.154 164.893H67.9365L71.6365 151.473C75.2835 138.233 83.7989 126.861 95.4765 119.634L102.161 115.498H159.58V118.006C159.58 118.818 159.325 119.61 158.851 120.27C158.377 120.93 157.708 121.424 156.939 121.684C153.928 122.698 151.266 124.543 149.26 127.006C147.253 129.468 145.983 132.448 145.598 135.601C145.308 137.968 145.524 140.37 146.232 142.647C146.94 144.925 148.123 147.026 149.703 148.812C151.284 150.598 153.226 152.028 155.4 153.007C157.575 153.987 159.933 154.493 162.318 154.493H170.718C174.677 154.493 178.573 153.493 182.044 151.586C185.514 149.679 188.447 146.926 190.57 143.583L194.462 137.453C198.754 130.693 200.223 122.519 198.552 114.688L194.03 93.501L202.576 93.499Z" fill="#FBAB1E"/>
<path d="M102.156 115.498H164.214V108.131H114.727C113.024 108.131 111.338 108.472 109.768 109.133C108.198 109.794 106.776 110.763 105.586 111.982L102.156 115.498Z" fill="#422C4F"/>
<path d="M138.236 165.911H166.099C172.285 165.909 178.358 164.252 183.688 161.112C189.018 157.973 193.41 153.464 196.41 148.054L198.504 144.276C201.551 138.811 203.49 132.799 204.21 126.584C204.929 120.369 204.416 114.073 202.698 108.057C201.588 104.091 202.098 99.8465 204.116 96.2567C204.19 96.14 204.239 96.0095 204.261 95.8732C204.282 95.7369 204.276 95.5976 204.242 95.4638C204.208 95.33 204.148 95.2044 204.064 95.0948C203.98 94.9851 203.875 94.8936 203.755 94.8258C203.635 94.758 203.502 94.7153 203.365 94.7003C203.228 94.6854 203.089 94.6985 202.957 94.7387C202.825 94.779 202.702 94.8457 202.597 94.9348C202.491 95.0238 202.405 95.1333 202.343 95.2567C200.061 99.3201 199.486 104.123 200.743 108.611C202.387 114.371 202.879 120.399 202.19 126.35C201.5 132.301 199.644 138.057 196.726 143.289L194.632 147.067C191.809 152.159 187.674 156.403 182.657 159.358C177.641 162.313 171.925 163.872 166.102 163.874H138.236C137.966 163.874 137.707 163.981 137.516 164.172C137.325 164.363 137.218 164.622 137.218 164.892C137.218 165.162 137.325 165.421 137.516 165.612C137.707 165.803 137.966 165.911 138.236 165.911Z" fill="#F2C8C2"/>
<path d="M137.227 160.904H73.3857L74.3628 161.881C75.9243 163.443 78.0423 164.32 80.2508 164.32H130.502C131.812 164.32 133.104 164.011 134.273 163.417C135.441 162.824 136.453 161.963 137.226 160.904H137.227Z" fill="#D48A0A"/>
<path d="M109.346 171.396C116.973 171.396 123.155 165.214 123.155 157.587C123.155 149.961 116.973 143.778 109.346 143.778C101.72 143.778 95.5371 149.961 95.5371 157.587C95.5371 165.214 101.72 171.396 109.346 171.396Z" fill="#99A3B0"/>
<path d="M109.347 168.208C111.447 168.208 113.5 167.585 115.247 166.418C116.993 165.251 118.354 163.592 119.158 161.652C119.962 159.711 120.172 157.576 119.762 155.516C119.353 153.456 118.341 151.564 116.856 150.078C115.371 148.593 113.478 147.582 111.418 147.172C109.358 146.762 107.223 146.972 105.282 147.776C103.342 148.58 101.683 149.941 100.516 151.688C99.3494 153.434 98.7266 155.487 98.7266 157.588C98.7297 160.403 99.8496 163.103 101.841 165.094C103.832 167.085 106.531 168.205 109.347 168.208ZM109.347 148.098C111.223 148.098 113.058 148.655 114.619 149.698C116.179 150.74 117.395 152.223 118.113 153.957C118.832 155.691 119.019 157.599 118.653 159.44C118.287 161.281 117.383 162.971 116.056 164.299C114.728 165.626 113.037 166.529 111.197 166.896C109.356 167.262 107.448 167.074 105.714 166.355C103.98 165.637 102.498 164.421 101.455 162.86C100.412 161.299 99.8556 159.465 99.8556 157.588C99.8574 155.071 100.858 152.658 102.637 150.878C104.417 149.098 106.83 148.097 109.347 148.095V148.098Z" fill="#495375"/>
<path d="M102.453 158.152H116.243C116.393 158.152 116.536 158.093 116.642 157.987C116.748 157.881 116.808 157.737 116.808 157.587C116.808 157.438 116.748 157.294 116.642 157.188C116.536 157.082 116.393 157.022 116.243 157.022H102.453C102.303 157.022 102.159 157.082 102.053 157.188C101.947 157.294 101.888 157.438 101.888 157.587C101.888 157.737 101.947 157.881 102.053 157.987C102.159 158.093 102.303 158.152 102.453 158.152Z" fill="#495375"/>
<path d="M103.636 155.892H115.054C115.204 155.892 115.348 155.832 115.454 155.726C115.56 155.62 115.619 155.477 115.619 155.327C115.619 155.177 115.56 155.033 115.454 154.927C115.348 154.821 115.204 154.762 115.054 154.762H103.636C103.486 154.762 103.343 154.821 103.237 154.927C103.131 155.033 103.071 155.177 103.071 155.327C103.071 155.477 103.131 155.62 103.237 155.726C103.343 155.832 103.486 155.892 103.636 155.892Z" fill="#495375"/>
<path d="M105.232 153.633H113.461C113.611 153.633 113.755 153.573 113.861 153.467C113.966 153.361 114.026 153.218 114.026 153.068C114.026 152.918 113.966 152.774 113.861 152.668C113.755 152.562 113.611 152.503 113.461 152.503H105.232C105.082 152.503 104.938 152.562 104.832 152.668C104.727 152.774 104.667 152.918 104.667 153.068C104.667 153.218 104.727 153.361 104.832 153.467C104.938 153.573 105.082 153.633 105.232 153.633Z" fill="#495375"/>
<path d="M107.128 151.373H111.562C111.712 151.373 111.856 151.314 111.962 151.208C112.068 151.102 112.127 150.958 112.127 150.808C112.127 150.658 112.068 150.515 111.962 150.409C111.856 150.303 111.712 150.243 111.562 150.243H107.128C106.979 150.243 106.835 150.303 106.729 150.409C106.623 150.515 106.563 150.658 106.563 150.808C106.563 150.958 106.623 151.102 106.729 151.208C106.835 151.314 106.979 151.373 107.128 151.373Z" fill="#495375"/>
<path d="M103.636 160.411H115.054C115.204 160.411 115.348 160.352 115.454 160.246C115.56 160.14 115.619 159.996 115.619 159.846C115.619 159.696 115.56 159.553 115.454 159.447C115.348 159.341 115.204 159.281 115.054 159.281H103.636C103.486 159.281 103.343 159.341 103.237 159.447C103.131 159.553 103.071 159.696 103.071 159.846C103.071 159.996 103.131 160.14 103.237 160.246C103.343 160.352 103.486 160.411 103.636 160.411Z" fill="#495375"/>
<path d="M105.232 162.671H113.461C113.611 162.671 113.755 162.612 113.861 162.506C113.966 162.4 114.026 162.256 114.026 162.106C114.026 161.956 113.966 161.812 113.861 161.707C113.755 161.601 113.611 161.541 113.461 161.541H105.232C105.082 161.541 104.938 161.601 104.832 161.707C104.727 161.812 104.667 161.956 104.667 162.106C104.667 162.256 104.727 162.4 104.832 162.506C104.938 162.612 105.082 162.671 105.232 162.671Z" fill="#495375"/>
<path d="M107.128 164.931H111.562C111.712 164.931 111.856 164.871 111.962 164.765C112.068 164.659 112.127 164.516 112.127 164.366C112.127 164.216 112.068 164.072 111.962 163.966C111.856 163.86 111.712 163.801 111.562 163.801H107.128C106.979 163.801 106.835 163.86 106.729 163.966C106.623 164.072 106.563 164.216 106.563 164.366C106.563 164.516 106.623 164.659 106.729 164.765C106.835 164.871 106.979 164.931 107.128 164.931Z" fill="#495375"/>
<path d="M94.4427 127.68C101.014 123.688 108.555 121.578 116.243 121.58H118.821C131.921 121.58 143.021 132.292 143.012 145.388C143.015 151.089 140.961 156.6 137.229 160.91H73.3857L75.8317 152.203C78.7054 141.967 85.3569 133.202 94.4427 127.68Z" fill="#FFC96D"/>
<path d="M98.125 136.574C102.936 133.651 108.458 132.104 114.088 132.104H115.976C120.625 132.106 125.088 133.934 128.402 137.196C131.716 140.457 133.615 144.89 133.691 149.538C133.693 153.713 132.189 157.749 129.456 160.905H82.7061L84.497 154.529C86.6022 147.034 91.4727 140.617 98.125 136.574Z" fill="#FBAB1E"/>
<path d="M97.8327 157.388H119.324C119.486 157.388 119.641 157.324 119.756 157.209C119.87 157.094 119.935 156.939 119.935 156.777C119.935 156.615 119.87 156.46 119.756 156.345C119.641 156.23 119.486 156.166 119.324 156.166H97.8327C97.6707 156.166 97.5152 156.23 97.4006 156.345C97.2861 156.46 97.2217 156.615 97.2217 156.777C97.2217 156.939 97.2861 157.094 97.4006 157.209C97.5152 157.324 97.6707 157.388 97.8327 157.388Z" fill="#495375"/>
<path d="M98.4948 154.969H119.986C120.148 154.969 120.303 154.905 120.418 154.79C120.532 154.676 120.597 154.52 120.597 154.358C120.597 154.196 120.532 154.041 120.418 153.926C120.303 153.811 120.148 153.747 119.986 153.747H98.4948C98.3328 153.747 98.1774 153.811 98.0628 153.926C97.9482 154.041 97.8838 154.196 97.8838 154.358C97.8838 154.52 97.9482 154.676 98.0628 154.79C98.1774 154.905 98.3328 154.969 98.4948 154.969Z" fill="#495375"/>
<path d="M99.1569 152.549H120.647C120.809 152.549 120.964 152.485 121.079 152.37C121.194 152.256 121.258 152.1 121.258 151.938C121.258 151.776 121.194 151.621 121.079 151.506C120.964 151.392 120.809 151.327 120.647 151.327H99.1569C98.9948 151.327 98.8394 151.392 98.7249 151.506C98.6103 151.621 98.5459 151.776 98.5459 151.938C98.5459 152.1 98.6103 152.256 98.7249 152.37C98.8394 152.485 98.9948 152.549 99.1569 152.549Z" fill="#495375"/>
<path d="M99.819 150.13H121.309C121.471 150.13 121.626 150.066 121.741 149.951C121.856 149.837 121.92 149.681 121.92 149.519C121.92 149.357 121.856 149.202 121.741 149.087C121.626 148.973 121.471 148.908 121.309 148.908H99.819C99.657 148.908 99.5015 148.973 99.387 149.087C99.2724 149.202 99.208 149.357 99.208 149.519C99.208 149.681 99.2724 149.837 99.387 149.951C99.5015 150.066 99.657 150.13 99.819 150.13Z" fill="#495375"/>
<path d="M100.481 147.711H121.971C122.133 147.711 122.289 147.647 122.403 147.532C122.518 147.418 122.582 147.262 122.582 147.1C122.582 146.938 122.518 146.783 122.403 146.668C122.289 146.554 122.133 146.489 121.971 146.489H100.481C100.319 146.489 100.164 146.554 100.049 146.668C99.9345 146.783 99.8701 146.938 99.8701 147.1C99.8701 147.262 99.9345 147.418 100.049 147.532C100.164 147.647 100.319 147.711 100.481 147.711Z" fill="#495375"/>
<path d="M159.575 115.498H102.156C103.427 116.769 105.151 117.483 106.948 117.483H154.26C156.213 117.483 158.1 116.778 159.575 115.498Z" fill="#D48A0A"/>
<path d="M194.021 93.4992H211.131V82.5342H207.417C204.229 82.534 201.079 83.2327 198.19 84.5812L195.441 85.8632C194.584 86.2618 193.895 86.9484 193.493 87.8033C193.091 88.6583 193.002 89.6272 193.241 90.5412L194.021 93.4992Z" fill="#FBAB1E"/>
<path d="M212.93 82.5342H211.131V93.4992H212.93V82.5342Z" fill="#F2C8C2"/>
<path d="M213.847 82.5342H212.93V93.4992H213.847V82.5342Z" fill="white"/>
<path d="M75.1046 113.927C74.9927 113.812 74.9305 113.657 74.9317 113.496C74.9328 113.336 74.997 113.182 75.1106 113.069C75.2241 112.955 75.3778 112.891 75.5384 112.89C75.6989 112.889 75.8535 112.951 75.9686 113.063L81.0856 118.18H79.3576L75.1046 113.927Z" fill="#C7D2D7"/>
<path d="M81.0883 118.181L89.3773 126.47C89.4893 126.585 89.5514 126.739 89.5503 126.9C89.5492 127.06 89.4849 127.214 89.3714 127.328C89.2578 127.441 89.1041 127.505 88.9436 127.507C88.783 127.508 88.6285 127.446 88.5134 127.334L79.3604 118.181H81.0883Z" fill="white"/>
<path d="M106.121 120.506H140.563C140.827 120.497 141.078 120.386 141.263 120.196C141.447 120.006 141.55 119.752 141.55 119.487C141.55 119.222 141.447 118.968 141.263 118.778C141.078 118.588 140.827 118.477 140.563 118.469H106.123C104.913 118.472 103.714 118.234 102.596 117.771C101.479 117.308 100.464 116.627 99.6109 115.769C98.569 114.721 97.3297 113.891 95.9648 113.325C94.5998 112.76 93.1363 112.471 91.6589 112.475H58.1629C57.8983 112.483 57.6473 112.594 57.463 112.784C57.2788 112.974 57.1758 113.228 57.1758 113.493C57.1758 113.758 57.2788 114.012 57.463 114.202C57.6473 114.392 57.8983 114.503 58.1629 114.512H91.6629C92.8729 114.509 94.0716 114.746 95.1894 115.209C96.3072 115.673 97.3219 116.353 98.1749 117.212C99.216 118.258 100.454 119.088 101.818 119.654C103.182 120.219 104.644 120.509 106.121 120.506Z" fill="white"/>
<path d="M202.577 93.5H194.022L194.222 94.423H202.841L202.577 93.5Z" fill="#D48A0A"/>
<path d="M103.849 67.9355H43.6299V112.476H103.849V67.9355Z" fill="#F0BF6C"/>
<path d="M105.573 60.6699H41.9062V67.9359H105.573V60.6699Z" fill="#F0BF6C"/>
<path d="M103.849 67.9355H43.6299V71.4665H103.849V67.9355Z" fill="#EBA25D"/>
<path d="M149.322 96.5889L178.108 105.189C179.596 105.633 180.962 106.412 182.103 107.465C183.243 108.518 184.128 109.817 184.689 111.265C185.251 112.712 185.474 114.268 185.341 115.815C185.209 117.362 184.725 118.858 183.926 120.189L164.206 153.069L153.006 148.098L169.106 117.484L136.321 110.632C134.827 110.319 133.416 109.692 132.183 108.791C130.95 107.891 129.923 106.738 129.17 105.409C128.417 104.08 127.957 102.607 127.819 101.086C127.68 99.5652 127.868 98.0324 128.368 96.5899H149.326L149.322 96.5889Z" fill="#454F6B"/>
<path d="M154.455 150.388L155.296 149.115L161.662 151.94L160.162 154.668L153.062 152.676C153.5 151.897 153.955 151.132 154.455 150.388Z" fill="#F2C9AD"/>
<path d="M156.203 155.881L156.796 157.391L156.005 156.834C155.691 156.613 155.317 156.494 154.934 156.494H151.217C151.758 155.186 152.375 153.91 153.066 152.675L160.166 154.667L159.737 155.447H156.504C156.452 155.446 156.4 155.458 156.354 155.482C156.307 155.506 156.267 155.541 156.238 155.584C156.208 155.626 156.189 155.676 156.183 155.728C156.177 155.78 156.184 155.832 156.203 155.881Z" fill="white"/>
<path d="M164.36 162.381H149.321L149.595 161.318C150.021 159.674 150.563 158.062 151.215 156.494H154.932C155.316 156.495 155.69 156.613 156.003 156.834L156.794 157.391L156.201 155.881C156.182 155.833 156.175 155.78 156.181 155.728C156.187 155.676 156.206 155.627 156.235 155.584C156.265 155.541 156.305 155.506 156.351 155.482C156.397 155.458 156.449 155.446 156.501 155.446H159.734L162.123 157.691C163.206 158.709 164.637 159.275 166.123 159.274H167.751C168.509 159.275 169.252 159.479 169.903 159.866C170.555 160.253 171.089 160.809 171.451 161.474L168.351 162.026C167.034 162.262 165.698 162.381 164.36 162.381Z" fill="#422C4F"/>
<path d="M164.36 162.382C165.697 162.382 167.031 162.264 168.346 162.03L171.447 161.478C171.761 162.051 171.937 162.691 171.959 163.345L167.221 163.774C166.472 163.84 165.721 163.874 164.968 163.874H148.938L149.322 162.38L164.36 162.382Z" fill="white"/>
<path d="M155.293 149.114L161.659 151.939L160.971 153.191L154.039 151.028L155.293 149.114Z" fill="#422C4F"/>
<path d="M155.709 45.6634L156.581 40.7194C156.722 39.9176 157.142 39.1913 157.765 38.6679C158.389 38.1445 159.177 37.8575 159.991 37.8574H164.951L164.508 40.2044C164.188 41.9044 164.219 43.652 164.6 45.3394L164.817 46.2984C164.839 46.3936 164.839 46.4923 164.817 46.5874C164.795 46.6825 164.752 46.7715 164.691 46.8477C164.63 46.9239 164.553 46.9854 164.465 47.0276C164.377 47.0698 164.281 47.0916 164.183 47.0914H163.183C162.879 48.1759 162.314 49.1693 161.537 49.9846C160.761 50.7999 159.796 51.4123 158.727 51.7681C157.659 52.1239 156.519 52.2123 155.409 52.0254C154.298 51.8386 153.25 51.3823 152.357 50.6964L146.206 45.9714L149.471 48.2524C150.023 48.6371 150.663 48.8766 151.332 48.9489C152.001 49.0212 152.677 48.9238 153.299 48.6659C153.92 48.408 154.467 47.9977 154.888 47.473C155.309 46.9483 155.592 46.326 155.709 45.6634Z" fill="#F2C9AD"/>
<path d="M165.27 36.1641L164.95 37.8581H159.99C159.176 37.8582 158.388 38.1451 157.764 38.6685C157.141 39.1919 156.721 39.9183 156.58 40.7201L155.708 45.6641C155.591 46.3273 155.309 46.9504 154.888 47.4758C154.466 48.0012 153.919 48.4119 153.297 48.6701C152.675 48.9282 151.998 49.0254 151.328 48.9527C150.659 48.88 150.018 48.6397 149.466 48.2541L146.201 45.9731V36.1651L165.27 36.1641Z" fill="#EBA58E"/>
<path d="M146.201 45.9707L152.353 50.6957L151.534 53.0457L146.201 45.9707Z" fill="#422C4F"/>
<path d="M141.896 52.4957L146.202 45.9707L151.535 53.0447L150.135 57.0447L141.896 52.4957Z" fill="#F2C9AD"/>
<path d="M161.251 41.7583C161.158 42.3243 161.33 42.8233 161.635 42.8733C161.94 42.9233 162.263 42.5053 162.356 41.9403C162.449 41.3753 162.277 40.8753 161.972 40.8253C161.667 40.7753 161.344 41.1933 161.251 41.7583Z" fill="#422C4F"/>
<path d="M162.709 39.7671C162.468 39.6281 162.192 39.5609 161.914 39.5735C161.636 39.5861 161.368 39.6779 161.14 39.8381C160.662 40.1551 160.217 39.3861 160.692 39.0711C161.057 38.8322 161.48 38.6991 161.915 38.6865C162.351 38.674 162.781 38.7826 163.158 39.0001C163.26 39.0595 163.334 39.1569 163.364 39.2708C163.394 39.3848 163.377 39.5059 163.318 39.6076C163.258 39.7093 163.161 39.7833 163.047 39.8132C162.933 39.8431 162.812 39.8265 162.71 39.7671H162.709Z" fill="#422C4F"/>
<path opacity="0.3" d="M155.941 44.3431L155.708 45.6611C155.537 46.6285 155.016 47.4992 154.245 48.1076C153.474 48.7161 152.506 49.0198 151.525 48.9611L154.096 43.8281L155.941 44.3431Z" fill="#422C4F"/>
<path d="M152.354 47.0583L154.232 52.4123C154.246 52.4529 154.25 52.4966 154.243 52.5391C154.236 52.5816 154.218 52.6216 154.191 52.6553C154.164 52.6889 154.129 52.7152 154.089 52.7314C154.049 52.7477 154.005 52.7535 153.963 52.7483C153.27 52.6658 152.606 52.4229 152.024 52.0389C151.442 51.6549 150.957 51.1404 150.609 50.5363L148.226 46.4043L152.354 47.0583Z" fill="#454F6B"/>
<path d="M154.19 38.8771L153.154 44.7441C153.113 44.9791 153.02 45.2021 152.883 45.3973C152.746 45.5925 152.567 45.7552 152.36 45.874C152.153 45.9927 151.923 46.0646 151.685 46.0845C151.447 46.1044 151.208 46.0718 150.984 45.9891L140.784 42.2111V34.9111C140.784 31.3087 142.215 27.8538 144.763 25.3065C147.31 22.7592 150.765 21.3281 154.367 21.3281C157.898 21.3286 161.29 22.7044 163.824 25.1638C166.357 27.6232 167.834 30.9727 167.939 34.5021H159.405C158.161 34.503 156.956 34.9418 156.002 35.7417C155.049 36.5417 154.407 37.6516 154.19 38.8771Z" fill="#FBAB1E"/>
<path d="M145.93 32.3563C146.266 32.3568 146.595 32.2653 146.881 32.0918C147.168 31.9183 147.402 31.6694 147.557 31.3723C148.204 30.1249 149.182 29.0792 150.383 28.3498C151.584 27.6204 152.962 27.2352 154.367 27.2363C154.854 27.2363 155.32 27.0432 155.664 26.6994C156.007 26.3557 156.2 25.8895 156.2 25.4033C156.2 24.9172 156.007 24.4509 155.664 24.1072C155.32 23.7634 154.854 23.5703 154.367 23.5703C152.293 23.5677 150.257 24.1352 148.483 25.211C146.709 26.2868 145.265 27.8294 144.308 29.6703C144.163 29.9496 144.092 30.2617 144.102 30.5766C144.112 30.8914 144.202 31.1983 144.366 31.4678C144.529 31.7373 144.758 31.9603 145.033 32.1152C145.307 32.2701 145.616 32.3518 145.931 32.3523L145.93 32.3563Z" fill="white"/>
<path d="M159.976 29.0434C160.362 29.0438 160.739 28.9217 161.053 28.6948C161.366 28.4678 161.599 28.1476 161.719 27.78C161.84 27.4123 161.84 27.0161 161.722 26.6479C161.603 26.2798 161.371 25.9586 161.059 25.7304L160.974 25.6684C160.578 25.3852 160.087 25.2705 159.607 25.3497C159.127 25.4288 158.699 25.6953 158.416 26.0904C158.132 26.4856 158.018 26.9771 158.097 27.4568C158.176 27.9365 158.442 28.3652 158.838 28.6484L158.896 28.6894C159.209 28.9194 159.587 29.0434 159.976 29.0434Z" fill="white"/>
<path d="M150.983 45.986C151.207 46.0687 151.446 46.1013 151.684 46.0814C151.922 46.0615 152.152 45.9896 152.359 45.8709C152.566 45.7521 152.745 45.5894 152.882 45.3942C153.019 45.199 153.112 44.976 153.153 44.741L154.189 38.874C154.406 37.6485 155.048 36.5386 156.002 35.7386C156.955 34.9387 158.16 34.4999 159.404 34.499H167.937C167.937 34.635 167.947 34.771 167.947 34.908V36.164H159.856C158.899 36.164 157.971 36.5014 157.238 37.117C156.504 37.7325 156.011 38.5869 155.844 39.53L154.817 45.351C154.731 45.8371 154.536 46.2973 154.247 46.697C153.957 47.0967 153.581 47.4254 153.145 47.6582C152.71 47.8911 152.228 48.0221 151.735 48.0413C151.241 48.0604 150.75 47.9674 150.298 47.769L141.756 44.023C141.466 43.8959 141.22 43.6872 141.047 43.4222C140.873 43.1572 140.781 42.8476 140.781 42.531V42.209L150.983 45.986Z" fill="#D48A0A"/>
<path d="M151.82 93.4567L149.32 82.5347L152.906 62.8897C153.114 61.7489 152.959 60.5716 152.462 59.5239C151.965 58.4762 151.151 57.6111 150.136 57.0507L141.893 52.4977C141.366 52.2063 140.762 52.0829 140.163 52.1442C139.563 52.2056 138.997 52.4486 138.54 52.8407C131.749 58.661 127.5 66.9037 126.699 75.8117L125.146 93.0687C125.106 93.5151 125.159 93.965 125.302 94.3897C125.445 94.8145 125.675 95.2047 125.978 95.5356C126.28 95.8665 126.648 96.1307 127.058 96.3115C127.468 96.4923 127.912 96.5857 128.36 96.5857H149.318C149.703 96.5862 150.083 96.5 150.43 96.3334C150.777 96.1669 151.082 95.9243 151.322 95.6237C151.563 95.3231 151.732 94.9721 151.818 94.597C151.905 94.2218 151.905 93.8321 151.82 93.4567Z" fill="#A7C521"/>
<path d="M139.39 60.6631L139.32 60.9301C138.892 62.5793 138.825 64.3016 139.125 65.979C139.424 67.6564 140.083 69.2491 141.056 70.6481L149.322 82.5341L151.002 73.3281L139.39 60.6631Z" fill="#7F980E"/>
<path d="M150.91 54.833L153.175 56.004L150.91 58.448L150.137 57.048L150.91 54.833Z" fill="#A7C521"/>
<path d="M153.175 56.0049L153.689 60.1809L151.356 57.9689L153.175 56.0049Z" fill="#7F980E"/>
<path d="M140.56 52.1287L142.96 50.0117L151.531 54.6967L150.36 59.6527L140.56 52.1287Z" fill="#CAE552"/>
<path d="M188.956 86.9062H195.349C195.921 86.9063 196.469 87.1333 196.873 87.5374C197.277 87.9416 197.504 88.4897 197.504 89.0612V93.0553C197.504 93.6268 197.277 94.1749 196.873 94.5791C196.469 94.9832 195.921 95.2103 195.349 95.2103H190.174V93.6212C189.402 93.6213 188.637 93.4693 187.924 93.1738C187.211 92.8783 186.562 92.4452 186.016 91.8992L185.239 91.1223L188.956 86.9062Z" fill="#F2C9AD"/>
<path d="M188.955 86.9059L185.237 91.1219L169.272 87.4109L171.48 81.5049L188.955 86.9059Z" fill="#F2C9AD"/>
<path d="M171.482 81.5049L172.261 81.7459L172.513 88.1649L169.273 87.4119L171.482 81.5049Z" fill="#EBA58E"/>
<path d="M140.915 58.6617C141.928 57.8666 143.209 57.4925 144.492 57.6173C145.774 57.7421 146.959 58.3561 147.8 59.3317L164.361 78.5407L167.354 79.5497L164.573 86.9867L163.003 86.6467C160.519 86.1077 158.255 84.835 156.503 82.9937L140.383 66.0547C139.902 65.5494 139.531 64.949 139.295 64.2922C139.06 63.6354 138.964 62.9366 139.014 62.2405C139.064 61.5445 139.259 60.8666 139.586 60.2503C139.914 59.634 140.366 59.0929 140.915 58.6617Z" fill="#A7C521"/>
<path d="M164.485 87.2239L164.574 86.9869L167.355 79.5498L167.63 78.8138C167.668 78.7136 167.724 78.6217 167.797 78.5434C167.87 78.4651 167.958 78.4019 168.056 78.3575C168.153 78.3131 168.258 78.2884 168.365 78.2847C168.472 78.281 168.579 78.2983 168.679 78.3359L171.416 79.3588C171.516 79.3962 171.608 79.453 171.687 79.526C171.765 79.599 171.828 79.6867 171.873 79.7842C171.917 79.8816 171.942 79.9869 171.946 80.0939C171.949 80.2009 171.932 80.3076 171.894 80.4078L171.671 81.0078L169.071 87.9638L168.75 88.8209C168.713 88.9211 168.656 89.013 168.583 89.0913C168.51 89.1695 168.422 89.2327 168.325 89.2771C168.228 89.3215 168.123 89.3462 168.016 89.35C167.909 89.3537 167.802 89.3363 167.702 89.2988L164.965 88.2758C164.864 88.2386 164.772 88.1818 164.693 88.1086C164.614 88.0355 164.551 87.9475 164.506 87.8497C164.462 87.7519 164.437 87.6463 164.433 87.5389C164.429 87.4315 164.447 87.3244 164.485 87.2239Z" fill="#7F980E"/>
<path d="M146.753 60.1317C146.005 59.2644 144.985 58.6771 143.859 58.4663C142.734 58.2555 141.57 58.4337 140.56 58.9717C140.673 58.8647 140.789 58.7597 140.915 58.6607C141.928 57.8656 143.209 57.4916 144.491 57.6163C145.773 57.7411 146.958 58.3551 147.8 59.3307L164.359 78.5407L167.352 79.5497L166.906 80.7437L163.544 79.6107L146.753 60.1317Z" fill="#C7E458"/>
<path d="M188.074 93.6115C187.959 93.4003 187.802 93.214 187.615 93.0631C187.427 92.9123 187.212 92.7999 186.981 92.7324C186.75 92.6648 186.508 92.6435 186.268 92.6696C186.029 92.6957 185.797 92.7687 185.586 92.8845H185.579C185.616 92.8605 185.648 92.8315 185.687 92.8095L189.787 90.5635C190.213 90.3298 190.715 90.2751 191.182 90.4113C191.648 90.5476 192.042 90.8636 192.276 91.29C192.509 91.7163 192.564 92.218 192.428 92.6847C192.291 93.1514 191.975 93.5448 191.549 93.7785L187.456 96.0215C187.844 95.7721 188.124 95.385 188.239 94.9379C188.353 94.4909 188.295 94.017 188.074 93.6115Z" fill="#422C4F"/>
<path d="M186.57 96.256C186.174 96.257 185.789 96.1297 185.472 95.8932C185.155 95.6566 184.923 95.3236 184.812 94.9442C184.7 94.5647 184.714 94.1593 184.853 93.7887C184.991 93.4182 185.246 93.1025 185.579 92.8891H185.586C186.001 92.662 186.489 92.6049 186.945 92.7298C187.402 92.8546 187.792 93.1516 188.034 93.5584C188.277 93.9652 188.352 94.45 188.244 94.911C188.136 95.3719 187.853 95.773 187.456 96.03H187.449C187.18 96.1782 186.877 96.2559 186.57 96.256Z" fill="#495375"/>
<path d="M71.6601 183.772C70.8211 181.038 70.3821 179.872 64.7661 179.402C63.2291 179.272 61.6831 179.785 60.1511 179.611C58.6191 179.437 56.9861 178.37 56.9641 176.828C56.9401 175.176 58.7451 173.709 58.2091 172.147C57.8091 170.994 56.3621 170.608 55.1451 170.679C53.9281 170.75 52.6741 171.093 51.5201 170.703C50.8307 170.41 50.2378 169.929 49.8093 169.314C49.3808 168.7 49.134 167.977 49.0971 167.228C49.0469 165.73 49.3304 164.239 49.9271 162.863C50.5234 161.492 50.9389 160.049 51.1631 158.57C51.4521 155.406 49.6331 152.37 47.2531 150.26C43.9178 147.339 39.5678 145.845 35.1411 146.1C30.8651 146.368 25.6161 147.975 23.1701 151.737C21.7283 153.979 21.2194 156.695 21.7521 159.306C22.122 160.357 22.2376 161.481 22.0891 162.585C21.6511 164.151 19.9351 164.921 18.4221 165.516C16.9091 166.111 15.2051 166.962 14.8781 168.554C14.8093 169.29 14.9662 170.029 15.3277 170.673C15.6893 171.317 16.2384 171.836 16.9021 172.16C18.2386 172.783 19.6374 173.261 21.0751 173.587C21.794 173.755 22.4714 174.067 23.0659 174.505C23.6604 174.943 24.1596 175.497 24.5331 176.133C25.0651 177.275 24.9101 178.633 25.3721 179.805C26.1521 181.786 28.5591 182.724 30.6721 182.472C32.7708 182.069 34.7453 181.178 36.4371 179.872C37.2882 179.24 38.2232 178.73 39.2151 178.355C39.7128 178.172 40.2447 178.099 40.7736 178.142C41.3025 178.185 41.8156 178.343 42.2771 178.604C43.3871 179.322 43.9711 180.85 45.2651 181.121C46.5201 181.384 47.6071 180.311 48.5601 179.453C49.5131 178.595 51.0421 177.879 51.9801 178.753C52.3343 179.191 52.6078 179.687 52.7881 180.22C53.7751 182.204 56.3451 182.858 58.5471 182.612C60.7491 182.366 62.8391 181.458 65.0471 181.234C67.2551 181.01 71.1141 181.992 71.6601 183.772Z" fill="#FBEED1"/>
<path d="M17.5771 177.965C16.6206 177.667 15.6001 177.64 14.629 177.887C13.658 178.134 12.7746 178.646 12.0771 179.365C11.2031 180.293 10.7032 181.791 11.4352 182.834C11.788 183.237 12.2477 183.531 12.7609 183.683C13.2742 183.835 13.82 183.839 14.3351 183.693C15.3583 183.387 16.365 183.027 17.3512 182.616C17.8473 182.415 18.3838 182.332 18.9177 182.375C19.4515 182.418 19.9678 182.586 20.4252 182.864C20.6199 183.043 20.8335 183.201 21.0622 183.333C22.5622 184.015 20.9052 181.169 20.7132 180.782C20.4028 180.129 19.9658 179.543 19.4275 179.06C18.8892 178.576 18.2602 178.204 17.5771 177.965Z" fill="#FBEED1"/>
<path d="M2.84863 162.234C2.37212 162.096 1.86483 162.108 1.39502 162.267C0.925213 162.426 0.515415 162.725 0.220644 163.124C-0.0225802 163.652 -0.0663646 164.249 0.0974753 164.806C0.261315 165.364 0.621656 165.842 1.11164 166.154C2.28664 166.984 6.39666 167.873 7.25666 166.079C7.94266 164.646 4.07563 162.521 2.84863 162.234Z" fill="#FBEED1"/>
<path d="M16.8116 159.736C16.692 159.929 16.5315 160.094 16.3415 160.218C16.1514 160.342 15.9364 160.423 15.7117 160.455C15.2631 160.517 14.8078 160.512 14.3606 160.44C13.5616 160.408 12.7782 160.208 12.0607 159.855C11.7051 159.671 11.4144 159.383 11.2276 159.029C11.0408 158.675 10.9668 158.273 11.0156 157.875C11.6656 154.908 18.2426 157.093 16.8116 159.736Z" fill="#FBEED1"/>
<path d="M55.4657 143.757C55.8319 143.892 56.1506 144.131 56.3817 144.446C56.6129 144.76 56.7465 145.135 56.7657 145.525C56.7344 145.814 56.6327 146.09 56.4697 146.33C56.3067 146.57 56.0873 146.767 55.8307 146.902C55.3142 147.168 54.7428 147.311 54.1617 147.318C53.4352 147.421 52.6974 147.234 52.1077 146.797C51.7977 146.45 51.5293 146.068 51.3077 145.659C50.8286 144.965 50.1246 144.457 49.3147 144.222C48.8427 144.087 48.1207 143.953 48.1057 143.332C48.0907 142.711 48.9287 142.272 49.4497 142.158C49.9225 142.095 50.4032 142.186 50.8197 142.419C51.4889 142.731 52.1847 142.983 52.8987 143.171C53.7708 143.286 54.6302 143.482 55.4657 143.757Z" fill="#FBEED1"/>
<path d="M158.053 27.7266H91.1689V29.0436H158.053V27.7266Z" fill="url(#paint0_linear_169_1463)"/>
<path d="M150.151 30.3506H83.2666V31.6676H150.151V30.3506Z" fill="url(#paint1_linear_169_1463)"/>
<path d="M204.749 130.134H137.865V131.451H204.749V130.134Z" fill="url(#paint2_linear_169_1463)"/>
<path d="M196.846 132.758H129.962V134.075H196.846V132.758Z" fill="url(#paint3_linear_169_1463)"/>
<path d="M149.279 58.9941H82.3945V60.3111H149.279V58.9941Z" fill="url(#paint4_linear_169_1463)"/>
<path d="M145.57 56.3916H53.7852V57.7086H145.57V56.3916Z" fill="url(#paint5_linear_169_1463)"/>
<path d="M155.821 53.5156H64.0352V54.8326H155.821V53.5156Z" fill="url(#paint6_linear_169_1463)"/>
<path d="M196.134 90.0986H129.25V91.4156H196.134V90.0986Z" fill="url(#paint7_linear_169_1463)"/>
<path d="M192.428 87.4951H100.642V88.8121H192.428V87.4951Z" fill="url(#paint8_linear_169_1463)"/>
<path d="M202.676 84.6182H110.891V85.9352H202.676V84.6182Z" fill="url(#paint9_linear_169_1463)"/>
<path d="M90.5842 129.594H23.7002V130.911H90.5842V129.594Z" fill="url(#paint10_linear_169_1463)"/>
<path d="M106.317 126.99H14.5322V128.307H106.317V126.99Z" fill="url(#paint11_linear_169_1463)"/>
<path d="M116.567 124.114H24.7812V125.431H116.567V124.114Z" fill="url(#paint12_linear_169_1463)"/>
<defs>
<linearGradient id="paint0_linear_169_1463" x1="158.053" y1="28.3851" x2="91.1689" y2="28.3851" gradientUnits="userSpaceOnUse">
<stop stop-color="#7FCBD0" stop-opacity="0"/>
<stop offset="0.544" stop-color="#7FCBD0"/>
<stop offset="0.988" stop-color="#7FCBD0" stop-opacity="0"/>
</linearGradient>
<linearGradient id="paint1_linear_169_1463" x1="150.151" y1="31.0091" x2="83.2666" y2="31.0091" gradientUnits="userSpaceOnUse">
<stop stop-color="#7FCBD0" stop-opacity="0"/>
<stop offset="0.544" stop-color="#7FCBD0"/>
<stop offset="0.988" stop-color="#7FCBD0" stop-opacity="0"/>
</linearGradient>
<linearGradient id="paint2_linear_169_1463" x1="204.749" y1="130.792" x2="137.865" y2="130.792" gradientUnits="userSpaceOnUse">
<stop stop-color="#7FCBD0" stop-opacity="0"/>
<stop offset="0.544" stop-color="#7FCBD0"/>
<stop offset="0.988" stop-color="#7FCBD0" stop-opacity="0"/>
</linearGradient>
<linearGradient id="paint3_linear_169_1463" x1="196.846" y1="133.416" x2="129.962" y2="133.416" gradientUnits="userSpaceOnUse">
<stop stop-color="#7FCBD0" stop-opacity="0"/>
<stop offset="0.544" stop-color="#7FCBD0"/>
<stop offset="0.988" stop-color="#7FCBD0" stop-opacity="0"/>
</linearGradient>
<linearGradient id="paint4_linear_169_1463" x1="149.279" y1="59.6526" x2="82.3945" y2="59.6526" gradientUnits="userSpaceOnUse">
<stop stop-color="#7FCBD0" stop-opacity="0"/>
<stop offset="0.544" stop-color="#7FCBD0"/>
<stop offset="0.988" stop-color="#7FCBD0" stop-opacity="0"/>
</linearGradient>
<linearGradient id="paint5_linear_169_1463" x1="145.57" y1="57.0501" x2="53.7852" y2="57.0501" gradientUnits="userSpaceOnUse">
<stop stop-color="#7FCBD0" stop-opacity="0"/>
<stop offset="0.544" stop-color="#7FCBD0"/>
<stop offset="0.988" stop-color="#7FCBD0" stop-opacity="0"/>
</linearGradient>
<linearGradient id="paint6_linear_169_1463" x1="155.821" y1="54.1741" x2="64.0352" y2="54.1741" gradientUnits="userSpaceOnUse">
<stop stop-color="#7FCBD0" stop-opacity="0"/>
<stop offset="0.544" stop-color="#7FCBD0"/>
<stop offset="0.988" stop-color="#7FCBD0" stop-opacity="0"/>
</linearGradient>
<linearGradient id="paint7_linear_169_1463" x1="196.134" y1="90.7571" x2="129.25" y2="90.7571" gradientUnits="userSpaceOnUse">
<stop stop-color="#7FCBD0" stop-opacity="0"/>
<stop offset="0.544" stop-color="#7FCBD0"/>
<stop offset="0.988" stop-color="#7FCBD0" stop-opacity="0"/>
</linearGradient>
<linearGradient id="paint8_linear_169_1463" x1="192.428" y1="88.1536" x2="100.642" y2="88.1536" gradientUnits="userSpaceOnUse">
<stop stop-color="#7FCBD0" stop-opacity="0"/>
<stop offset="0.544" stop-color="#7FCBD0"/>
<stop offset="0.988" stop-color="#7FCBD0" stop-opacity="0"/>
</linearGradient>
<linearGradient id="paint9_linear_169_1463" x1="202.676" y1="85.2767" x2="110.891" y2="85.2767" gradientUnits="userSpaceOnUse">
<stop stop-color="#7FCBD0" stop-opacity="0"/>
<stop offset="0.544" stop-color="#7FCBD0"/>
<stop offset="0.988" stop-color="#7FCBD0" stop-opacity="0"/>
</linearGradient>
<linearGradient id="paint10_linear_169_1463" x1="90.5842" y1="130.252" x2="23.7002" y2="130.252" gradientUnits="userSpaceOnUse">
<stop stop-color="#7FCBD0" stop-opacity="0"/>
<stop offset="0.544" stop-color="#7FCBD0"/>
<stop offset="0.988" stop-color="#7FCBD0" stop-opacity="0"/>
</linearGradient>
<linearGradient id="paint11_linear_169_1463" x1="106.317" y1="127.649" x2="14.5322" y2="127.649" gradientUnits="userSpaceOnUse">
<stop stop-color="#7FCBD0" stop-opacity="0"/>
<stop offset="0.544" stop-color="#7FCBD0"/>
<stop offset="0.988" stop-color="#7FCBD0" stop-opacity="0"/>
</linearGradient>
<linearGradient id="paint12_linear_169_1463" x1="116.567" y1="124.773" x2="24.7812" y2="124.773" gradientUnits="userSpaceOnUse">
<stop stop-color="#7FCBD0" stop-opacity="0"/>
<stop offset="0.544" stop-color="#7FCBD0"/>
<stop offset="0.988" stop-color="#7FCBD0" stop-opacity="0"/>
</linearGradient>
</defs>
</svg>
