<svg width="23" height="23" viewBox="0 0 23 23" fill="none" xmlns="http://www.w3.org/2000/svg">
<path d="M0 5.71406L11.5 0L23 5.71406V6.46875L11.5 12.1828L0 6.48672V5.71406Z" fill="#EFC75E"/>
<path d="M0 5.71289L11.5 11.427L23 5.71289V17.159L11.4641 22.873L0 17.159V5.71289Z" fill="#E7BF55"/>
<path d="M11.5 22.8562V11.4281L0.071875 5.75H0V17.1602L11.4641 22.8742L11.5 22.8562Z" fill="#DBB551"/>
<path d="M4.68994 3.39707L16.172 9.11113L18.5079 7.96113L6.98994 2.24707L4.68994 3.39707Z" fill="#F7E3AF"/>
<path d="M16.1714 9.10996L18.5073 7.95996V11.5537L17.8784 11.4459L17.2136 12.2545L16.1714 12.1826V9.10996Z" fill="#F1D999"/>
<path d="M9.12812 15.9918L5.24688 14.0512C5.03125 13.9434 4.85156 14.0692 4.85156 14.3387V16.9442C4.85156 17.2137 5.03125 17.5192 5.24688 17.627L9.14609 19.5676C9.36172 19.6754 9.54141 19.5496 9.54141 19.2801V16.6567C9.52344 16.3871 9.34375 16.0996 9.12812 15.9918ZM8.24766 18.1301L5.76797 16.8903C5.66016 16.8364 5.57031 16.6746 5.57031 16.5309C5.57031 16.3871 5.66016 16.3153 5.76797 16.3692L8.24766 17.609C8.35547 17.6629 8.44531 17.8246 8.44531 17.9684C8.44531 18.1121 8.35547 18.184 8.24766 18.1301ZM8.60703 17.2317L5.76797 15.7942C5.66016 15.7403 5.57031 15.5785 5.57031 15.4348C5.57031 15.291 5.66016 15.2192 5.76797 15.2731L8.60703 16.7106C8.71484 16.7645 8.80469 16.9262 8.80469 17.07C8.80469 17.2317 8.71484 17.2856 8.60703 17.2317Z" fill="#F2F2F2"/>
</svg>
