<svg xmlns="http://www.w3.org/2000/svg" xmlns:xlink="http://www.w3.org/1999/xlink" width="428" height="926" viewBox="0 0 428 926">
  <defs>
    <clipPath id="clip-Splash_1">
      <rect width="428" height="926"/>
    </clipPath>
  </defs>
  <g id="Splash_1" data-name="Splash – 1" clip-path="url(#clip-Splash_1)">
    <rect width="428" height="926" fill="#fff"/>
    <g id="logo_background_shape" transform="translate(-279 -30.586)" opacity="0.07">
      <g id="Ellipse_62" data-name="Ellipse 62" transform="translate(435.293 435.879)" fill="none" stroke="#b1b1b1" stroke-width="32.557" stroke-dasharray="0 0">
        <circle cx="57.414" cy="57.414" r="57.414" stroke="none"/>
        <circle cx="57.414" cy="57.414" r="73.692" fill="none"/>
      </g>
      <g id="Ellipse_63" data-name="Ellipse 63" transform="translate(352.687 353.273)" fill="none" stroke="#b1b1b1" stroke-width="32.557" stroke-dasharray="0 0">
        <circle cx="140.313" cy="140.313" r="140.313" stroke="none"/>
        <circle cx="140.313" cy="140.313" r="156.591" fill="none"/>
      </g>
      <g id="Ellipse_64" data-name="Ellipse 64" transform="translate(280.04 280.626)" fill="none" stroke="#b1b1b1" stroke-width="32.557" stroke-dasharray="0 0">
        <circle cx="212.667" cy="212.667" r="212.667" stroke="none"/>
        <circle cx="212.667" cy="212.667" r="228.945" fill="none"/>
      </g>
      <g id="Ellipse_65" data-name="Ellipse 65" transform="translate(190.404 190.404)" fill="none" stroke="#b1b1b1" stroke-width="23.255" stroke-dasharray="0 0">
        <ellipse cx="302.596" cy="302.889" rx="302.596" ry="302.889" stroke="none"/>
        <ellipse cx="302.596" cy="302.889" rx="314.223" ry="314.516" fill="none"/>
      </g>
      <g id="Ellipse_66" data-name="Ellipse 66" transform="translate(118.343 118.343)" fill="none" stroke="#b1b1b1" stroke-width="41.858" stroke-dasharray="0 0">
        <ellipse cx="374.657" cy="374.949" rx="374.657" ry="374.949" stroke="none"/>
        <ellipse cx="374.657" cy="374.949" rx="395.586" ry="395.879" fill="none"/>
      </g>
      <g id="Ellipse_67" data-name="Ellipse 67" fill="none" stroke="#b1b1b1" stroke-width="69.764" stroke-dasharray="0 0">
        <ellipse cx="493" cy="493.586" rx="493" ry="493.586" stroke="none"/>
        <ellipse cx="493" cy="493.586" rx="527.882" ry="528.468" fill="none"/>
      </g>
    </g>
    <g id="Group_65" data-name="Group 65" transform="translate(-10 -209.957)" opacity="0.6">
      <circle id="Ellipse_5" data-name="Ellipse 5" cx="5.567" cy="5.567" r="5.567" transform="translate(782.531 268.836) rotate(180)" fill="#a7c521"/>
      <circle id="Ellipse_16" data-name="Ellipse 16" cx="3.976" cy="3.976" r="3.976" transform="translate(470.777 502.651) rotate(180)" fill="#a7c521"/>
      <circle id="Ellipse_11" data-name="Ellipse 11" cx="5.567" cy="5.567" r="5.567" transform="translate(284.679 917.792) rotate(180)" fill="#a7c521"/>
      <rect id="Rectangle_2" data-name="Rectangle 2" width="2.406" height="2.406" rx="0.27" transform="translate(432.604 745.603) rotate(155.552)" fill="#a7c521"/>
      <rect id="Rectangle_6" data-name="Rectangle 6" width="4.827" height="4.827" rx="0.543" transform="translate(908.186 265.248) rotate(155.552)" fill="#a7c521"/>
      <rect id="Rectangle_8" data-name="Rectangle 8" width="4.827" height="4.827" rx="0.543" transform="translate(54.046 4.394) rotate(155.552)" fill="#a7c521"/>
      <rect id="Rectangle_3" data-name="Rectangle 3" width="4.187" height="4.187" rx="0.492" transform="translate(733.597 673.588) rotate(-144.694)" fill="#a7c521"/>
      <rect id="Rectangle_4" data-name="Rectangle 4" width="4.984" height="4.984" rx="0.632" transform="translate(614.695 303.94) rotate(-149.546)" fill="#a7c521"/>
      <rect id="Rectangle_5" data-name="Rectangle 5" width="4.984" height="4.984" rx="0.632" transform="translate(98.582 128.394) rotate(155.552)" fill="#a7c521"/>
      <rect id="Rectangle_7" data-name="Rectangle 7" width="4.984" height="4.984" rx="0.632" transform="translate(50.866 817.113) rotate(155.552)" fill="#a7c521"/>
      <path id="Polygon_1" data-name="Polygon 1" d="M2.929.827a.552.552,0,0,1,.955,0l2,3.456A.552.552,0,0,1,5.4,5.11H1.412a.552.552,0,0,1-.478-.827Z" transform="translate(2010.796 79.564) rotate(-62.224)" fill="#a7c521"/>
      <path id="Polygon_10" data-name="Polygon 10" d="M2.929.827a.552.552,0,0,1,.955,0l2,3.456A.552.552,0,0,1,5.4,5.11H1.412a.552.552,0,0,1-.478-.827Z" transform="matrix(-0.812, -0.584, 0.584, -0.812, 5.532, 1200.915)" fill="#a7c521"/>
      <path id="Polygon_7" data-name="Polygon 7" d="M2.929.827a.552.552,0,0,1,.955,0l2,3.456A.552.552,0,0,1,5.4,5.11H1.412a.552.552,0,0,1-.478-.827Z" transform="matrix(-0.812, -0.584, 0.584, -0.812, 91.423, 703.064)" fill="#a7c521"/>
      <path id="Polygon_2" data-name="Polygon 2" d="M3.718.277a.648.648,0,0,1,.762,0L7.615,2.555a.648.648,0,0,1,.235.724l-1.2,3.687a.648.648,0,0,1-.616.448H2.16a.648.648,0,0,1-.616-.448L.346,3.28a.648.648,0,0,1,.235-.724Z" transform="matrix(0.136, -0.991, 0.991, 0.136, 657.67, 537.016)" fill="#a7c521"/>
      <path id="Polygon_11" data-name="Polygon 11" d="M3.718.277a.648.648,0,0,1,.762,0L7.615,2.555a.648.648,0,0,1,.235.724l-1.2,3.687a.648.648,0,0,1-.616.448H2.16a.648.648,0,0,1-.616-.448L.346,3.28a.648.648,0,0,1,.235-.724Z" transform="matrix(-0.812, -0.584, 0.584, -0.812, 171.735, 1130.929)" fill="#a7c521"/>
      <path id="Polygon_6" data-name="Polygon 6" d="M1.844.137a.321.321,0,0,1,.378,0l1.556,1.13a.321.321,0,0,1,.117.359L3.3,3.456a.321.321,0,0,1-.306.222H1.072a.321.321,0,0,1-.306-.222L.172,1.627a.321.321,0,0,1,.117-.359Z" transform="translate(282.344 551.316) rotate(-94.749)" fill="#a7c521"/>
      <path id="Polygon_8" data-name="Polygon 8" d="M3.718.277a.648.648,0,0,1,.762,0L7.615,2.555a.648.648,0,0,1,.235.724l-1.2,3.687a.648.648,0,0,1-.616.448H2.16a.648.648,0,0,1-.616-.448L.346,3.28a.648.648,0,0,1,.235-.724Z" transform="matrix(-0.812, -0.584, 0.584, -0.812, 465.991, 955.966)" fill="#a7c521"/>
      <path id="Polygon_9" data-name="Polygon 9" d="M2.686.2a.468.468,0,0,1,.55,0L5.5,1.846a.468.468,0,0,1,.17.524L4.807,5.034a.468.468,0,0,1-.445.324h-2.8a.468.468,0,0,1-.445-.324L.25,2.37a.468.468,0,0,1,.17-.524Z" transform="matrix(0.057, -0.998, 0.998, 0.057, 206.109, 423.368)" fill="#a7c521"/>
      <path id="Polygon_5" data-name="Polygon 5" d="M3.718.277a.648.648,0,0,1,.762,0L7.615,2.555a.648.648,0,0,1,.235.724l-1.2,3.687a.648.648,0,0,1-.616.448H2.16a.648.648,0,0,1-.616-.448L.346,3.28a.648.648,0,0,1,.235-.724Z" transform="matrix(-0.812, -0.584, 0.584, -0.812, 182.868, 262.474)" fill="#a7c521"/>
      <path id="Polygon_12" data-name="Polygon 12" d="M3.718.277a.648.648,0,0,1,.762,0L7.615,2.555a.648.648,0,0,1,.235.724l-1.2,3.687a.648.648,0,0,1-.616.448H2.16a.648.648,0,0,1-.616-.448L.346,3.28a.648.648,0,0,1,.235-.724Z" transform="matrix(-0.812, -0.584, 0.584, -0.812, 556.654, 100.235)" fill="#a7c521"/>
      <path id="Polygon_3" data-name="Polygon 3" d="M3.2.583a.388.388,0,0,1,.673,0L6.268,4.726a.388.388,0,0,1-.336.583H1.147a.388.388,0,0,1-.336-.583Z" transform="matrix(-0.812, -0.584, 0.584, -0.812, 897.692, 416.76)" fill="#a7c521"/>
    </g>
  </g>
</svg>
