<svg width="50" height="50" viewBox="0 0 50 50" fill="none" xmlns="http://www.w3.org/2000/svg">
<path fill-rule="evenodd" clip-rule="evenodd" d="M25 50C38.8071 50 50 38.8071 50 25C50 11.1929 38.8071 0 25 0C11.1929 0 0 11.1929 0 25C0 38.8071 11.1929 50 25 50Z" fill="#F1F1F1"/>
<path fill-rule="evenodd" clip-rule="evenodd" d="M14 18C14 15.7909 15.7909 14 18 14H29.8C32.0091 14 33.8 15.7909 33.8 18V18.3801C34.905 18.3801 36 19.4817 36 20.5701V34.03C36 35.1184 35.105 36 34 36H17C15.343 36 14 34.6771 14 33.045V18.3801V18ZM30 27.0407C30 28.1407 30.895 29.0317 32 29.0317C33.105 29.0317 34 28.1407 34 27.0407C34 25.9407 33.105 25.0498 32 25.0498C30.895 25.0498 30 25.9407 30 27.0407ZM17.7 16.19C16.8716 16.19 16.2 16.8616 16.2 17.69V18.3801H31.6V17.69C31.6 16.8616 30.9284 16.19 30.1 16.19H17.7Z" fill="#242E42"/>
<mask id="mask0_263_1853" style="mask-type:alpha" maskUnits="userSpaceOnUse" x="14" y="14" width="22" height="22">
<path fill-rule="evenodd" clip-rule="evenodd" d="M14 18C14 15.7909 15.7909 14 18 14H29.8C32.0091 14 33.8 15.7909 33.8 18V18.3801C34.905 18.3801 36 19.4817 36 20.5701V34.03C36 35.1184 35.105 36 34 36H17C15.343 36 14 34.6771 14 33.045V18.3801V18ZM30 27.0407C30 28.1407 30.895 29.0317 32 29.0317C33.105 29.0317 34 28.1407 34 27.0407C34 25.9407 33.105 25.0498 32 25.0498C30.895 25.0498 30 25.9407 30 27.0407ZM17.7 16.19C16.8716 16.19 16.2 16.8616 16.2 17.69V18.3801H31.6V17.69C31.6 16.8616 30.9284 16.19 30.1 16.19H17.7Z" fill="white"/>
</mask>
<g mask="url(#mask0_263_1853)">
</g>
</svg>
